<?xml version="1.0" encoding="UTF-8" standalone="no"?>
<!-- Creator: CorelDRAW 2018 (64-Bit) -->

<svg
   xmlns:dc="http://purl.org/dc/elements/1.1/"
   xmlns:cc="http://creativecommons.org/ns#"
   xmlns:rdf="http://www.w3.org/1999/02/22-rdf-syntax-ns#"
   xmlns:svg="http://www.w3.org/2000/svg"
   xmlns="http://www.w3.org/2000/svg"
   xmlns:sodipodi="http://sodipodi.sourceforge.net/DTD/sodipodi-0.dtd"
   xmlns:inkscape="http://www.inkscape.org/namespaces/inkscape"
   xml:space="preserve"
   width="177.47279mm"
   height="185.12863mm"
   version="1.1"
   style="clip-rule:evenodd;fill-rule:evenodd;image-rendering:optimizeQuality;shape-rendering:geometricPrecision;text-rendering:geometricPrecision"
   viewBox="0 0 17747.279 18512.863"
   id="svg1297"
   sodipodi:docname="Logo IF-Else.svg"
   inkscape:version="0.92.4 (5da689c313, 2019-01-14)"><metadata
   id="metadata1301"><rdf:RDF><cc:Work
       rdf:about=""><dc:format>image/svg+xml</dc:format><dc:type
         rdf:resource="http://purl.org/dc/dcmitype/StillImage" /><dc:title></dc:title></cc:Work></rdf:RDF></metadata><sodipodi:namedview
   pagecolor="#ffffff"
   bordercolor="#666666"
   borderopacity="1"
   objecttolerance="10"
   gridtolerance="10"
   guidetolerance="10"
   inkscape:pageopacity="0"
   inkscape:pageshadow="2"
   inkscape:window-width="1920"
   inkscape:window-height="1017"
   id="namedview1299"
   showgrid="false"
   inkscape:zoom="0.5946522"
   inkscape:cx="21.288898"
   inkscape:cy="283.76944"
   inkscape:window-x="-8"
   inkscape:window-y="-8"
   inkscape:window-maximized="1"
   inkscape:current-layer="svg1297" />
 <defs
   id="defs874">
  <style
   type="text/css"
   id="style872">
   <![CDATA[
    .fil1 {fill:#FEFEFE}
    .fil8 {fill:#F1F1F2}
    .fil11 {fill:#E6E7E8}
    .fil3 {fill:#D2D3D5}
    .fil2 {fill:#BDBFC1}
    .fil0 {fill:#373435}
    .fil4 {fill:#00AFEF}
    .fil14 {fill:black}
    .fil15 {fill:blue}
    .fil7 {fill:#003399}
    .fil16 {fill:#003399}
    .fil9 {fill:#4D4D4D}
    .fil17 {fill:#999999}
    .fil12 {fill:#A13537}
    .fil10 {fill:#BF3B3D}
    .fil5 {fill:#FF6600}
    .fil6 {fill:#373435;fill-rule:nonzero}
    .fil13 {fill:white;fill-rule:nonzero}
   ]]>
  </style>
 </defs>
 <g
   id="Layer_x0020_1"
   transform="translate(-1626.3604,-3000.046)">
  <metadata
   id="CorelCorpID_0Corel-Layer" />
  <circle
   class="fil0"
   cx="10500"
   cy="12639.27"
   r="8873.6396"
   id="circle877"
   style="fill:#373435" />
  <g
   id="_1709346146512">
   <path
   class="fil1"
   d="m 12760.25,13961.19 c 41.39,-41.52 57.63,-116.64 57.63,-186.57 0,71.18 16.11,145.88 57.28,186.92 41.52,41.39 116.64,57.63 186.57,57.63 -71.18,0 -145.88,16.11 -186.92,57.28 -41.39,41.52 -57.63,116.64 -57.63,186.57 0,-71.18 -16.11,-145.88 -57.28,-186.92 -41.52,-41.39 -116.64,-57.63 -186.57,-57.63 71.18,0 145.88,-16.11 186.92,-57.28 z m 57.63,57.63 -0.35,-0.35 -0.35,0.35 0.35,0.35 z"
   id="path879"
   inkscape:connector-curvature="0"
   style="fill:#fefefe" />
   <path
   class="fil1"
   d="m 13308.72,16616.45 c 41.39,-41.52 57.63,-116.64 57.63,-186.57 0,71.18 16.11,145.88 57.28,186.92 41.52,41.39 116.64,57.63 186.57,57.63 -71.18,0 -145.88,16.11 -186.92,57.28 -41.39,41.52 -57.63,116.64 -57.63,186.57 0,-71.18 -16.11,-145.88 -57.28,-186.92 -41.52,-41.39 -116.64,-57.63 -186.57,-57.63 71.18,0 145.88,-16.11 186.92,-57.28 z m 57.63,57.63 -0.35,-0.35 -0.35,0.35 0.35,0.35 z"
   id="path881"
   inkscape:connector-curvature="0"
   style="fill:#fefefe" />
   <path
   class="fil1"
   d="m 15679.73,18438.3 c 41.39,-41.52 57.63,-116.64 57.63,-186.57 0,71.18 16.11,145.88 57.28,186.92 41.52,41.39 116.64,57.63 186.57,57.63 -71.18,0 -145.88,16.11 -186.92,57.28 -41.39,41.52 -57.63,116.64 -57.63,186.57 0,-71.18 -16.11,-145.88 -57.28,-186.92 -41.52,-41.39 -116.64,-57.63 -186.57,-57.63 71.18,0 145.88,-16.11 186.92,-57.28 z m 57.63,57.63 -0.35,-0.35 -0.35,0.35 0.35,0.35 z"
   id="path883"
   inkscape:connector-curvature="0"
   style="fill:#fefefe" />
   <path
   class="fil1"
   d="m 14436.77,19680.56 c 41.39,-41.52 57.63,-116.64 57.63,-186.57 0,71.18 16.11,145.88 57.28,186.92 41.52,41.39 116.64,57.63 186.57,57.63 -71.18,0 -145.88,16.11 -186.92,57.28 -41.39,41.52 -57.63,116.64 -57.63,186.57 0,-71.18 -16.11,-145.88 -57.28,-186.92 -41.52,-41.39 -116.64,-57.63 -186.57,-57.63 71.18,0 145.88,-16.11 186.92,-57.28 z m 57.63,57.63 -0.35,-0.35 -0.35,0.35 0.35,0.35 z"
   id="path885"
   inkscape:connector-curvature="0"
   style="fill:#fefefe" />
   <path
   class="fil1"
   d="m 7956.82,10672.81 c 41.39,-41.52 57.63,-116.64 57.63,-186.57 0,71.18 16.11,145.88 57.28,186.92 41.52,41.39 116.64,57.63 186.57,57.63 -71.18,0 -145.88,16.11 -186.92,57.28 -41.39,41.52 -57.63,116.64 -57.63,186.57 0,-71.18 -16.11,-145.88 -57.28,-186.92 -41.52,-41.39 -116.64,-57.63 -186.57,-57.63 71.18,0 145.88,-16.11 186.92,-57.28 z m 57.63,57.63 -0.35,-0.35 -0.35,0.35 0.35,0.35 z"
   id="path887"
   inkscape:connector-curvature="0"
   style="fill:#fefefe" />
   <path
   class="fil1"
   d="m 8972.82,13763.15 c 41.39,-41.52 57.63,-116.64 57.63,-186.57 0,71.18 16.11,145.88 57.28,186.92 41.52,41.39 116.64,57.63 186.57,57.63 -71.18,0 -145.88,16.11 -186.92,57.28 -41.39,41.52 -57.63,116.64 -57.63,186.57 0,-71.18 -16.11,-145.88 -57.28,-186.92 -41.52,-41.39 -116.64,-57.63 -186.57,-57.63 71.18,0 145.88,-16.11 186.92,-57.28 z m 57.63,57.63 -0.35,-0.35 -0.35,0.35 0.35,0.35 z"
   id="path889"
   inkscape:connector-curvature="0"
   style="fill:#fefefe" />
   <path
   class="fil1"
   d="m 7025.13,15190.39 c 41.39,-41.52 57.63,-116.64 57.63,-186.57 0,71.18 16.11,145.88 57.28,186.92 41.52,41.39 116.64,57.63 186.57,57.63 -71.18,0 -145.88,16.11 -186.92,57.28 -41.39,41.52 -57.63,116.64 -57.63,186.57 0,-71.18 -16.11,-145.88 -57.28,-186.92 -41.52,-41.39 -116.64,-57.63 -186.57,-57.63 71.18,0 145.88,-16.11 186.92,-57.28 z m 57.63,57.63 -0.35,-0.35 -0.35,0.35 0.35,0.35 z"
   id="path891"
   inkscape:connector-curvature="0"
   style="fill:#fefefe" />
   <path
   class="fil1"
   d="m 5071.93,17207.79 c 41.39,-41.52 57.63,-116.64 57.63,-186.57 0,71.18 16.11,145.88 57.28,186.92 41.52,41.39 116.64,57.63 186.57,57.63 -71.18,0 -145.88,16.11 -186.92,57.28 -41.39,41.52 -57.63,116.64 -57.63,186.57 0,-71.18 -16.11,-145.88 -57.28,-186.92 -41.52,-41.39 -116.64,-57.63 -186.57,-57.63 71.18,0 145.88,-16.11 186.92,-57.28 z m 57.63,57.63 -0.35,-0.35 -0.35,0.35 0.35,0.35 z"
   id="path893"
   inkscape:connector-curvature="0"
   style="fill:#fefefe" />
   <path
   class="fil1"
   d="m 7336.76,18498.96 c 41.39,-41.52 57.63,-116.64 57.63,-186.57 0,71.18 16.11,145.88 57.28,186.92 41.52,41.39 116.64,57.63 186.57,57.63 -71.18,0 -145.88,16.11 -186.92,57.28 -41.39,41.52 -57.63,116.64 -57.63,186.57 0,-71.18 -16.11,-145.88 -57.28,-186.92 -41.52,-41.39 -116.64,-57.63 -186.57,-57.63 71.18,0 145.88,-16.11 186.92,-57.28 z m 57.63,57.63 -0.35,-0.35 -0.35,0.35 0.35,0.35 z"
   id="path895"
   inkscape:connector-curvature="0"
   style="fill:#fefefe" />
  </g>
  <g
   id="_1709346142480">
   <path
   class="fil1"
   d="m 14826.52,9371.22 c 41.39,-41.52 57.63,-116.64 57.63,-186.57 0,71.18 16.11,145.88 57.28,186.92 41.52,41.39 116.64,57.63 186.57,57.63 -71.18,0 -145.88,16.11 -186.92,57.28 -41.39,41.52 -57.63,116.64 -57.63,186.57 0,-71.18 -16.11,-145.88 -57.28,-186.92 -41.52,-41.39 -116.64,-57.63 -186.57,-57.63 71.18,0 145.88,-16.11 186.92,-57.28 z m 57.63,57.63 -0.35,-0.35 -0.35,0.35 0.35,0.35 z"
   id="path898"
   inkscape:connector-curvature="0"
   style="fill:#fefefe" />
   <path
   class="fil1"
   d="m 17197.53,11193.07 c 41.39,-41.52 57.63,-116.64 57.63,-186.57 0,71.18 16.11,145.88 57.28,186.92 41.52,41.39 116.64,57.63 186.57,57.63 -71.18,0 -145.88,16.11 -186.92,57.28 -41.39,41.52 -57.63,116.64 -57.63,186.57 0,-71.18 -16.11,-145.88 -57.28,-186.92 -41.52,-41.39 -116.64,-57.63 -186.57,-57.63 71.18,0 145.88,-16.11 186.92,-57.28 z m 57.63,57.63 -0.35,-0.35 -0.35,0.35 0.35,0.35 z"
   id="path900"
   inkscape:connector-curvature="0"
   style="fill:#fefefe" />
   <path
   class="fil1"
   d="m 15954.57,12435.33 c 41.39,-41.52 57.63,-116.64 57.63,-186.57 0,71.18 16.11,145.88 57.28,186.92 41.52,41.39 116.64,57.63 186.57,57.63 -71.18,0 -145.88,16.11 -186.92,57.28 -41.39,41.52 -57.63,116.64 -57.63,186.57 0,-71.18 -16.11,-145.88 -57.28,-186.92 -41.52,-41.39 -116.64,-57.63 -186.57,-57.63 71.18,0 145.88,-16.11 186.92,-57.28 z m 57.63,57.63 -0.35,-0.35 -0.35,0.35 0.35,0.35 z"
   id="path902"
   inkscape:connector-curvature="0"
   style="fill:#fefefe" />
   <path
   class="fil1"
   d="m 5758.45,5943.38 c 41.39,-41.52 57.63,-116.64 57.63,-186.57 0,71.18 16.11,145.88 57.28,186.92 41.52,41.39 116.64,57.63 186.57,57.63 -71.18,0 -145.88,16.11 -186.92,57.28 -41.39,41.52 -57.63,116.64 -57.63,186.57 0,-71.18 -16.11,-145.88 -57.28,-186.92 -41.52,-41.39 -116.64,-57.63 -186.57,-57.63 71.18,0 145.88,-16.11 186.92,-57.28 z m 57.63,57.63 -0.35,-0.35 -0.35,0.35 0.35,0.35 z"
   id="path904"
   inkscape:connector-curvature="0"
   style="fill:#fefefe" />
   <path
   class="fil1"
   d="m 6774.45,9033.72 c 41.39,-41.52 57.63,-116.64 57.63,-186.57 0,71.18 16.11,145.88 57.28,186.92 41.52,41.39 116.64,57.63 186.57,57.63 -71.18,0 -145.88,16.11 -186.92,57.28 -41.39,41.52 -57.63,116.64 -57.63,186.57 0,-71.18 -16.11,-145.88 -57.28,-186.92 -41.52,-41.39 -116.64,-57.63 -186.57,-57.63 71.18,0 145.88,-16.11 186.92,-57.28 z m 57.63,57.63 -0.35,-0.35 -0.35,0.35 0.35,0.35 z"
   id="path906"
   inkscape:connector-curvature="0"
   style="fill:#fefefe" />
   <path
   class="fil1"
   d="m 4826.76,10460.96 c 41.39,-41.52 57.63,-116.64 57.63,-186.57 0,71.18 16.11,145.88 57.28,186.92 41.52,41.39 116.64,57.63 186.57,57.63 -71.18,0 -145.88,16.11 -186.92,57.28 -41.39,41.52 -57.63,116.64 -57.63,186.57 0,-71.18 -16.11,-145.88 -57.28,-186.92 -41.52,-41.39 -116.64,-57.63 -186.57,-57.63 71.18,0 145.88,-16.11 186.92,-57.28 z m 57.63,57.63 -0.35,-0.35 -0.35,0.35 0.35,0.35 z"
   id="path908"
   inkscape:connector-curvature="0"
   style="fill:#fefefe" />
   <path
   class="fil1"
   d="m 2873.56,12478.36 c 41.39,-41.52 57.63,-116.64 57.63,-186.57 0,71.18 16.11,145.88 57.28,186.92 41.52,41.39 116.64,57.63 186.57,57.63 -71.18,0 -145.88,16.11 -186.92,57.28 -41.39,41.52 -57.63,116.64 -57.63,186.57 0,-71.18 -16.11,-145.88 -57.28,-186.92 -41.52,-41.39 -116.64,-57.63 -186.57,-57.63 71.18,0 145.88,-16.11 186.92,-57.28 z m 57.63,57.63 -0.35,-0.35 -0.35,0.35 0.35,0.35 z"
   id="path910"
   inkscape:connector-curvature="0"
   style="fill:#fefefe" />
   <path
   class="fil1"
   d="m 5138.39,13769.53 c 41.39,-41.52 57.63,-116.64 57.63,-186.57 0,71.18 16.11,145.88 57.28,186.92 41.52,41.39 116.64,57.63 186.57,57.63 -71.18,0 -145.88,16.11 -186.92,57.28 -41.39,41.52 -57.63,116.64 -57.63,186.57 0,-71.18 -16.11,-145.88 -57.28,-186.92 -41.52,-41.39 -116.64,-57.63 -186.57,-57.63 71.18,0 145.88,-16.11 186.92,-57.28 z m 57.63,57.63 -0.35,-0.35 -0.35,0.35 0.35,0.35 z"
   id="path912"
   inkscape:connector-curvature="0"
   style="fill:#fefefe" />
  </g>
  <g
   id="Bulan">
   <path
   class="fil2"
   d="m 5395.03,5380.68 c 144.47,325.3 224.89,685.34 224.89,1064.22 0,1449.56 -1175.1,2624.66 -2624.66,2624.66 -203.46,0 -401.51,-23.16 -591.66,-66.97 656.73,-1459.61 1696.55,-2709.55 2991.43,-3621.91 z"
   id="path915"
   inkscape:connector-curvature="0"
   style="fill:#bdbfc1" />
   <path
   class="fil3"
   d="m 3202.35,7590.09 c 100.02,-144.27 204.19,-285.45 312.37,-423.33 8.04,-0.5 16.15,-0.77 24.33,-0.77 195.81,0 354.54,144.52 354.54,322.79 0,178.27 -158.73,322.79 -354.54,322.79 -156.94,0 -290.03,-92.84 -336.7,-221.48 z"
   id="path917"
   inkscape:connector-curvature="0"
   style="fill:#d2d3d5" />
   <ellipse
   class="fil3"
   transform="matrix(-0.313428,0.327565,-0.636769,-0.20945,4473.01,8187.4)"
   rx="391.57999"
   ry="137.58"
   id="ellipse919"
   cx="0"
   cy="0"
   style="fill:#d2d3d5" />
   <ellipse
   class="fil3"
   transform="rotate(-33.816925,14083.223,-5034.9396)"
   rx="201.08"
   ry="127"
   id="ellipse921"
   cx="0"
   cy="0"
   style="fill:#d2d3d5" />
   <ellipse
   class="fil3"
   transform="rotate(-5.4701981,74477.541,-44724.418)"
   rx="317.5"
   ry="259.29001"
   id="ellipse923"
   cx="0"
   cy="0"
   style="fill:#d2d3d5" />
   <ellipse
   class="fil3"
   cx="3164.22"
   cy="8579.7197"
   rx="221.36"
   ry="100.54"
   id="ellipse925"
   style="fill:#d2d3d5" />
  </g>
  
  
  <g
   id="_1709348893072">
   <path
   class="fil7"
   d="m 9257.34,12164.13 -74.76,-59.18 -2562.99,3237.98 c -13.89,17.55 -36.8,30.67 -57.4,38.6 l -1589.56,612.54 -83.09,32.01 c 8.25,65.48 -8.77,134.11 -52.98,189.96 -87.31,110.3 -247.49,128.94 -357.79,41.63 -110.31,-87.31 -128.94,-247.49 -41.63,-357.79 87.3,-110.31 247.49,-128.95 357.79,-41.64 19.91,15.77 36.82,33.92 50.68,53.72 l 83.11,-32.05 246.47,-95.03 1288.22,-496.72 c 41.66,-16.07 78.87,-44.52 106.53,-79.47 l 2516.78,-3179.61 -74.76,-59.18 -2516.79,3179.61 c -17.08,21.58 -40.39,39.78 -66.07,49.68 l -1565.02,603.45 c -4.88,-4.35 -9.9,-8.59 -15.09,-12.69 -148.01,-117.16 -362.99,-92.15 -480.15,55.87 -117.16,148.01 -92.14,362.99 55.87,480.15 148.01,117.15 362.99,92.14 480.15,-55.87 41.55,-52.5 65.19,-113.41 71.83,-175.4 l 1619.79,-624.19 c 37.13,-14.32 73.17,-37.19 97.88,-68.4 z"
   id="path1019"
   inkscape:connector-curvature="0"
   style="fill:#003399" />
   <circle
   class="fil7"
   transform="matrix(-0.17444,-0.138076,-0.138076,0.17444,4636.84,16057.9)"
   r="809.62"
   id="circle1021"
   cx="0"
   cy="0"
   style="fill:#003399" />
  </g>
  <g
   id="_1709348891344">
   <path
   class="fil5"
   d="m 9345.37,12920.63 -74.77,-59.18 -2562.98,3237.98 c -13.89,17.55 -36.81,30.67 -57.4,38.6 l -1589.56,612.54 -83.1,32.02 c 8.26,65.47 -8.77,134.1 -52.97,189.95 -87.31,110.3 -247.49,128.94 -357.8,41.63 -110.3,-87.31 -128.94,-247.49 -41.63,-357.79 87.31,-110.31 247.49,-128.95 357.8,-41.64 19.91,15.77 36.82,33.92 50.68,53.72 l 83.1,-32.05 246.48,-95.03 1288.21,-496.72 c 41.66,-16.06 78.87,-44.52 106.53,-79.47 l 2516.79,-3179.61 -74.77,-59.18 -2516.78,3179.61 c -17.09,21.59 -40.4,39.79 -66.07,49.68 l -1565.02,603.45 c -4.89,-4.35 -9.91,-8.59 -15.1,-12.69 -148.01,-117.16 -362.99,-92.14 -480.15,55.87 -117.15,148.01 -92.14,362.99 55.87,480.15 148.01,117.16 363,92.14 480.15,-55.87 41.56,-52.5 65.19,-113.4 71.83,-175.4 l 1619.79,-624.19 c 37.13,-14.32 73.18,-37.19 97.89,-68.4 z"
   id="path1024"
   inkscape:connector-curvature="0"
   style="fill:#ff6600" />
   <circle
   class="fil5"
   transform="matrix(-0.17444,-0.138076,-0.138076,0.17444,4724.86,16814.4)"
   r="809.62"
   id="circle1026"
   cx="0"
   cy="0"
   style="fill:#ff6600" />
  </g>
  <g
   id="_1709348889328">
   <path
   class="fil7"
   d="m 9433.4,13677.13 -74.77,-59.18 -2562.98,3237.98 c -13.9,17.55 -36.81,30.67 -57.4,38.6 l -1589.57,612.54 -83.09,32.02 c 8.26,65.48 -8.77,134.1 -52.98,189.95 -87.31,110.3 -247.49,128.94 -357.79,41.63 -110.31,-87.31 -128.94,-247.49 -41.63,-357.79 87.31,-110.31 247.49,-128.94 357.79,-41.63 19.91,15.76 36.82,33.91 50.68,53.71 l 83.11,-32.05 246.47,-95.03 1288.22,-496.72 c 41.66,-16.06 78.87,-44.52 106.53,-79.47 l 2516.79,-3179.61 -74.77,-59.18 -2516.79,3179.61 c -17.08,21.59 -40.39,39.79 -66.07,49.68 l -1565.02,603.45 c -4.88,-4.35 -9.9,-8.59 -15.09,-12.69 -148.01,-117.16 -362.99,-92.14 -480.15,55.87 -117.16,148.01 -92.14,362.99 55.87,480.15 148.01,117.16 362.99,92.14 480.15,-55.87 41.55,-52.5 65.19,-113.4 71.83,-175.4 l 1619.79,-624.19 c 37.13,-14.32 73.17,-37.19 97.88,-68.4 z"
   id="path1029"
   inkscape:connector-curvature="0"
   style="fill:#003399" />
   <circle
   class="fil7"
   transform="matrix(-0.17444,-0.138076,-0.138076,0.17444,4812.89,17570.9)"
   r="809.62"
   id="circle1031"
   cx="0"
   cy="0"
   style="fill:#003399" />
  </g>
  <g
   id="_1709348890896">
   <path
   class="fil5"
   d="m 11110.44,13657.63 74.77,59.18 -2562.99,3237.97 c -13.89,17.55 -21.4,42.87 -24.39,64.73 l -231.2,1687.74 -12.08,88.22 c -65.63,7 -128.51,39.33 -172.72,95.18 -87.3,110.3 -68.67,270.48 41.64,357.79 110.3,87.31 270.48,68.67 357.79,-41.63 87.31,-110.3 68.67,-270.48 -41.63,-357.79 -19.91,-15.77 -41.46,-28.06 -63.92,-37 l 12.11,-88.24 35.91,-261.71 187.66,-1367.85 c 6.07,-44.24 25.22,-86.99 52.88,-121.93 l 2516.79,-3179.61 74.77,59.18 -2516.79,3179.61 c -17.09,21.58 -29.45,48.45 -33.19,75.71 l -227.98,1661.76 c 5.36,3.76 10.63,7.67 15.82,11.78 148.01,117.16 173.03,332.14 55.87,480.15 -117.16,148.01 -332.14,173.03 -480.15,55.87 -148.01,-117.16 -173.03,-332.14 -55.87,-480.15 41.55,-52.5 95.4,-89.49 154.22,-110.19 l 235.59,-1719.83 c 5.41,-39.42 19.4,-79.76 44.11,-110.97 z"
   id="path1034"
   inkscape:connector-curvature="0"
   style="fill:#ff6600" />
   <circle
   class="fil5"
   transform="matrix(0.17444,0.138076,-0.138076,0.17444,8381.57,19048.7)"
   r="809.62"
   id="circle1036"
   cx="0"
   cy="0"
   style="fill:#ff6600" />
  </g>
  <g
   id="_1709348887600">
   <path
   class="fil5"
   d="m 10353.94,13745.65 74.76,59.18 -2562.98,3237.98 c -13.89,17.54 -21.4,42.86 -24.4,64.73 l -231.19,1687.73 -12.08,88.23 c -65.63,7 -128.51,39.33 -172.72,95.17 -87.31,110.31 -68.67,270.49 41.64,357.8 110.3,87.31 270.48,68.67 357.79,-41.63 87.31,-110.31 68.67,-270.49 -41.63,-357.8 -19.92,-15.76 -41.47,-28.05 -63.92,-36.99 l 12.11,-88.25 35.9,-261.71 187.67,-1367.85 c 6.07,-44.23 25.22,-86.98 52.88,-121.93 l 2516.79,-3179.61 74.76,59.18 -2516.78,3179.61 c -17.09,21.59 -29.45,48.45 -33.19,75.72 l -227.98,1661.76 c 5.35,3.75 10.63,7.67 15.82,11.77 148.01,117.16 173.02,332.14 55.87,480.16 -117.16,148.01 -332.14,173.02 -480.15,55.87 -148.02,-117.16 -173.03,-332.14 -55.87,-480.16 41.55,-52.49 95.4,-89.48 154.22,-110.18 l 235.59,-1719.83 c 5.41,-39.43 19.4,-79.76 44.1,-110.97 z"
   id="path1039"
   inkscape:connector-curvature="0"
   style="fill:#ff6600" />
   <circle
   class="fil5"
   transform="matrix(0.17444,0.138076,-0.138076,0.17444,7625.07,19136.8)"
   r="809.62"
   id="circle1041"
   cx="0"
   cy="0"
   style="fill:#ff6600" />
  </g>
  <g
   id="_1709348884848">
   <path
   class="fil7"
   d="m 9597.44,13833.68 74.76,59.18 -2562.98,3237.97 c -13.89,17.55 -21.4,42.87 -24.4,64.73 l -231.19,1687.74 -12.08,88.22 c -65.63,7 -128.51,39.33 -172.72,95.18 -87.31,110.3 -68.67,270.48 41.63,357.79 110.31,87.31 270.49,68.68 357.8,-41.63 87.31,-110.3 68.67,-270.48 -41.63,-357.79 -19.92,-15.77 -41.47,-28.06 -63.92,-37 l 12.11,-88.24 35.9,-261.71 187.66,-1367.85 c 6.07,-44.23 25.23,-86.99 52.89,-121.93 l 2516.79,-3179.61 74.76,59.18 -2516.78,3179.61 c -17.09,21.58 -29.45,48.45 -33.19,75.71 l -227.98,1661.76 c 5.35,3.76 10.63,7.68 15.82,11.78 148.01,117.16 173.02,332.14 55.87,480.15 -117.16,148.01 -332.14,173.03 -480.16,55.87 -148.01,-117.16 -173.02,-332.14 -55.86,-480.15 41.55,-52.5 95.4,-89.49 154.22,-110.18 l 235.59,-1719.84 c 5.41,-39.42 19.4,-79.76 44.1,-110.97 z"
   id="path1044"
   inkscape:connector-curvature="0"
   style="fill:#003399" />
   <circle
   class="fil7"
   transform="matrix(0.17444,0.138076,-0.138076,0.17444,6868.57,19224.8)"
   r="809.62"
   id="circle1046"
   cx="0"
   cy="0"
   style="fill:#003399" />
  </g>
  <path
   class="fil8"
   d="M 8418.24,15129.37 6729.63,13792.76 c -103.38,-81.82 -52.03,-119.38 -9,-273.29 510.32,-1825.31 1404.09,-3616.17 2688.19,-5238.44 2280.72,-2881.39 5361.23,-4694.91 8503.07,-5279.33 60.53,-11.26 127.11,37 129.27,83.24 149.99,3199.23 -899.53,6620.55 -3184.98,9507.89 -1284.09,1622.28 -2821.89,2903.37 -4481.26,3819.16 -139.91,77.22 -164.68,135.82 -268.06,53.99 z"
   id="path1049"
   inkscape:connector-curvature="0"
   style="fill:#f1f1f2" />
  <path
   class="fil9"
   d="m 6788.13,13839.07 1630.11,1290.3 1630.12,1290.3 -618.05,411.68 c -73.87,49.22 -160.53,47.8 -258.58,-29.8 l -1277,-1010.79 -1277,-1010.8 c -98.04,-77.6 -119.32,-161.63 -88.37,-244.82 z"
   id="path1051"
   inkscape:connector-curvature="0"
   style="fill:#4d4d4d" />
  <path
   class="fil10"
   d="m 3792.22,13408.4 c -68.64,-808.38 310.79,-1576.64 988.6,-2432.97 861.76,-1088.71 2807.26,-2048.01 4287.1,-2247.31 -958.27,1304.87 -1673.34,2707.29 -2148.67,4141.19 -919.06,69.41 -1776.57,408 -2599.61,891.15 -205.79,120.8 -483.43,-48.3 -527.42,-352.06 z"
   id="path1053"
   inkscape:connector-curvature="0"
   style="fill:#bf3b3d" />
  <path
   class="fil10"
   d="m 11172.3,19250.03 c 802.54,-118.81 1463.16,-664.5 2140.98,-1520.82 867.51,-1095.99 1355.17,-3230.76 1199.86,-4718.24 -1049.6,1235.29 -2250.56,2255.99 -3537.58,3050.15 149.02,917.63 16.48,1837.2 -267.01,2756.41 -70.32,228.03 158,459.43 463.75,432.5 z"
   id="path1055"
   inkscape:connector-curvature="0"
   style="fill:#bf3b3d" />
  <path
   class="fil10"
   d="m 14241.29,4271.05 c 1182.97,-610.44 2421.91,-1037.08 3670.6,-1269.35 60.53,-11.26 127.11,37 129.27,83.24 58.07,1238.53 -63.78,2510.34 -367.39,3771.57 -394.68,-515.18 -857.29,-989.65 -1387.68,-1409.48 -635.39,-502.93 -1324.65,-893.52 -2044.8,-1175.98 z"
   id="path1057"
   inkscape:connector-curvature="0"
   style="fill:#bf3b3d" />
  <circle
   class="fil11"
   transform="matrix(1.06645,0.844134,-0.844134,1.06645,13614.8,8559.48)"
   r="1449.92"
   id="circle1059"
   cx="0"
   cy="0"
   style="fill:#e6e7e8" />
  <path
   class="fil7"
   d="m 8471.21,9602.05 c 220.57,-348.3 457.41,-691.03 710.58,-1027.03 697.94,875.68 1548,1727.27 2530.79,2505.19 940.6,744.52 1918.99,1355.58 2888.91,1825.91 -269.43,322.84 -549.14,631.33 -837.97,925.26 -743.34,-365.93 -1490.94,-814.1 -2222,-1341.6 l -24.73,-212.52 -107.78,-926.3 -926.3,107.79 -203.42,23.67 C 9598.74,10882.89 8993.4,10249.4 8471.21,9602.05 Z"
   id="path1061"
   inkscape:connector-curvature="0"
   style="fill:#003399" />
  <path
   class="fil7"
   d="m 12876.89,14663.92 c -743.52,-372.07 -1482.95,-822.46 -2200.85,-1349.99 l 22.23,-2.59 453.81,-52.8 c 648.64,455.61 1312.78,849.12 1979.92,1179.43 -84.4,76.47 -169.44,151.79 -255.11,225.95 z M 9665.82,12506.77 c -674.1,-584.76 -1277.16,-1207.65 -1803.64,-1851.79 52.86,-100.54 106.98,-200.72 162.38,-300.53 468.25,577.92 997.97,1139.12 1585.3,1671.49 l 54.33,466.89 z"
   id="path1063"
   inkscape:connector-curvature="0"
   style="fill:#003399" />
  <path
   class="fil12"
   d="m 10975.56,16061.12 c 1299.53,-797.55 2478.73,-1814.26 3537.58,-3050.15 -988.42,1618.09 -2148.86,2815.37 -3481.34,3591.87 -11.09,-205.86 -29.84,-386.44 -56.24,-541.72 z"
   id="path1065"
   inkscape:connector-curvature="0"
   style="fill:#a13537" />
  <path
   class="fil12"
   d="m 6919.25,12869.31 c 477.87,-1447.94 1196.66,-2829.08 2156.4,-4143.41 -1347.9,1333.54 -2246.76,2737.88 -2696.55,4213.05 202.9,-36.47 382.96,-59.68 540.15,-69.64 z"
   id="path1067"
   inkscape:connector-curvature="0"
   style="fill:#a13537" />
  <path
   class="fil5"
   d="m 8153.17,10127.46 c 31.33,-54.21 63.05,-108.32 95.15,-162.3 646.25,823.22 1477.84,1659.17 2455,2432.63 914.02,723.48 1852.07,1310.66 2746.65,1743.59 -45.2,43.41 -90.61,86.46 -136.22,129.17 -887.2,-431.76 -1816.46,-1014.74 -2722.15,-1731.62 -968.78,-766.83 -1794.58,-1595.09 -2438.43,-2411.47 z"
   id="path1069"
   inkscape:connector-curvature="0"
   style="fill:#ff6600" />
  <polygon
   class="fil5"
   points="11446.66,13062.73 10679.73,13151.97 9912.8,13241.21 9823.57,12474.28 9734.32,11707.35 10501.25,11618.12 11268.18,11528.88 11357.41,12295.81 "
   id="polygon1071"
   style="fill:#ff6600" />
  <path
   class="fil13"
   d="m 10385.87,12045.96 -190.41,237.21 c -9.77,12.05 -9.92,23.12 3.67,34.02 13.65,10.91 24.33,8.4 34.1,-3.65 l 190.41,-237.29 36.64,29.47 -10.91,13.58 c -9.68,12.05 -9.84,23.11 3.74,34.02 13.58,10.99 24.34,8.39 34.02,-3.66 l 41.27,-51.43 -186.57,-149.79 -41.28,51.36 c -9.68,12.04 -9.84,23.11 3.75,34.02 13.57,10.98 24.33,8.39 34.01,-3.66 l 10.92,-13.67 z"
   id="path1073"
   inkscape:connector-curvature="0"
   style="fill:#ffffff;fill-rule:nonzero" />
  <path
   id="path1075"
   class="fil13"
   d="m 10697.2,12292.78 55.53,44.61 c 9.88,7.9 23.19,9.92 34.1,-3.74 10.91,-13.58 6.07,-26.13 -3.74,-34.03 l -148.82,-119.5 c -9.8,-7.89 -23.12,-9.84 -34.02,3.75 -10.99,13.57 -6.14,26.12 3.65,34.01 l 55.53,44.62 -175.27,218.32 -55.52,-44.6 c -9.81,-7.9 -23.12,-9.84 -34.11,3.74 -10.9,13.57 -6.06,26.12 3.75,34.02 l 148.82,119.5 c 9.88,7.9 23.19,9.92 34.1,-3.65 10.91,-13.67 6.06,-26.22 -3.75,-34.11 l -55.52,-44.54 z"
   inkscape:connector-curvature="0"
   style="fill:#ffffff;fill-rule:nonzero" />
  <path
   id="path1077"
   class="fil13"
   d="m 10668.1,12656.49 c -9.69,12.05 -9.84,23.12 3.74,34.02 13.58,10.91 24.33,8.4 34.1,-3.65 l 113.4,-141.35 92.9,74.65 c 9.88,7.9 23.19,9.84 34.1,-3.74 10.91,-13.58 6.06,-26.13 -3.75,-34.03 l -92.88,-74.65 46.65,-58.18 129.93,104.37 c 9.88,7.89 23.19,9.91 34.1,-3.74 10.91,-13.59 6.07,-26.13 -3.74,-34.03 l -167.7,-134.64 z"
   inkscape:connector-curvature="0"
   style="fill:#ffffff;fill-rule:nonzero" />
  <rect
   class="fil5"
   transform="matrix(1.20925,0.95717,-18.7498,23.6877,9939.89,13093)"
   width="87.860001"
   height="84.110001"
   id="rect1079"
   x="0"
   y="0"
   style="fill:#ff6600" />
  
  <g
   id="_1709348861136">
   <path
   class="fil15"
   d="m 13585.64,9989.49 c 17.44,-35.2 3.04,-77.86 -32.16,-95.3 -35.2,-17.43 -77.86,-3.03 -95.3,32.16 v 0 c -0.27,0.55 -0.53,1.11 -0.79,1.66 v 0 c -33.61,70.08 -5,154.21 65.12,188.94 70.12,34.73 161.56,9.63 196.43,-60.76 -14.74,29.57 -67.08,45.46 -101.13,28.6 -35.2,-17.44 -49.6,-60.1 -32.17,-95.3 z"
   id="path1083"
   inkscape:connector-curvature="0"
   style="fill:#0000ff" />
   <path
   class="fil5"
   d="m 13596.66,9978.87 c -17.44,35.2 -3.04,77.87 32.16,95.3 35.2,17.44 77.86,3.04 95.3,-32.16 v 0 c 0.27,-0.55 0.53,-1.1 0.79,-1.66 v 0 c 33.61,-70.07 5,-154.2 -65.12,-188.94 -70.12,-34.73 -161.56,-9.63 -196.43,60.77 14.73,-29.57 67.08,-45.47 101.13,-28.6 35.2,17.43 49.6,60.1 32.17,95.29 z"
   id="path1085"
   inkscape:connector-curvature="0"
   style="fill:#ff6600" />
   <g
   id="g1091">
    <circle
   class="fil5"
   transform="matrix(-0.254734,0.254734,0.254734,0.254734,14035.1,8963.87)"
   r="931.33002"
   id="circle1087"
   cx="0"
   cy="0"
   style="fill:#ff6600" />
    <path
   class="fil5"
   d="m 14393.89,9044.09 c 213.14,-103.93 477.5,-67.38 654.58,109.7 l 263.83,263.83 -808.2,808.2 -263.82,-263.83 c -173.31,-173.31 -212,-430.21 -116.15,-640.89 64.36,-11.96 125.89,-42.8 175.67,-92.58 52.03,-52.04 83.38,-116.91 94.09,-184.43 z"
   id="path1089"
   inkscape:connector-curvature="0"
   style="fill:#ff6600" />
   </g>
   <g
   id="g1097">
    <circle
   class="fil5"
   transform="matrix(-0.254734,0.254734,-0.254734,-0.254734,13179,8107.71)"
   r="931.33002"
   id="circle1093"
   cx="0"
   cy="0"
   style="fill:#ff6600" />
    <path
   class="fil5"
   d="m 13098.77,7748.97 c 103.93,-213.14 67.38,-477.5 -109.7,-654.58 l -263.83,-263.83 -808.2,808.2 263.83,263.82 c 173.31,173.31 430.21,212 640.89,116.15 11.96,-64.36 42.8,-125.89 92.58,-175.67 52.04,-52.03 116.91,-83.38 184.43,-94.09 z"
   id="path1095"
   inkscape:connector-curvature="0"
   style="fill:#ff6600" />
   </g>
   <path
   class="fil15"
   d="m 12141.34,8530.01 c 35.19,-17.43 77.86,-3.03 95.29,32.17 17.44,35.19 3.04,77.86 -32.16,95.29 v 0 c -0.55,0.28 -1.1,0.54 -1.66,0.8 v 0 c -70.07,33.61 -154.2,5 -188.94,-65.12 -34.73,-70.12 -9.63,-161.57 60.77,-196.43 -29.57,14.73 -45.47,67.08 -28.6,101.13 17.43,35.2 60.1,49.6 95.3,32.16 z"
   id="path1099"
   inkscape:connector-curvature="0"
   style="fill:#0000ff" />
   <path
   class="fil5"
   d="m 12151.95,8519 c -35.2,17.44 -77.86,3.04 -95.3,-32.16 -17.43,-35.2 -3.03,-77.87 32.16,-95.3 h 0.01 c 0.54,-0.27 1.1,-0.54 1.65,-0.79 l 0.01,-0.01 c 70.07,-33.6 154.2,-4.99 188.93,65.13 34.73,70.12 9.63,161.56 -60.76,196.43 29.57,-14.74 45.46,-67.08 28.6,-101.14 -17.44,-35.19 -60.1,-49.59 -95.3,-32.16 z"
   id="path1101"
   inkscape:connector-curvature="0"
   style="fill:#ff6600" />
   <path
   class="fil15"
   d="m 15043.28,8521.25 c -35.2,17.43 -77.86,3.03 -95.3,-32.17 -17.43,-35.19 -3.03,-77.86 32.17,-95.29 v 0 c 0.55,-0.28 1.1,-0.54 1.65,-0.8 h 0.01 c 70.07,-33.61 154.2,-5 188.93,65.12 34.73,70.12 9.63,161.57 -60.76,196.43 29.57,-14.73 45.46,-67.08 28.6,-101.13 -17.44,-35.2 -60.1,-49.6 -95.3,-32.16 z"
   id="path1103"
   inkscape:connector-curvature="0"
   style="fill:#0000ff" />
   <path
   class="fil5"
   d="m 15032.67,8532.26 c 35.19,-17.44 77.86,-3.04 95.29,32.16 17.44,35.2 3.04,77.87 -32.16,95.3 v 0 c -0.55,0.27 -1.1,0.54 -1.65,0.79 l -0.01,0.01 c -70.07,33.6 -154.2,4.99 -188.93,-65.13 -34.74,-70.12 -9.64,-161.56 60.76,-196.43 -29.57,14.74 -45.47,67.08 -28.6,101.14 17.43,35.19 60.1,49.59 95.3,32.16 z"
   id="path1105"
   inkscape:connector-curvature="0"
   style="fill:#ff6600" />
   <path
   class="fil15"
   d="m 13599.94,7082.32 c -17.43,35.19 -3.03,77.86 32.16,95.29 35.2,17.44 77.87,3.04 95.3,-32.16 v 0 c 0.27,-0.55 0.54,-1.1 0.79,-1.66 h 0.01 c 33.6,-70.07 4.99,-154.2 -65.13,-188.93 -70.11,-34.74 -161.56,-9.64 -196.43,60.76 14.74,-29.57 67.09,-45.47 101.14,-28.6 35.19,17.43 49.59,60.1 32.16,95.3 z"
   id="path1107"
   inkscape:connector-curvature="0"
   style="fill:#0000ff" />
   <path
   class="fil5"
   d="m 13588.93,7092.93 c 17.43,-35.2 3.03,-77.86 -32.17,-95.3 -35.19,-17.43 -77.86,-3.03 -95.29,32.17 v 0 c -0.28,0.55 -0.54,1.1 -0.8,1.65 v 0.01 c -33.61,70.07 -5,154.2 65.12,188.93 70.12,34.73 161.57,9.63 196.43,-60.76 -14.73,29.57 -67.08,45.46 -101.13,28.6 -35.2,-17.44 -49.6,-60.1 -32.16,-95.3 z"
   id="path1109"
   inkscape:connector-curvature="0"
   style="fill:#ff6600" />
   <path
   class="fil15"
   d="m 13478.88,10030.58 c -344.42,-26.68 -681.38,-171.68 -944.81,-435.1 -263.42,-263.42 -408.42,-600.39 -435.09,-944.8 h 87.05 c 26.5,322.16 162.91,636.98 409.39,883.46 246.47,246.47 561.29,382.89 883.46,409.39 z"
   id="path1111"
   inkscape:connector-curvature="0"
   style="fill:#0000ff" />
   <path
   class="fil5"
   d="m 15092.22,8650.68 c -26.68,344.41 -171.68,681.38 -435.1,944.8 -263.42,263.42 -600.38,408.4 -944.8,435.1 v -87.05 c 322.17,-26.52 636.99,-162.92 883.46,-409.39 246.47,-246.48 382.89,-561.3 409.39,-883.46 z"
   id="path1113"
   inkscape:connector-curvature="0"
   style="fill:#ff6600" />
   <path
   class="fil5"
   d="m 13478.88,7124.39 c -322.17,26.49 -636.99,162.91 -883.46,409.38 -246.48,246.48 -382.87,561.3 -409.39,883.46 h -87.05 c 26.7,-344.41 171.67,-681.38 435.09,-944.8 263.43,-263.42 600.39,-408.42 944.81,-435.1 z"
   id="path1115"
   inkscape:connector-curvature="0"
   style="fill:#ff6600" />
   <path
   class="fil15"
   d="m 14657.12,7472.43 c 263.42,263.42 408.4,600.39 435.1,944.8 h -87.05 c -26.52,-322.16 -162.92,-636.98 -409.39,-883.46 -246.47,-246.47 -561.29,-382.87 -883.46,-409.38 v -87.06 c 344.42,26.7 681.38,171.68 944.8,435.1 z"
   id="path1117"
   inkscape:connector-curvature="0"
   style="fill:#0000ff" />
   <g
   id="g1123">
    <circle
   class="fil16"
   transform="matrix(-0.254734,-0.254734,-0.254734,0.254734,13179,8948.68)"
   r="931.33002"
   id="circle1119"
   cx="0"
   cy="0"
   style="fill:#003399" />
    <path
   class="fil7"
   d="m 13098.78,9307.42 c 103.93,213.14 67.38,477.5 -109.7,654.58 l -263.83,263.83 -808.2,-808.19 263.83,-263.83 c 173.31,-173.31 430.21,-212 640.89,-116.15 11.96,64.36 42.8,125.89 92.59,175.67 52.03,52.04 116.91,83.38 184.42,94.09 z"
   id="path1121"
   inkscape:connector-curvature="0"
   style="fill:#003399" />
   </g>
   <g
   id="g1129">
    <circle
   class="fil16"
   transform="matrix(-0.254734,-0.254734,0.254734,-0.254734,14035.2,8092.52)"
   r="931.33002"
   id="circle1125"
   cx="0"
   cy="0"
   style="fill:#003399" />
    <path
   class="fil7"
   d="m 14393.9,8012.3 c 213.14,103.93 477.5,67.38 654.58,-109.7 l 263.83,-263.83 -808.19,-808.2 -263.83,263.83 c -173.31,173.31 -212,430.21 -116.15,640.89 64.36,11.96 125.89,42.8 175.67,92.59 52.04,52.03 83.38,116.91 94.09,184.42 z"
   id="path1127"
   inkscape:connector-curvature="0"
   style="fill:#003399" />
   </g>
  </g>
  <path
   class="fil17"
   d="m 14838.7,7013.21 c 853.97,675.96 998.29,1916.22 322.33,2770.19 -675.95,853.98 -1916.21,998.29 -2770.19,322.34 -853.97,-675.96 -998.29,-1916.21 -322.33,-2770.19 675.96,-853.98 1916.21,-998.29 2770.19,-322.34 z m -205.16,259.2 c 710.82,562.65 830.95,1595 268.3,2305.83 -562.65,710.83 -1595,830.95 -2305.83,268.3 -710.83,-562.65 -830.96,-1595 -268.31,-2305.83 562.65,-710.83 1595.01,-830.95 2305.84,-268.3 z"
   id="path1132"
   inkscape:connector-curvature="0"
   style="fill:#999999" />
  <g
   id="_1709348855184">
   <path
   class="fil1"
   d="m 12760.25,13961.19 c 41.39,-41.52 57.63,-116.64 57.63,-186.57 0,71.18 16.11,145.88 57.28,186.92 41.52,41.39 116.64,57.63 186.57,57.63 -71.18,0 -145.88,16.11 -186.92,57.28 -41.39,41.52 -57.63,116.64 -57.63,186.57 0,-71.18 -16.11,-145.88 -57.28,-186.92 -41.52,-41.39 -116.64,-57.63 -186.57,-57.63 71.18,0 145.88,-16.11 186.92,-57.28 z m 57.63,57.63 -0.35,-0.35 -0.35,0.35 0.35,0.35 z"
   id="path1134"
   inkscape:connector-curvature="0"
   style="fill:#fefefe" />
   <path
   class="fil1"
   d="m 13308.72,16616.45 c 41.39,-41.52 57.63,-116.64 57.63,-186.57 0,71.18 16.11,145.88 57.28,186.92 41.52,41.39 116.64,57.63 186.57,57.63 -71.18,0 -145.88,16.11 -186.92,57.28 -41.39,41.52 -57.63,116.64 -57.63,186.57 0,-71.18 -16.11,-145.88 -57.28,-186.92 -41.52,-41.39 -116.64,-57.63 -186.57,-57.63 71.18,0 145.88,-16.11 186.92,-57.28 z m 57.63,57.63 -0.35,-0.35 -0.35,0.35 0.35,0.35 z"
   id="path1136"
   inkscape:connector-curvature="0"
   style="fill:#fefefe" />
   <path
   class="fil1"
   d="m 15679.73,18438.3 c 41.39,-41.52 57.63,-116.64 57.63,-186.57 0,71.18 16.11,145.88 57.28,186.92 41.52,41.39 116.64,57.63 186.57,57.63 -71.18,0 -145.88,16.11 -186.92,57.28 -41.39,41.52 -57.63,116.64 -57.63,186.57 0,-71.18 -16.11,-145.88 -57.28,-186.92 -41.52,-41.39 -116.64,-57.63 -186.57,-57.63 71.18,0 145.88,-16.11 186.92,-57.28 z m 57.63,57.63 -0.35,-0.35 -0.35,0.35 0.35,0.35 z"
   id="path1138"
   inkscape:connector-curvature="0"
   style="fill:#fefefe" />
   <path
   class="fil1"
   d="m 14436.77,19680.56 c 41.39,-41.52 57.63,-116.64 57.63,-186.57 0,71.18 16.11,145.88 57.28,186.92 41.52,41.39 116.64,57.63 186.57,57.63 -71.18,0 -145.88,16.11 -186.92,57.28 -41.39,41.52 -57.63,116.64 -57.63,186.57 0,-71.18 -16.11,-145.88 -57.28,-186.92 -41.52,-41.39 -116.64,-57.63 -186.57,-57.63 71.18,0 145.88,-16.11 186.92,-57.28 z m 57.63,57.63 -0.35,-0.35 -0.35,0.35 0.35,0.35 z"
   id="path1140"
   inkscape:connector-curvature="0"
   style="fill:#fefefe" />
   <path
   class="fil1"
   d="m 7956.82,10672.81 c 41.39,-41.52 57.63,-116.64 57.63,-186.57 0,71.18 16.11,145.88 57.28,186.92 41.52,41.39 116.64,57.63 186.57,57.63 -71.18,0 -145.88,16.11 -186.92,57.28 -41.39,41.52 -57.63,116.64 -57.63,186.57 0,-71.18 -16.11,-145.88 -57.28,-186.92 -41.52,-41.39 -116.64,-57.63 -186.57,-57.63 71.18,0 145.88,-16.11 186.92,-57.28 z m 57.63,57.63 -0.35,-0.35 -0.35,0.35 0.35,0.35 z"
   id="path1142"
   inkscape:connector-curvature="0"
   style="fill:#fefefe" />
   <path
   class="fil1"
   d="m 8972.82,13763.15 c 41.39,-41.52 57.63,-116.64 57.63,-186.57 0,71.18 16.11,145.88 57.28,186.92 41.52,41.39 116.64,57.63 186.57,57.63 -71.18,0 -145.88,16.11 -186.92,57.28 -41.39,41.52 -57.63,116.64 -57.63,186.57 0,-71.18 -16.11,-145.88 -57.28,-186.92 -41.52,-41.39 -116.64,-57.63 -186.57,-57.63 71.18,0 145.88,-16.11 186.92,-57.28 z m 57.63,57.63 -0.35,-0.35 -0.35,0.35 0.35,0.35 z"
   id="path1144"
   inkscape:connector-curvature="0"
   style="fill:#fefefe" />
   <path
   class="fil1"
   d="m 7025.13,15190.39 c 41.39,-41.52 57.63,-116.64 57.63,-186.57 0,71.18 16.11,145.88 57.28,186.92 41.52,41.39 116.64,57.63 186.57,57.63 -71.18,0 -145.88,16.11 -186.92,57.28 -41.39,41.52 -57.63,116.64 -57.63,186.57 0,-71.18 -16.11,-145.88 -57.28,-186.92 -41.52,-41.39 -116.64,-57.63 -186.57,-57.63 71.18,0 145.88,-16.11 186.92,-57.28 z m 57.63,57.63 -0.35,-0.35 -0.35,0.35 0.35,0.35 z"
   id="path1146"
   inkscape:connector-curvature="0"
   style="fill:#fefefe" />
   <path
   class="fil1"
   d="m 5071.93,17207.79 c 41.39,-41.52 57.63,-116.64 57.63,-186.57 0,71.18 16.11,145.88 57.28,186.92 41.52,41.39 116.64,57.63 186.57,57.63 -71.18,0 -145.88,16.11 -186.92,57.28 -41.39,41.52 -57.63,116.64 -57.63,186.57 0,-71.18 -16.11,-145.88 -57.28,-186.92 -41.52,-41.39 -116.64,-57.63 -186.57,-57.63 71.18,0 145.88,-16.11 186.92,-57.28 z m 57.63,57.63 -0.35,-0.35 -0.35,0.35 0.35,0.35 z"
   id="path1148"
   inkscape:connector-curvature="0"
   style="fill:#fefefe" />
   <path
   class="fil1"
   d="m 7336.76,18498.96 c 41.39,-41.52 57.63,-116.64 57.63,-186.57 0,71.18 16.11,145.88 57.28,186.92 41.52,41.39 116.64,57.63 186.57,57.63 -71.18,0 -145.88,16.11 -186.92,57.28 -41.39,41.52 -57.63,116.64 -57.63,186.57 0,-71.18 -16.11,-145.88 -57.28,-186.92 -41.52,-41.39 -116.64,-57.63 -186.57,-57.63 71.18,0 145.88,-16.11 186.92,-57.28 z m 57.63,57.63 -0.35,-0.35 -0.35,0.35 0.35,0.35 z"
   id="path1150"
   inkscape:connector-curvature="0"
   style="fill:#fefefe" />
  </g>
  <g
   id="_1709346755632">
   <path
   class="fil1"
   d="m 14826.52,9371.22 c 41.39,-41.52 57.63,-116.64 57.63,-186.57 0,71.18 16.11,145.88 57.28,186.92 41.52,41.39 116.64,57.63 186.57,57.63 -71.18,0 -145.88,16.11 -186.92,57.28 -41.39,41.52 -57.63,116.64 -57.63,186.57 0,-71.18 -16.11,-145.88 -57.28,-186.92 -41.52,-41.39 -116.64,-57.63 -186.57,-57.63 71.18,0 145.88,-16.11 186.92,-57.28 z m 57.63,57.63 -0.35,-0.35 -0.35,0.35 0.35,0.35 z"
   id="path1153"
   inkscape:connector-curvature="0"
   style="fill:#fefefe" />
   <path
   class="fil1"
   d="m 17197.53,11193.07 c 41.39,-41.52 57.63,-116.64 57.63,-186.57 0,71.18 16.11,145.88 57.28,186.92 41.52,41.39 116.64,57.63 186.57,57.63 -71.18,0 -145.88,16.11 -186.92,57.28 -41.39,41.52 -57.63,116.64 -57.63,186.57 0,-71.18 -16.11,-145.88 -57.28,-186.92 -41.52,-41.39 -116.64,-57.63 -186.57,-57.63 71.18,0 145.88,-16.11 186.92,-57.28 z m 57.63,57.63 -0.35,-0.35 -0.35,0.35 0.35,0.35 z"
   id="path1155"
   inkscape:connector-curvature="0"
   style="fill:#fefefe" />
   <path
   class="fil1"
   d="m 15954.57,12435.33 c 41.39,-41.52 57.63,-116.64 57.63,-186.57 0,71.18 16.11,145.88 57.28,186.92 41.52,41.39 116.64,57.63 186.57,57.63 -71.18,0 -145.88,16.11 -186.92,57.28 -41.39,41.52 -57.63,116.64 -57.63,186.57 0,-71.18 -16.11,-145.88 -57.28,-186.92 -41.52,-41.39 -116.64,-57.63 -186.57,-57.63 71.18,0 145.88,-16.11 186.92,-57.28 z m 57.63,57.63 -0.35,-0.35 -0.35,0.35 0.35,0.35 z"
   id="path1157"
   inkscape:connector-curvature="0"
   style="fill:#fefefe" />
   <path
   class="fil1"
   d="m 5758.45,5943.38 c 41.39,-41.52 57.63,-116.64 57.63,-186.57 0,71.18 16.11,145.88 57.28,186.92 41.52,41.39 116.64,57.63 186.57,57.63 -71.18,0 -145.88,16.11 -186.92,57.28 -41.39,41.52 -57.63,116.64 -57.63,186.57 0,-71.18 -16.11,-145.88 -57.28,-186.92 -41.52,-41.39 -116.64,-57.63 -186.57,-57.63 71.18,0 145.88,-16.11 186.92,-57.28 z m 57.63,57.63 -0.35,-0.35 -0.35,0.35 0.35,0.35 z"
   id="path1159"
   inkscape:connector-curvature="0"
   style="fill:#fefefe" />
   <path
   class="fil1"
   d="m 6774.45,9033.72 c 41.39,-41.52 57.63,-116.64 57.63,-186.57 0,71.18 16.11,145.88 57.28,186.92 41.52,41.39 116.64,57.63 186.57,57.63 -71.18,0 -145.88,16.11 -186.92,57.28 -41.39,41.52 -57.63,116.64 -57.63,186.57 0,-71.18 -16.11,-145.88 -57.28,-186.92 -41.52,-41.39 -116.64,-57.63 -186.57,-57.63 71.18,0 145.88,-16.11 186.92,-57.28 z m 57.63,57.63 -0.35,-0.35 -0.35,0.35 0.35,0.35 z"
   id="path1161"
   inkscape:connector-curvature="0"
   style="fill:#fefefe" />
   <path
   class="fil1"
   d="m 4826.76,10460.96 c 41.39,-41.52 57.63,-116.64 57.63,-186.57 0,71.18 16.11,145.88 57.28,186.92 41.52,41.39 116.64,57.63 186.57,57.63 -71.18,0 -145.88,16.11 -186.92,57.28 -41.39,41.52 -57.63,116.64 -57.63,186.57 0,-71.18 -16.11,-145.88 -57.28,-186.92 -41.52,-41.39 -116.64,-57.63 -186.57,-57.63 71.18,0 145.88,-16.11 186.92,-57.28 z m 57.63,57.63 -0.35,-0.35 -0.35,0.35 0.35,0.35 z"
   id="path1163"
   inkscape:connector-curvature="0"
   style="fill:#fefefe" />
   <path
   class="fil1"
   d="m 2873.56,12478.36 c 41.39,-41.52 57.63,-116.64 57.63,-186.57 0,71.18 16.11,145.88 57.28,186.92 41.52,41.39 116.64,57.63 186.57,57.63 -71.18,0 -145.88,16.11 -186.92,57.28 -41.39,41.52 -57.63,116.64 -57.63,186.57 0,-71.18 -16.11,-145.88 -57.28,-186.92 -41.52,-41.39 -116.64,-57.63 -186.57,-57.63 71.18,0 145.88,-16.11 186.92,-57.28 z m 57.63,57.63 -0.35,-0.35 -0.35,0.35 0.35,0.35 z"
   id="path1165"
   inkscape:connector-curvature="0"
   style="fill:#fefefe" />
   <path
   class="fil1"
   d="m 5138.39,13769.53 c 41.39,-41.52 57.63,-116.64 57.63,-186.57 0,71.18 16.11,145.88 57.28,186.92 41.52,41.39 116.64,57.63 186.57,57.63 -71.18,0 -145.88,16.11 -186.92,57.28 -41.39,41.52 -57.63,116.64 -57.63,186.57 0,-71.18 -16.11,-145.88 -57.28,-186.92 -41.52,-41.39 -116.64,-57.63 -186.57,-57.63 71.18,0 145.88,-16.11 186.92,-57.28 z m 57.63,57.63 -0.35,-0.35 -0.35,0.35 0.35,0.35 z"
   id="path1167"
   inkscape:connector-curvature="0"
   style="fill:#fefefe" />
  </g>
  <g
   id="Bulan_17">
   <path
   class="fil2"
   d="m 5395.03,5380.68 c 144.47,325.3 224.89,685.34 224.89,1064.22 0,1449.56 -1175.1,2624.66 -2624.66,2624.66 -203.46,0 -401.51,-23.16 -591.66,-66.97 656.73,-1459.61 1696.55,-2709.55 2991.43,-3621.91 z"
   id="path1170"
   inkscape:connector-curvature="0"
   style="fill:#bdbfc1" />
   <path
   class="fil3"
   d="m 3202.35,7590.09 c 100.02,-144.27 204.19,-285.45 312.37,-423.33 8.04,-0.5 16.15,-0.77 24.33,-0.77 195.81,0 354.54,144.52 354.54,322.79 0,178.27 -158.73,322.79 -354.54,322.79 -156.94,0 -290.03,-92.84 -336.7,-221.48 z"
   id="path1172"
   inkscape:connector-curvature="0"
   style="fill:#d2d3d5" />
   <ellipse
   class="fil3"
   transform="matrix(-0.313428,0.327565,-0.636769,-0.20945,4473.01,8187.4)"
   rx="391.57999"
   ry="137.58"
   id="ellipse1174"
   cx="0"
   cy="0"
   style="fill:#d2d3d5" />
   <ellipse
   class="fil3"
   transform="rotate(-33.816925,14083.223,-5034.9396)"
   rx="201.08"
   ry="127"
   id="ellipse1176"
   cx="0"
   cy="0"
   style="fill:#d2d3d5" />
   <ellipse
   class="fil3"
   transform="rotate(-5.4701981,74477.541,-44724.418)"
   rx="317.5"
   ry="259.29001"
   id="ellipse1178"
   cx="0"
   cy="0"
   style="fill:#d2d3d5" />
   <ellipse
   class="fil3"
   cx="3164.22"
   cy="8579.7197"
   rx="221.36"
   ry="100.54"
   id="ellipse1180"
   style="fill:#d2d3d5" />
  </g>
  <g
   id="_1709346752080">
   <path
   class="fil7"
   d="m 9257.34,12164.13 -74.76,-59.18 -2562.99,3237.98 c -13.89,17.55 -36.8,30.67 -57.4,38.6 l -1589.56,612.54 -83.09,32.01 c 8.25,65.48 -8.77,134.11 -52.98,189.96 -87.31,110.3 -247.49,128.94 -357.79,41.63 -110.31,-87.31 -128.94,-247.49 -41.63,-357.79 87.3,-110.31 247.49,-128.95 357.79,-41.64 19.91,15.77 36.82,33.92 50.68,53.72 l 83.11,-32.05 246.47,-95.03 1288.22,-496.72 c 41.66,-16.07 78.87,-44.52 106.53,-79.47 l 2516.78,-3179.61 -74.76,-59.18 -2516.79,3179.61 c -17.08,21.58 -40.39,39.78 -66.07,49.68 l -1565.02,603.45 c -4.88,-4.35 -9.9,-8.59 -15.09,-12.69 -148.01,-117.16 -362.99,-92.15 -480.15,55.87 -117.16,148.01 -92.14,362.99 55.87,480.15 148.01,117.15 362.99,92.14 480.15,-55.87 41.55,-52.5 65.19,-113.41 71.83,-175.4 l 1619.79,-624.19 c 37.13,-14.32 73.17,-37.19 97.88,-68.4 z"
   id="path1183"
   inkscape:connector-curvature="0"
   style="fill:#003399" />
   <circle
   class="fil7"
   transform="matrix(-0.17444,-0.138076,-0.138076,0.17444,4636.84,16057.9)"
   r="809.62"
   id="circle1185"
   cx="0"
   cy="0"
   style="fill:#003399" />
  </g>
  <g
   id="_1709346818768">
   <path
   class="fil5"
   d="m 9345.37,12920.63 -74.77,-59.18 -2562.98,3237.98 c -13.89,17.55 -36.81,30.67 -57.4,38.6 l -1589.56,612.54 -83.1,32.02 c 8.26,65.47 -8.77,134.1 -52.97,189.95 -87.31,110.3 -247.49,128.94 -357.8,41.63 -110.3,-87.31 -128.94,-247.49 -41.63,-357.79 87.31,-110.31 247.49,-128.95 357.8,-41.64 19.91,15.77 36.82,33.92 50.68,53.72 l 83.1,-32.05 246.48,-95.03 1288.21,-496.72 c 41.66,-16.06 78.87,-44.52 106.53,-79.47 l 2516.79,-3179.61 -74.77,-59.18 -2516.78,3179.61 c -17.09,21.59 -40.4,39.79 -66.07,49.68 l -1565.02,603.45 c -4.89,-4.35 -9.91,-8.59 -15.1,-12.69 -148.01,-117.16 -362.99,-92.14 -480.15,55.87 -117.15,148.01 -92.14,362.99 55.87,480.15 148.01,117.16 363,92.14 480.15,-55.87 41.56,-52.5 65.19,-113.4 71.83,-175.4 l 1619.79,-624.19 c 37.13,-14.32 73.18,-37.19 97.89,-68.4 z"
   id="path1188"
   inkscape:connector-curvature="0"
   style="fill:#ff6600" />
   <circle
   class="fil5"
   transform="matrix(-0.17444,-0.138076,-0.138076,0.17444,4724.86,16814.4)"
   r="809.62"
   id="circle1190"
   cx="0"
   cy="0"
   style="fill:#ff6600" />
  </g>
  <g
   id="_1709346817712">
   <path
   class="fil7"
   d="m 9433.4,13677.13 -74.77,-59.18 -2562.98,3237.98 c -13.9,17.55 -36.81,30.67 -57.4,38.6 l -1589.57,612.54 -83.09,32.02 c 8.26,65.48 -8.77,134.1 -52.98,189.95 -87.31,110.3 -247.49,128.94 -357.79,41.63 -110.31,-87.31 -128.94,-247.49 -41.63,-357.79 87.31,-110.31 247.49,-128.94 357.79,-41.63 19.91,15.76 36.82,33.91 50.68,53.71 l 83.11,-32.05 246.47,-95.03 1288.22,-496.72 c 41.66,-16.06 78.87,-44.52 106.53,-79.47 l 2516.79,-3179.61 -74.77,-59.18 -2516.79,3179.61 c -17.08,21.59 -40.39,39.79 -66.07,49.68 l -1565.02,603.45 c -4.88,-4.35 -9.9,-8.59 -15.09,-12.69 -148.01,-117.16 -362.99,-92.14 -480.15,55.87 -117.16,148.01 -92.14,362.99 55.87,480.15 148.01,117.16 362.99,92.14 480.15,-55.87 41.55,-52.5 65.19,-113.4 71.83,-175.4 l 1619.79,-624.19 c 37.13,-14.32 73.17,-37.19 97.88,-68.4 z"
   id="path1193"
   inkscape:connector-curvature="0"
   style="fill:#003399" />
   <circle
   class="fil7"
   transform="matrix(-0.17444,-0.138076,-0.138076,0.17444,4812.89,17570.9)"
   r="809.62"
   id="circle1195"
   cx="0"
   cy="0"
   style="fill:#003399" />
  </g>
  <g
   id="_1709346817808">
   <path
   class="fil5"
   d="m 11110.44,13657.63 74.77,59.18 -2562.99,3237.97 c -13.89,17.55 -21.4,42.87 -24.39,64.73 l -231.2,1687.74 -12.08,88.22 c -65.63,7 -128.51,39.33 -172.72,95.18 -87.3,110.3 -68.67,270.48 41.64,357.79 110.3,87.31 270.48,68.67 357.79,-41.63 87.31,-110.3 68.67,-270.48 -41.63,-357.79 -19.91,-15.77 -41.46,-28.06 -63.92,-37 l 12.11,-88.24 35.91,-261.71 187.66,-1367.85 c 6.07,-44.24 25.22,-86.99 52.88,-121.93 l 2516.79,-3179.61 74.77,59.18 -2516.79,3179.61 c -17.09,21.58 -29.45,48.45 -33.19,75.71 l -227.98,1661.76 c 5.36,3.76 10.63,7.67 15.82,11.78 148.01,117.16 173.03,332.14 55.87,480.15 -117.16,148.01 -332.14,173.03 -480.15,55.87 -148.01,-117.16 -173.03,-332.14 -55.87,-480.15 41.55,-52.5 95.4,-89.49 154.22,-110.19 l 235.59,-1719.83 c 5.41,-39.42 19.4,-79.76 44.11,-110.97 z"
   id="path1198"
   inkscape:connector-curvature="0"
   style="fill:#ff6600" />
   <circle
   class="fil5"
   transform="matrix(0.17444,0.138076,-0.138076,0.17444,8381.57,19048.7)"
   r="809.62"
   id="circle1200"
   cx="0"
   cy="0"
   style="fill:#ff6600" />
  </g>
  <g
   id="_1709346815888">
   <path
   class="fil5"
   d="m 10353.94,13745.65 74.76,59.18 -2562.98,3237.98 c -13.89,17.54 -21.4,42.86 -24.4,64.73 l -231.19,1687.73 -12.08,88.23 c -65.63,7 -128.51,39.33 -172.72,95.17 -87.31,110.31 -68.67,270.49 41.64,357.8 110.3,87.31 270.48,68.67 357.79,-41.63 87.31,-110.31 68.67,-270.49 -41.63,-357.8 -19.92,-15.76 -41.47,-28.05 -63.92,-36.99 l 12.11,-88.25 35.9,-261.71 187.67,-1367.85 c 6.07,-44.23 25.22,-86.98 52.88,-121.93 l 2516.79,-3179.61 74.76,59.18 -2516.78,3179.61 c -17.09,21.59 -29.45,48.45 -33.19,75.72 l -227.98,1661.76 c 5.35,3.75 10.63,7.67 15.82,11.77 148.01,117.16 173.02,332.14 55.87,480.16 -117.16,148.01 -332.14,173.02 -480.15,55.87 -148.02,-117.16 -173.03,-332.14 -55.87,-480.16 41.55,-52.49 95.4,-89.48 154.22,-110.18 l 235.59,-1719.83 c 5.41,-39.43 19.4,-79.76 44.1,-110.97 z"
   id="path1203"
   inkscape:connector-curvature="0"
   style="fill:#ff6600" />
   <circle
   class="fil5"
   transform="matrix(0.17444,0.138076,-0.138076,0.17444,7625.07,19136.8)"
   r="809.62"
   id="circle1205"
   cx="0"
   cy="0"
   style="fill:#ff6600" />
  </g>
  <g
   id="_1709346816144">
   <path
   class="fil7"
   d="m 9597.44,13833.68 74.76,59.18 -2562.98,3237.97 c -13.89,17.55 -21.4,42.87 -24.4,64.73 l -231.19,1687.74 -12.08,88.22 c -65.63,7 -128.51,39.33 -172.72,95.18 -87.31,110.3 -68.67,270.48 41.63,357.79 110.31,87.31 270.49,68.68 357.8,-41.63 87.31,-110.3 68.67,-270.48 -41.63,-357.79 -19.92,-15.77 -41.47,-28.06 -63.92,-37 l 12.11,-88.24 35.9,-261.71 187.66,-1367.85 c 6.07,-44.23 25.23,-86.99 52.89,-121.93 l 2516.79,-3179.61 74.76,59.18 -2516.78,3179.61 c -17.09,21.58 -29.45,48.45 -33.19,75.71 l -227.98,1661.76 c 5.35,3.76 10.63,7.68 15.82,11.78 148.01,117.16 173.02,332.14 55.87,480.15 -117.16,148.01 -332.14,173.03 -480.16,55.87 -148.01,-117.16 -173.02,-332.14 -55.86,-480.15 41.55,-52.5 95.4,-89.49 154.22,-110.18 l 235.59,-1719.84 c 5.41,-39.42 19.4,-79.76 44.1,-110.97 z"
   id="path1208"
   inkscape:connector-curvature="0"
   style="fill:#003399" />
   <circle
   class="fil7"
   transform="matrix(0.17444,0.138076,-0.138076,0.17444,6868.57,19224.8)"
   r="809.62"
   id="circle1210"
   cx="0"
   cy="0"
   style="fill:#003399" />
  </g>
  <path
   class="fil8"
   d="M 8418.24,15129.37 6729.63,13792.76 c -103.38,-81.82 -52.03,-119.38 -9,-273.29 510.32,-1825.31 1404.09,-3616.17 2688.19,-5238.44 2280.72,-2881.39 5361.23,-4694.91 8503.07,-5279.33 60.53,-11.26 127.11,37 129.27,83.24 149.99,3199.23 -899.53,6620.55 -3184.98,9507.89 -1284.09,1622.28 -2821.89,2903.37 -4481.26,3819.16 -139.91,77.22 -164.68,135.82 -268.06,53.99 z"
   id="path1213"
   inkscape:connector-curvature="0"
   style="fill:#f1f1f2" />
  <path
   class="fil9"
   d="m 6788.13,13839.07 1630.11,1290.3 1630.12,1290.3 -618.05,411.68 c -73.87,49.22 -160.53,47.8 -258.58,-29.8 l -1277,-1010.79 -1277,-1010.8 c -98.04,-77.6 -119.32,-161.63 -88.37,-244.82 z"
   id="path1215"
   inkscape:connector-curvature="0"
   style="fill:#4d4d4d" />
  <path
   class="fil10"
   d="m 3792.22,13408.4 c -68.64,-808.38 310.79,-1576.64 988.6,-2432.97 861.76,-1088.71 2807.26,-2048.01 4287.1,-2247.31 -958.27,1304.87 -1673.34,2707.29 -2148.67,4141.19 -919.06,69.41 -1776.57,408 -2599.61,891.15 -205.79,120.8 -483.43,-48.3 -527.42,-352.06 z"
   id="path1217"
   inkscape:connector-curvature="0"
   style="fill:#bf3b3d" />
  <path
   class="fil10"
   d="m 11172.3,19250.03 c 802.54,-118.81 1463.16,-664.5 2140.98,-1520.82 867.51,-1095.99 1355.17,-3230.76 1199.86,-4718.24 -1049.6,1235.29 -2250.56,2255.99 -3537.58,3050.15 149.02,917.63 16.48,1837.2 -267.01,2756.41 -70.32,228.03 158,459.43 463.75,432.5 z"
   id="path1219"
   inkscape:connector-curvature="0"
   style="fill:#bf3b3d" />
  <path
   class="fil10"
   d="m 14241.29,4271.05 c 1182.97,-610.44 2421.91,-1037.08 3670.6,-1269.35 60.53,-11.26 127.11,37 129.27,83.24 58.07,1238.53 -63.78,2510.34 -367.39,3771.57 -394.68,-515.18 -857.29,-989.65 -1387.68,-1409.48 -635.39,-502.93 -1324.65,-893.52 -2044.8,-1175.98 z"
   id="path1221"
   inkscape:connector-curvature="0"
   style="fill:#bf3b3d" />
  <circle
   class="fil11"
   transform="matrix(1.06645,0.844134,-0.844134,1.06645,13614.8,8559.48)"
   r="1449.92"
   id="circle1223"
   cx="0"
   cy="0"
   style="fill:#e6e7e8" />
  <path
   class="fil7"
   d="m 8471.21,9602.05 c 220.57,-348.3 457.41,-691.03 710.58,-1027.03 697.94,875.68 1548,1727.27 2530.79,2505.19 940.6,744.52 1918.99,1355.58 2888.91,1825.91 -269.43,322.84 -549.14,631.33 -837.97,925.26 -743.34,-365.93 -1490.94,-814.1 -2222,-1341.6 l -24.73,-212.52 -107.78,-926.3 -926.3,107.79 -203.42,23.67 C 9598.74,10882.89 8993.4,10249.4 8471.21,9602.05 Z"
   id="path1225"
   inkscape:connector-curvature="0"
   style="fill:#003399" />
  <path
   class="fil7"
   d="m 12876.89,14663.92 c -743.52,-372.07 -1482.95,-822.46 -2200.85,-1349.99 l 22.23,-2.59 453.81,-52.8 c 648.64,455.61 1312.78,849.12 1979.92,1179.43 -84.4,76.47 -169.44,151.79 -255.11,225.95 z M 9665.82,12506.77 c -674.1,-584.76 -1277.16,-1207.65 -1803.64,-1851.79 52.86,-100.54 106.98,-200.72 162.38,-300.53 468.25,577.92 997.97,1139.12 1585.3,1671.49 l 54.33,466.89 z"
   id="path1227"
   inkscape:connector-curvature="0"
   style="fill:#003399" />
  <path
   class="fil12"
   d="m 10975.56,16061.12 c 1299.53,-797.55 2478.73,-1814.26 3537.58,-3050.15 -988.42,1618.09 -2148.86,2815.37 -3481.34,3591.87 -11.09,-205.86 -29.84,-386.44 -56.24,-541.72 z"
   id="path1229"
   inkscape:connector-curvature="0"
   style="fill:#a13537" />
  <path
   class="fil12"
   d="m 6919.25,12869.31 c 477.87,-1447.94 1196.66,-2829.08 2156.4,-4143.41 -1347.9,1333.54 -2246.76,2737.88 -2696.55,4213.05 202.9,-36.47 382.96,-59.68 540.15,-69.64 z"
   id="path1231"
   inkscape:connector-curvature="0"
   style="fill:#a13537" />
  <path
   class="fil5"
   d="m 8153.17,10127.46 c 31.33,-54.21 63.05,-108.32 95.15,-162.3 646.25,823.22 1477.84,1659.17 2455,2432.63 914.02,723.48 1852.07,1310.66 2746.65,1743.59 -45.2,43.41 -90.61,86.46 -136.22,129.17 -887.2,-431.76 -1816.46,-1014.74 -2722.15,-1731.62 -968.78,-766.83 -1794.58,-1595.09 -2438.43,-2411.47 z"
   id="path1233"
   inkscape:connector-curvature="0"
   style="fill:#ff6600" />
  <polygon
   class="fil5"
   points="11446.66,13062.73 10679.73,13151.97 9912.8,13241.21 9823.57,12474.28 9734.32,11707.35 10501.25,11618.12 11268.18,11528.88 11357.41,12295.81 "
   id="polygon1235"
   style="fill:#ff6600" />
  <path
   class="fil13"
   d="m 10385.87,12045.96 -190.41,237.21 c -9.77,12.05 -9.92,23.12 3.67,34.02 13.65,10.91 24.33,8.4 34.1,-3.65 l 190.41,-237.29 36.64,29.47 -10.91,13.58 c -9.68,12.05 -9.84,23.11 3.74,34.02 13.58,10.99 24.34,8.39 34.02,-3.66 l 41.27,-51.43 -186.57,-149.79 -41.28,51.36 c -9.68,12.04 -9.84,23.11 3.75,34.02 13.57,10.98 24.33,8.39 34.01,-3.66 l 10.92,-13.67 z"
   id="path1237"
   inkscape:connector-curvature="0"
   style="fill:#ffffff;fill-rule:nonzero" />
  <path
   id="path1239"
   class="fil13"
   d="m 10697.2,12292.78 55.53,44.61 c 9.88,7.9 23.19,9.92 34.1,-3.74 10.91,-13.58 6.07,-26.13 -3.74,-34.03 l -148.82,-119.5 c -9.8,-7.89 -23.12,-9.84 -34.02,3.75 -10.99,13.57 -6.14,26.12 3.65,34.01 l 55.53,44.62 -175.27,218.32 -55.52,-44.6 c -9.81,-7.9 -23.12,-9.84 -34.11,3.74 -10.9,13.57 -6.06,26.12 3.75,34.02 l 148.82,119.5 c 9.88,7.9 23.19,9.92 34.1,-3.65 10.91,-13.67 6.06,-26.22 -3.75,-34.11 l -55.52,-44.54 z"
   inkscape:connector-curvature="0"
   style="fill:#ffffff;fill-rule:nonzero" />
  <path
   id="path1241"
   class="fil13"
   d="m 10668.1,12656.49 c -9.69,12.05 -9.84,23.12 3.74,34.02 13.58,10.91 24.33,8.4 34.1,-3.65 l 113.4,-141.35 92.9,74.65 c 9.88,7.9 23.19,9.84 34.1,-3.74 10.91,-13.58 6.06,-26.13 -3.75,-34.03 l -92.88,-74.65 46.65,-58.18 129.93,104.37 c 9.88,7.89 23.19,9.91 34.1,-3.74 10.91,-13.59 6.07,-26.13 -3.74,-34.03 l -167.7,-134.64 z"
   inkscape:connector-curvature="0"
   style="fill:#ffffff;fill-rule:nonzero" />
  <rect
   class="fil5"
   transform="matrix(1.20925,0.95717,-18.7498,23.6877,9939.89,13093)"
   width="87.860001"
   height="84.110001"
   id="rect1243"
   x="0"
   y="0"
   style="fill:#ff6600" />
  <g
   id="_1709346795120">
   <path
   class="fil15"
   d="m 13587.71,9885.58 c 16.19,-32.7 2.82,-72.33 -29.88,-88.53 -32.69,-16.19 -72.32,-2.81 -88.52,29.88 v 0 c -0.25,0.51 -0.5,1.02 -0.74,1.54 v 0 c -31.22,65.09 -4.64,143.24 60.49,175.5 65.14,32.26 150.08,8.95 182.47,-56.44 -13.69,27.47 -62.32,42.23 -93.95,26.57 -32.69,-16.2 -46.07,-55.83 -29.87,-88.52 z"
   id="path1245"
   inkscape:connector-curvature="0"
   style="fill:#0000ff" />
   <path
   class="fil5"
   d="m 13597.94,9875.72 c -16.2,32.69 -2.82,72.32 29.87,88.52 32.7,16.19 72.33,2.82 88.52,-29.88 v 0 c 0.26,-0.51 0.5,-1.02 0.74,-1.54 v 0 c 31.22,-65.09 4.64,-143.24 -60.49,-175.5 -65.13,-32.26 -150.07,-8.95 -182.46,56.44 13.69,-27.47 62.31,-42.23 93.94,-26.56 32.7,16.19 46.07,55.82 29.88,88.52 z"
   id="path1247"
   inkscape:connector-curvature="0"
   style="fill:#ff6600" />
   <g
   id="g1253">
    <circle
   class="fil5"
   transform="matrix(-0.23662,0.23662,0.23662,0.23662,14005.2,8932.89)"
   r="931.33002"
   id="circle1249"
   cx="0"
   cy="0"
   style="fill:#ff6600" />
    <path
   class="fil5"
   d="m 14338.48,9007.41 c 197.99,-96.54 443.54,-62.59 608.03,101.9 l 245.07,245.06 -750.72,750.73 -245.07,-245.07 c -160.99,-160.99 -196.93,-399.61 -107.89,-595.31 59.78,-11.11 116.94,-39.76 163.18,-86 48.33,-48.34 77.45,-108.6 87.4,-171.31 z"
   id="path1251"
   inkscape:connector-curvature="0"
   style="fill:#ff6600" />
   </g>
   <g
   id="g1259">
    <circle
   class="fil5"
   transform="matrix(-0.23662,0.23662,-0.23662,-0.23662,13210,8137.61)"
   r="931.33002"
   id="circle1255"
   cx="0"
   cy="0"
   style="fill:#ff6600" />
    <path
   class="fil5"
   d="m 13135.45,7804.38 c 96.54,-197.99 62.6,-443.54 -101.89,-608.03 l -245.07,-245.07 -750.73,750.72 245.07,245.07 c 160.99,160.99 399.61,196.93 595.31,107.89 11.11,-59.78 39.76,-116.94 86.01,-163.18 48.33,-48.33 108.59,-77.45 171.3,-87.4 z"
   id="path1257"
   inkscape:connector-curvature="0"
   style="fill:#ff6600" />
   </g>
   <path
   class="fil15"
   d="m 12246.1,8529.88 c 32.7,-16.19 72.33,-2.81 88.53,29.88 16.19,32.7 2.81,72.33 -29.88,88.52 v 0 c -0.51,0.25 -1.02,0.5 -1.54,0.74 v 0 c -65.09,31.22 -143.24,4.64 -175.5,-60.49 -32.26,-65.13 -8.95,-150.08 56.44,-182.46 -27.47,13.68 -42.23,62.31 -26.57,93.94 16.2,32.69 55.83,46.07 88.52,29.87 z"
   id="path1261"
   inkscape:connector-curvature="0"
   style="fill:#0000ff" />
   <path
   class="fil5"
   d="m 12255.96,8519.66 c -32.69,16.19 -72.32,2.81 -88.52,-29.88 -16.19,-32.7 -2.82,-72.33 29.88,-88.52 v 0 c 0.51,-0.25 1.02,-0.5 1.54,-0.74 v 0 c 65.09,-31.22 143.24,-4.64 175.5,60.49 32.26,65.13 8.95,150.08 -56.44,182.46 27.47,-13.68 42.23,-62.31 26.56,-93.94 -16.19,-32.69 -55.82,-46.07 -88.52,-29.87 z"
   id="path1263"
   inkscape:connector-curvature="0"
   style="fill:#ff6600" />
   <path
   class="fil15"
   d="m 14941.69,8521.74 c -32.69,16.19 -72.33,2.82 -88.52,-29.88 -16.19,-32.69 -2.82,-72.32 29.88,-88.52 v 0 c 0.51,-0.25 1.02,-0.5 1.53,-0.73 l 0.01,-0.01 c 65.09,-31.21 143.24,-4.64 175.5,60.5 32.26,65.13 8.94,150.07 -56.44,182.46 27.46,-13.69 42.23,-62.31 26.56,-93.94 -16.19,-32.7 -55.82,-46.07 -88.52,-29.88 z"
   id="path1265"
   inkscape:connector-curvature="0"
   style="fill:#0000ff" />
   <path
   class="fil5"
   d="m 14931.83,8531.97 c 32.7,-16.19 72.33,-2.82 88.52,29.88 16.2,32.69 2.82,72.32 -29.87,88.52 v 0 c -0.51,0.25 -1.03,0.5 -1.54,0.73 l -0.01,0.01 c -65.08,31.21 -143.23,4.64 -175.5,-60.5 -32.26,-65.13 -8.94,-150.07 56.45,-182.46 -27.47,13.69 -42.24,62.31 -26.57,93.94 16.2,32.7 55.83,46.07 88.52,29.88 z"
   id="path1267"
   inkscape:connector-curvature="0"
   style="fill:#ff6600" />
   <path
   class="fil15"
   d="m 13600.99,7185.13 c -16.2,32.7 -2.82,72.33 29.87,88.52 32.7,16.2 72.33,2.82 88.52,-29.87 v 0 c 0.26,-0.51 0.5,-1.03 0.74,-1.54 v 0 c 31.22,-65.09 4.64,-143.24 -60.49,-175.5 -65.13,-32.27 -150.07,-8.95 -182.46,56.44 13.69,-27.47 62.31,-42.23 93.94,-26.57 32.7,16.2 46.07,55.83 29.88,88.52 z"
   id="path1269"
   inkscape:connector-curvature="0"
   style="fill:#0000ff" />
   <path
   class="fil5"
   d="m 13590.76,7194.99 c 16.19,-32.69 2.82,-72.32 -29.88,-88.52 -32.69,-16.19 -72.32,-2.82 -88.52,29.88 v 0 c -0.25,0.51 -0.5,1.02 -0.74,1.54 v 0 c -31.21,65.09 -4.64,143.24 60.49,175.5 65.14,32.26 150.08,8.95 182.47,-56.44 -13.69,27.47 -62.32,42.23 -93.95,26.56 -32.69,-16.19 -46.07,-55.82 -29.87,-88.52 z"
   id="path1271"
   inkscape:connector-curvature="0"
   style="fill:#ff6600" />
   <path
   class="fil15"
   d="m 13488.53,9923.74 c -319.92,-24.78 -632.92,-159.47 -877.61,-404.15 -244.69,-244.69 -379.38,-557.7 -404.16,-877.62 h 80.86 c 24.61,299.25 151.33,591.69 380.28,820.63 228.94,228.95 521.38,355.67 820.63,380.28 z"
   id="path1273"
   inkscape:connector-curvature="0"
   style="fill:#0000ff" />
   <path
   class="fil5"
   d="m 14987.15,8641.97 c -24.78,319.92 -159.47,632.93 -404.16,877.62 -244.68,244.68 -557.69,379.35 -877.61,404.15 v -80.86 c 299.25,-24.63 591.69,-151.33 820.63,-380.28 228.95,-228.94 355.67,-521.38 380.28,-820.63 z"
   id="path1275"
   inkscape:connector-curvature="0"
   style="fill:#ff6600" />
   <path
   class="fil5"
   d="m 13488.53,7224.21 c -299.25,24.61 -591.69,151.33 -820.63,380.28 -228.95,228.95 -355.65,521.38 -380.28,820.63 h -80.86 c 24.8,-319.92 159.47,-632.92 404.16,-877.61 244.69,-244.69 557.69,-379.38 877.61,-404.16 z"
   id="path1277"
   inkscape:connector-curvature="0"
   style="fill:#ff6600" />
   <path
   class="fil15"
   d="m 14582.99,7547.51 c 244.69,244.69 379.36,557.69 404.16,877.61 h -80.86 c -24.63,-299.25 -151.33,-591.68 -380.28,-820.63 -228.94,-228.95 -521.38,-355.65 -820.63,-380.28 v -80.86 c 319.92,24.8 632.93,159.47 877.61,404.16 z"
   id="path1279"
   inkscape:connector-curvature="0"
   style="fill:#0000ff" />
   <g
   id="g1285">
    <circle
   class="fil16"
   transform="matrix(-0.23662,-0.23662,-0.23662,0.23662,13210,8918.78)"
   r="931.33002"
   id="circle1281"
   cx="0"
   cy="0"
   style="fill:#003399" />
    <path
   class="fil7"
   d="m 13135.46,9252.01 c 96.54,197.99 62.6,443.54 -101.89,608.03 l -245.07,245.07 -750.73,-750.72 245.07,-245.07 c 160.99,-160.99 399.61,-196.92 595.31,-107.89 11.11,59.78 39.76,116.94 86.01,163.18 48.33,48.34 108.59,77.45 171.3,87.4 z"
   id="path1283"
   inkscape:connector-curvature="0"
   style="fill:#003399" />
   </g>
   <g
   id="g1291">
    <circle
   class="fil16"
   transform="matrix(-0.23662,-0.23662,0.23662,-0.23662,14005.3,8123.5)"
   r="931.33002"
   id="circle1287"
   cx="0"
   cy="0"
   style="fill:#003399" />
    <path
   class="fil7"
   d="m 14338.49,8048.99 c 197.99,96.53 443.54,62.59 608.03,-101.9 l 245.07,-245.07 -750.72,-750.73 -245.07,245.07 c -160.99,160.99 -196.93,399.61 -107.89,595.32 59.78,11.1 116.94,39.75 163.18,86 48.33,48.33 77.45,108.59 87.4,171.31 z"
   id="path1289"
   inkscape:connector-curvature="0"
   style="fill:#003399" />
   </g>
  </g>
  <path
   class="fil17"
   d="m 14838.7,7013.21 c 853.97,675.96 998.29,1916.22 322.33,2770.19 -675.95,853.98 -1916.21,998.29 -2770.19,322.34 -853.97,-675.96 -998.29,-1916.21 -322.33,-2770.19 675.96,-853.98 1916.21,-998.29 2770.19,-322.34 z m -205.16,259.2 c 710.82,562.65 830.95,1595 268.3,2305.83 -562.65,710.83 -1595,830.95 -2305.83,268.3 -710.83,-562.65 -830.96,-1595 -268.31,-2305.83 562.65,-710.83 1595.01,-830.95 2305.84,-268.3 z"
   id="path1294"
   inkscape:connector-curvature="0"
   style="fill:#999999" />
 </g>
</svg>