<?xml version="1.0" encoding="UTF-8"?>
<!DOCTYPE svg PUBLIC "-//W3C//DTD SVG 1.1//EN" "http://www.w3.org/Graphics/SVG/1.1/DTD/svg11.dtd">
<!-- Creator: CorelDRAW 2018 (64-Bit) -->
<svg xmlns="http://www.w3.org/2000/svg" xml:space="preserve" width="210mm" height="297mm" version="1.1" style="shape-rendering:geometricPrecision; text-rendering:geometricPrecision; image-rendering:optimizeQuality; fill-rule:evenodd; clip-rule:evenodd"
viewBox="0 0 21000 29700"
 xmlns:xlink="http://www.w3.org/1999/xlink">
 <defs>
  <style type="text/css">
   <![CDATA[
    .fil1 {fill:#FEFEFE}
    .fil8 {fill:#F1F1F2}
    .fil11 {fill:#E6E7E8}
    .fil3 {fill:#D2D3D5}
    .fil2 {fill:#BDBFC1}
    .fil0 {fill:#373435}
    .fil4 {fill:#00AFEF}
    .fil14 {fill:black}
    .fil15 {fill:blue}
    .fil7 {fill:#003399}
    .fil16 {fill:#003399}
    .fil9 {fill:#4D4D4D}
    .fil17 {fill:#999999}
    .fil12 {fill:#A13537}
    .fil10 {fill:#BF3B3D}
    .fil5 {fill:#FF6600}
    .fil6 {fill:#373435;fill-rule:nonzero}
    .fil13 {fill:white;fill-rule:nonzero}
   ]]>
  </style>
 </defs>
 <g id="Layer_x0020_1">
  <metadata id="CorelCorpID_0Corel-Layer"/>
  <circle class="fil0" cx="10500" cy="12639.27" r="8873.64"/>
  <g id="_1709346146512">
   <path class="fil1" d="M12760.25 13961.19c41.39,-41.52 57.63,-116.64 57.63,-186.57 0,71.18 16.11,145.88 57.28,186.92 41.52,41.39 116.64,57.63 186.57,57.63 -71.18,0 -145.88,16.11 -186.92,57.28 -41.39,41.52 -57.63,116.64 -57.63,186.57 0,-71.18 -16.11,-145.88 -57.28,-186.92 -41.52,-41.39 -116.64,-57.63 -186.57,-57.63 71.18,0 145.88,-16.11 186.92,-57.28zm57.63 57.63l-0.35 -0.35 -0.35 0.35 0.35 0.35 0.35 -0.35z"/>
   <path class="fil1" d="M13308.72 16616.45c41.39,-41.52 57.63,-116.64 57.63,-186.57 0,71.18 16.11,145.88 57.28,186.92 41.52,41.39 116.64,57.63 186.57,57.63 -71.18,0 -145.88,16.11 -186.92,57.28 -41.39,41.52 -57.63,116.64 -57.63,186.57 0,-71.18 -16.11,-145.88 -57.28,-186.92 -41.52,-41.39 -116.64,-57.63 -186.57,-57.63 71.18,0 145.88,-16.11 186.92,-57.28zm57.63 57.63l-0.35 -0.35 -0.35 0.35 0.35 0.35 0.35 -0.35z"/>
   <path class="fil1" d="M15679.73 18438.3c41.39,-41.52 57.63,-116.64 57.63,-186.57 0,71.18 16.11,145.88 57.28,186.92 41.52,41.39 116.64,57.63 186.57,57.63 -71.18,0 -145.88,16.11 -186.92,57.28 -41.39,41.52 -57.63,116.64 -57.63,186.57 0,-71.18 -16.11,-145.88 -57.28,-186.92 -41.52,-41.39 -116.64,-57.63 -186.57,-57.63 71.18,0 145.88,-16.11 186.92,-57.28zm57.63 57.63l-0.35 -0.35 -0.35 0.35 0.35 0.35 0.35 -0.35z"/>
   <path class="fil1" d="M14436.77 19680.56c41.39,-41.52 57.63,-116.64 57.63,-186.57 0,71.18 16.11,145.88 57.28,186.92 41.52,41.39 116.64,57.63 186.57,57.63 -71.18,0 -145.88,16.11 -186.92,57.28 -41.39,41.52 -57.63,116.64 -57.63,186.57 0,-71.18 -16.11,-145.88 -57.28,-186.92 -41.52,-41.39 -116.64,-57.63 -186.57,-57.63 71.18,0 145.88,-16.11 186.92,-57.28zm57.63 57.63l-0.35 -0.35 -0.35 0.35 0.35 0.35 0.35 -0.35z"/>
   <path class="fil1" d="M7956.82 10672.81c41.39,-41.52 57.63,-116.64 57.63,-186.57 0,71.18 16.11,145.88 57.28,186.92 41.52,41.39 116.64,57.63 186.57,57.63 -71.18,0 -145.88,16.11 -186.92,57.28 -41.39,41.52 -57.63,116.64 -57.63,186.57 0,-71.18 -16.11,-145.88 -57.28,-186.92 -41.52,-41.39 -116.64,-57.63 -186.57,-57.63 71.18,0 145.88,-16.11 186.92,-57.28zm57.63 57.63l-0.35 -0.35 -0.35 0.35 0.35 0.35 0.35 -0.35z"/>
   <path class="fil1" d="M8972.82 13763.15c41.39,-41.52 57.63,-116.64 57.63,-186.57 0,71.18 16.11,145.88 57.28,186.92 41.52,41.39 116.64,57.63 186.57,57.63 -71.18,0 -145.88,16.11 -186.92,57.28 -41.39,41.52 -57.63,116.64 -57.63,186.57 0,-71.18 -16.11,-145.88 -57.28,-186.92 -41.52,-41.39 -116.64,-57.63 -186.57,-57.63 71.18,0 145.88,-16.11 186.92,-57.28zm57.63 57.63l-0.35 -0.35 -0.35 0.35 0.35 0.35 0.35 -0.35z"/>
   <path class="fil1" d="M7025.13 15190.39c41.39,-41.52 57.63,-116.64 57.63,-186.57 0,71.18 16.11,145.88 57.28,186.92 41.52,41.39 116.64,57.63 186.57,57.63 -71.18,0 -145.88,16.11 -186.92,57.28 -41.39,41.52 -57.63,116.64 -57.63,186.57 0,-71.18 -16.11,-145.88 -57.28,-186.92 -41.52,-41.39 -116.64,-57.63 -186.57,-57.63 71.18,0 145.88,-16.11 186.92,-57.28zm57.63 57.63l-0.35 -0.35 -0.35 0.35 0.35 0.35 0.35 -0.35z"/>
   <path class="fil1" d="M5071.93 17207.79c41.39,-41.52 57.63,-116.64 57.63,-186.57 0,71.18 16.11,145.88 57.28,186.92 41.52,41.39 116.64,57.63 186.57,57.63 -71.18,0 -145.88,16.11 -186.92,57.28 -41.39,41.52 -57.63,116.64 -57.63,186.57 0,-71.18 -16.11,-145.88 -57.28,-186.92 -41.52,-41.39 -116.64,-57.63 -186.57,-57.63 71.18,0 145.88,-16.11 186.92,-57.28zm57.63 57.63l-0.35 -0.35 -0.35 0.35 0.35 0.35 0.35 -0.35z"/>
   <path class="fil1" d="M7336.76 18498.96c41.39,-41.52 57.63,-116.64 57.63,-186.57 0,71.18 16.11,145.88 57.28,186.92 41.52,41.39 116.64,57.63 186.57,57.63 -71.18,0 -145.88,16.11 -186.92,57.28 -41.39,41.52 -57.63,116.64 -57.63,186.57 0,-71.18 -16.11,-145.88 -57.28,-186.92 -41.52,-41.39 -116.64,-57.63 -186.57,-57.63 71.18,0 145.88,-16.11 186.92,-57.28zm57.63 57.63l-0.35 -0.35 -0.35 0.35 0.35 0.35 0.35 -0.35z"/>
  </g>
  <g id="_1709346142480">
   <path class="fil1" d="M14826.52 9371.22c41.39,-41.52 57.63,-116.64 57.63,-186.57 0,71.18 16.11,145.88 57.28,186.92 41.52,41.39 116.64,57.63 186.57,57.63 -71.18,0 -145.88,16.11 -186.92,57.28 -41.39,41.52 -57.63,116.64 -57.63,186.57 0,-71.18 -16.11,-145.88 -57.28,-186.92 -41.52,-41.39 -116.64,-57.63 -186.57,-57.63 71.18,0 145.88,-16.11 186.92,-57.28zm57.63 57.63l-0.35 -0.35 -0.35 0.35 0.35 0.35 0.35 -0.35z"/>
   <path class="fil1" d="M17197.53 11193.07c41.39,-41.52 57.63,-116.64 57.63,-186.57 0,71.18 16.11,145.88 57.28,186.92 41.52,41.39 116.64,57.63 186.57,57.63 -71.18,0 -145.88,16.11 -186.92,57.28 -41.39,41.52 -57.63,116.64 -57.63,186.57 0,-71.18 -16.11,-145.88 -57.28,-186.92 -41.52,-41.39 -116.64,-57.63 -186.57,-57.63 71.18,0 145.88,-16.11 186.92,-57.28zm57.63 57.63l-0.35 -0.35 -0.35 0.35 0.35 0.35 0.35 -0.35z"/>
   <path class="fil1" d="M15954.57 12435.33c41.39,-41.52 57.63,-116.64 57.63,-186.57 0,71.18 16.11,145.88 57.28,186.92 41.52,41.39 116.64,57.63 186.57,57.63 -71.18,0 -145.88,16.11 -186.92,57.28 -41.39,41.52 -57.63,116.64 -57.63,186.57 0,-71.18 -16.11,-145.88 -57.28,-186.92 -41.52,-41.39 -116.64,-57.63 -186.57,-57.63 71.18,0 145.88,-16.11 186.92,-57.28zm57.63 57.63l-0.35 -0.35 -0.35 0.35 0.35 0.35 0.35 -0.35z"/>
   <path class="fil1" d="M5758.45 5943.38c41.39,-41.52 57.63,-116.64 57.63,-186.57 0,71.18 16.11,145.88 57.28,186.92 41.52,41.39 116.64,57.63 186.57,57.63 -71.18,0 -145.88,16.11 -186.92,57.28 -41.39,41.52 -57.63,116.64 -57.63,186.57 0,-71.18 -16.11,-145.88 -57.28,-186.92 -41.52,-41.39 -116.64,-57.63 -186.57,-57.63 71.18,0 145.88,-16.11 186.92,-57.28zm57.63 57.63l-0.35 -0.35 -0.35 0.35 0.35 0.35 0.35 -0.35z"/>
   <path class="fil1" d="M6774.45 9033.72c41.39,-41.52 57.63,-116.64 57.63,-186.57 0,71.18 16.11,145.88 57.28,186.92 41.52,41.39 116.64,57.63 186.57,57.63 -71.18,0 -145.88,16.11 -186.92,57.28 -41.39,41.52 -57.63,116.64 -57.63,186.57 0,-71.18 -16.11,-145.88 -57.28,-186.92 -41.52,-41.39 -116.64,-57.63 -186.57,-57.63 71.18,0 145.88,-16.11 186.92,-57.28zm57.63 57.63l-0.35 -0.35 -0.35 0.35 0.35 0.35 0.35 -0.35z"/>
   <path class="fil1" d="M4826.76 10460.96c41.39,-41.52 57.63,-116.64 57.63,-186.57 0,71.18 16.11,145.88 57.28,186.92 41.52,41.39 116.64,57.63 186.57,57.63 -71.18,0 -145.88,16.11 -186.92,57.28 -41.39,41.52 -57.63,116.64 -57.63,186.57 0,-71.18 -16.11,-145.88 -57.28,-186.92 -41.52,-41.39 -116.64,-57.63 -186.57,-57.63 71.18,0 145.88,-16.11 186.92,-57.28zm57.63 57.63l-0.35 -0.35 -0.35 0.35 0.35 0.35 0.35 -0.35z"/>
   <path class="fil1" d="M2873.56 12478.36c41.39,-41.52 57.63,-116.64 57.63,-186.57 0,71.18 16.11,145.88 57.28,186.92 41.52,41.39 116.64,57.63 186.57,57.63 -71.18,0 -145.88,16.11 -186.92,57.28 -41.39,41.52 -57.63,116.64 -57.63,186.57 0,-71.18 -16.11,-145.88 -57.28,-186.92 -41.52,-41.39 -116.64,-57.63 -186.57,-57.63 71.18,0 145.88,-16.11 186.92,-57.28zm57.63 57.63l-0.35 -0.35 -0.35 0.35 0.35 0.35 0.35 -0.35z"/>
   <path class="fil1" d="M5138.39 13769.53c41.39,-41.52 57.63,-116.64 57.63,-186.57 0,71.18 16.11,145.88 57.28,186.92 41.52,41.39 116.64,57.63 186.57,57.63 -71.18,0 -145.88,16.11 -186.92,57.28 -41.39,41.52 -57.63,116.64 -57.63,186.57 0,-71.18 -16.11,-145.88 -57.28,-186.92 -41.52,-41.39 -116.64,-57.63 -186.57,-57.63 71.18,0 145.88,-16.11 186.92,-57.28zm57.63 57.63l-0.35 -0.35 -0.35 0.35 0.35 0.35 0.35 -0.35z"/>
  </g>
  <g id="Bulan">
   <path class="fil2" d="M5395.03 5380.68c144.47,325.3 224.89,685.34 224.89,1064.22 0,1449.56 -1175.1,2624.66 -2624.66,2624.66 -203.46,0 -401.51,-23.16 -591.66,-66.97 656.73,-1459.61 1696.55,-2709.55 2991.43,-3621.91z"/>
   <path class="fil3" d="M3202.35 7590.09c100.02,-144.27 204.19,-285.45 312.37,-423.33 8.04,-0.5 16.15,-0.77 24.33,-0.77 195.81,0 354.54,144.52 354.54,322.79 0,178.27 -158.73,322.79 -354.54,322.79 -156.94,0 -290.03,-92.84 -336.7,-221.48z"/>
   <ellipse class="fil3" transform="matrix(-0.313428 0.327565 -0.636769 -0.20945 4473.01 8187.4)" rx="391.58" ry="137.58"/>
   <ellipse class="fil3" transform="matrix(0.83082 -0.556541 0.556541 0.83082 5184.75 6986.08)" rx="201.08" ry="127"/>
   <ellipse class="fil3" transform="matrix(0.995446 -0.095328 0.095328 0.995446 4602.66 6896.12)" rx="317.5" ry="259.29"/>
   <ellipse class="fil3" cx="3164.22" cy="8579.72" rx="221.36" ry="100.54"/>
  </g>
  <g id="IF-ELSE">
   <g id="E_x0020__x0028_1_x0029_">
    <path id="atas" class="fil4" d="M9100.07 22047.65l334.44 126.65 875.69 0 130.62 -300.8 -1128.01 0c-108.51,27.87 -159.63,92.85 -212.74,174.15z"/>
    <polygon id="Kiri_x0020_atas" class="fil4" points="9399.64,22255.52 9086.95,22142.71 9086.95,23112.4 9172.03,23187.6 9399.64,22975.87 "/>
    <path id="Bawah" class="fil4" d="M9104.01 24404.47l334.44 -126.65 875.69 0 130.62 300.8 -1128.01 0c-108.51,-27.87 -159.63,-92.85 -212.74,-174.15z"/>
    <polygon id="Kiri_x0020_Bawah" class="fil4" points="9403.58,24196.6 9090.89,24309.41 9090.89,23339.72 9175.97,23264.52 9403.58,23476.25 "/>
    <polygon id="Tengah" class="fil4" points="10554.57,23229 10351.73,23044.21 9896.56,23044.21 9441.4,23044.21 9238.56,23229 9441.4,23413.78 9896.56,23413.78 10351.73,23413.78 "/>
   </g>
   <g id="S">
    <path id="atas_0" class="fil4" d="M13213.8 22047.65l334.44 126.65 875.69 0 130.61 -300.8 -1128 0c-108.52,27.87 -159.64,92.85 -212.74,174.15z"/>
    <polygon id="Kiri_x0020_atas_1" class="fil4" points="13513.37,22255.52 13200.68,22142.71 13200.68,23112.4 13285.76,23187.6 13513.37,22975.87 "/>
    <path id="Bawah_2" class="fil4" d="M13217.74 24404.47l334.44 -126.65 875.69 0 130.61 300.8 -1128 0c-108.51,-27.87 -159.64,-92.85 -212.74,-174.15z"/>
    <path id="Kanan_x0020_Bawah" class="fil4" d="M14611.33 24575.69l-112.33 -299.28 0 -805.44 212.24 -203.34 90.05 65.31 0 1096.31c-37.18,84.09 -100.14,134.84 -189.96,146.44z"/>
    <polygon id="Tengah_3" class="fil4" points="14668.29,23229 14465.45,23044.21 14010.29,23044.21 13555.12,23044.21 13352.29,23229 13555.12,23413.78 14010.29,23413.78 14465.45,23413.78 "/>
   </g>
   <g id="L">
    <polygon id="Kiri_x0020_atas_4" class="fil4" points="11456.5,22255.52 11143.82,22142.71 11143.82,23112.4 11228.89,23187.6 11456.5,22975.87 "/>
    <path id="Bawah_5" class="fil4" d="M11160.88 24404.47l334.43 -126.65 875.7 0 130.61 300.8 -1128 0c-108.52,-27.87 -159.64,-92.85 -212.74,-174.15z"/>
    <polygon id="Kiri_x0020_Bawah_6" class="fil4" points="11460.44,24196.6 11147.76,24309.41 11147.76,23339.72 11232.84,23264.52 11460.44,23476.25 "/>
   </g>
   <g id="E_x0020__x0028_2_x0029_">
    <path id="atas_7" class="fil4" d="M15270.66 22047.65l334.44 126.65 875.69 0 130.62 -300.8 -1128.01 0c-108.51,27.87 -159.64,92.85 -212.74,174.15z"/>
    <polygon id="Kiri_x0020_atas_8" class="fil4" points="15570.23,22255.52 15257.54,22142.71 15257.54,23112.4 15342.62,23187.6 15570.23,22975.87 "/>
    <path id="Bawah_9" class="fil4" d="M15274.6 24404.47l334.44 -126.65 875.69 0 130.62 300.8 -1128.01 0c-108.51,-27.87 -159.63,-92.85 -212.74,-174.15z"/>
    <polygon id="Kiri_x0020_Bawah_10" class="fil4" points="15574.17,24196.6 15261.48,24309.41 15261.48,23339.72 15346.56,23264.52 15574.17,23476.25 "/>
    <polygon id="Tengah_11" class="fil4" points="16725.15,23229 16522.32,23044.21 16067.15,23044.21 15611.99,23044.21 15409.15,23229 15611.99,23413.78 16067.15,23413.78 16522.32,23413.78 "/>
   </g>
   <polygon id="_-" class="fil5" points="8335.12,23265.93 8132.29,23081.14 7677.12,23081.14 7221.96,23081.14 7019.12,23265.93 7221.96,23450.72 7677.12,23450.72 8132.29,23450.72 "/>
   <g id="F">
    <path id="atas_12" class="fil5" d="M4823.77 22084.59l334.44 126.65 875.69 0 130.61 -300.8 -1128 0c-108.52,27.86 -159.64,92.85 -212.74,174.15z"/>
    <polygon id="Kiri_x0020_atas_13" class="fil5" points="5123.34,22292.45 4810.65,22179.64 4810.65,23149.33 4895.73,23224.53 5123.34,23012.8 "/>
    <polygon id="Kiri_x0020_Bawah_14" class="fil5" points="5127.28,24233.54 4814.59,24346.34 4814.59,23376.66 4899.67,23301.46 5127.28,23513.19 "/>
    <polygon id="Tengah_15" class="fil5" points="6278.26,23265.93 6075.42,23081.14 5620.26,23081.14 5165.09,23081.14 4962.26,23265.93 5165.09,23450.72 5620.26,23450.72 6075.42,23450.72 "/>
   </g>
   <g id="I">
    <path id="Kanan_x0020_Atas" class="fil5" d="M4160.5 21913.37l-112.33 299.27 0 805.44 212.23 203.35 90.06 -65.31 0 -1096.31c-37.18,-84.09 -100.15,-134.85 -189.96,-146.44z"/>
    <path id="Kanan_x0020_Bawah_16" class="fil5" d="M4164.44 24612.62l-112.33 -299.28 0 -805.43 212.24 -203.35 90.05 65.31 0 1096.31c-37.18,84.09 -100.14,134.85 -189.96,146.44z"/>
   </g>
  </g>
  <g id="_1709348896080">
   <polygon class="fil6" points="5493.66,25761.29 5450.47,25761.29 5450.47,25336.55 5493.66,25336.55 "/>
   <path id="1" class="fil6" d="M5632.25 25480.53c0.8,7.6 1.3,15.1 1.5,22.5 0.2,7.4 0.3,14.9 0.3,22.5l1.2 0c4.4,-7.6 10,-14.6 16.79,-21 6.8,-6.4 14.4,-11.9 22.8,-16.5 8.4,-4.6 17.3,-8.2 26.7,-10.8 9.4,-2.6 18.69,-3.9 27.89,-3.9 36,0 62.59,9.5 79.79,28.5 17.2,19 25.8,46.09 25.8,81.29l0 178.17 -39.6 0 0 -155.38c0,-31.19 -5.4,-55.09 -16.19,-71.69 -10.8,-16.59 -30.8,-24.89 -60,-24.89 -1.99,0 -7.59,0.8 -16.79,2.4 -9.2,1.6 -18.9,6 -29.1,13.2 -10.2,7.19 -19.3,17.99 -27.29,32.39 -8,14.4 -12,34.4 -12,59.99l0 143.98 -39.6 0 0 -218.97c0,-7.6 -0.3,-17.19 -0.9,-28.79 -0.6,-11.6 -1.3,-22.6 -2.1,-33l40.8 0z"/>
   <path id="2" class="fil6" d="M6058.78 25516.53l-66.59 0 0 244.76 -39.59 0 0 -244.76 -59.39 0 0 -36 59.39 0 0 -76.79c0,-37.19 8.6,-63.69 25.8,-79.48 17.19,-15.8 39.99,-23.7 68.39,-23.7 5.59,0 11.29,0.4 17.09,1.2 5.8,0.8 11.5,1.8 17.1,3l-7.2 35.99c-4.8,-1.2 -9.8,-2.2 -15,-3 -5.2,-0.8 -10.39,-1.2 -15.59,-1.2 -10.8,0 -19.6,1.8 -26.4,5.4 -6.8,3.6 -12,8.7 -15.6,15.3 -3.6,6.6 -6,14.3 -7.2,23.1 -1.2,8.8 -1.8,18.19 -1.8,28.19l0 71.99 66.59 0 0 36z"/>
   <path id="3" class="fil6" d="M6346.14 25620.91c0,-15.6 -2.5,-30.19 -7.5,-43.79 -5,-13.6 -12.1,-25.4 -21.3,-35.4 -9.2,-10 -20.3,-17.89 -33.29,-23.69 -13,-5.8 -27.7,-8.7 -44.1,-8.7 -16.39,0 -31.09,2.9 -44.09,8.7 -13,5.8 -24,13.69 -33,23.69 -8.99,10 -15.99,21.8 -20.99,35.4 -5,13.6 -7.5,28.19 -7.5,43.79 0,15.6 2.5,30.2 7.5,43.79 5,13.6 12,25.4 20.99,35.4 9,10 20,17.9 33,23.7 13,5.79 27.7,8.69 44.09,8.69 16.4,0 31.1,-2.9 44.1,-8.69 12.99,-5.8 24.09,-13.7 33.29,-23.7 9.2,-10 16.3,-21.8 21.3,-35.4 5,-13.59 7.5,-28.19 7.5,-43.79zm43.19 0c0,21.2 -3.7,40.79 -11.1,58.79 -7.4,18 -17.69,33.6 -30.89,46.8 -13.2,13.19 -28.9,23.49 -47.1,30.89 -18.19,7.4 -38.29,11.1 -60.29,11.1 -21.59,0 -41.49,-3.7 -59.69,-11.1 -18.19,-7.4 -33.89,-17.7 -47.09,-30.89 -13.2,-13.2 -23.5,-28.8 -30.9,-46.8 -7.39,-18 -11.09,-37.59 -11.09,-58.79 0,-21.2 3.7,-40.79 11.09,-58.79 7.4,-18 17.7,-33.6 30.9,-46.79 13.2,-13.2 28.9,-23.5 47.09,-30.9 18.2,-7.4 38.1,-11.1 59.69,-11.1 22,0 42.1,3.7 60.29,11.1 18.2,7.4 33.9,17.7 47.1,30.9 13.2,13.19 23.49,28.79 30.89,46.79 7.4,18 11.1,37.59 11.1,58.79z"/>
   <path id="4" class="fil6" d="M6465.52 25568.12c0,-12.4 -0.3,-25 -0.9,-37.8 -0.6,-12.79 -1.1,-29.39 -1.5,-49.79l39 0 0 52.19 1.2 0c2.8,-7.59 6.8,-14.89 12,-21.89 5.19,-7 11.49,-13.3 18.89,-18.9 7.4,-5.6 16,-10.1 25.8,-13.5 9.8,-3.4 20.9,-5.1 33.29,-5.1 11.2,0 21,1.2 29.4,3.6l-7.8 39c-5.2,-2 -12.8,-3 -22.8,-3 -15.19,0 -28.19,2.9 -38.99,8.7 -10.8,5.8 -19.8,13.19 -27,22.19 -7.2,9 -12.49,18.7 -15.89,29.1 -3.4,10.4 -5.1,20.4 -5.1,29.99l0 158.38 -39.6 0 0 -193.17z"/>
   <path id="5" class="fil6" d="M6671.29 25542.92c0,-10.4 -0.3,-20.79 -0.9,-31.19 -0.6,-10.4 -1.3,-20.8 -2.1,-31.2l42.6 0 0 42.6 1.2 0c9.6,-16.4 22.89,-28.8 39.89,-37.2 17,-8.4 33.9,-12.6 50.69,-12.6 7.6,0 15.7,0.8 24.3,2.4 8.6,1.6 16.9,4.5 24.9,8.7 8,4.2 15.49,10.1 22.49,17.7 7,7.6 12.9,17.4 17.7,29.39 8,-17.99 20.7,-32.19 38.09,-42.59 17.4,-10.4 35.5,-15.6 54.3,-15.6 35.99,0 62.59,9.5 79.78,28.5 17.2,19 25.8,46.09 25.8,81.29l0 178.17 -39.59 0 0 -163.78c0,-28.39 -5,-50.19 -15,-65.39 -10,-15.19 -28.6,-22.79 -55.79,-22.79 -14.8,0 -27.2,2.9 -37.2,8.7 -10,5.8 -18.09,13.49 -24.29,23.09 -6.2,9.6 -10.7,20.5 -13.5,32.7 -2.8,12.2 -4.2,24.89 -4.2,38.09l0 149.38 -39.59 0 0 -163.78c0,-28.39 -5,-50.19 -15,-65.39 -10,-15.19 -28.6,-22.79 -55.79,-22.79 -2.4,0 -7.9,0.8 -16.5,2.4 -8.6,1.6 -17.5,6 -26.7,13.2 -9.2,7.19 -17.5,17.99 -24.89,32.39 -7.4,14.4 -11.1,34.4 -11.1,59.99l0 143.98 -39.6 0 0 -218.37z"/>
   <path id="6" class="fil6" d="M7341.99 25621.51c-10,0 -22.5,0.5 -37.49,1.5 -15,1 -29.4,3.4 -43.2,7.2 -13.8,3.8 -25.59,9.7 -35.39,17.7 -9.8,8 -14.7,18.99 -14.7,32.99 0,9.2 1.9,17.1 5.7,23.7 3.8,6.6 8.9,12 15.3,16.2 6.4,4.2 13.49,7.19 21.29,8.99 7.8,1.8 15.7,2.7 23.7,2.7 14.4,0 26.9,-2.4 37.49,-7.19 10.6,-4.8 19.5,-11.3 26.7,-19.5 7.2,-8.2 12.5,-17.8 15.9,-28.8 3.4,-11 5.1,-22.69 5.1,-35.09l0 -20.4 -20.4 0zm20.4 -32.39l0 -7.2c0,-48.4 -24,-72.59 -71.99,-72.59 -32.8,0 -61.39,11 -85.79,32.99l-24 -28.19c26.4,-27.2 65.99,-40.8 118.79,-40.8 13.59,0 26.69,2 39.29,6 12.6,4 23.5,10.1 32.7,18.3 9.19,8.2 16.59,18.5 22.19,30.89 5.6,12.4 8.4,27.2 8.4,44.4l0 125.38c0,10.8 0.5,22.1 1.5,33.89 1,11.8 2.1,21.5 3.3,29.1l-38.39 0c-1.2,-6.8 -2.1,-14.2 -2.7,-22.2 -0.6,-8 -0.9,-15.79 -0.9,-23.39l-1.2 0c-11.6,18.79 -25.3,32.29 -41.1,40.49 -15.8,8.2 -35.09,12.3 -57.89,12.3 -12.4,0 -24.4,-1.7 -35.99,-5.1 -11.6,-3.4 -21.9,-8.6 -30.9,-15.6 -9,-7 -16.2,-15.6 -21.6,-25.79 -5.39,-10.2 -8.09,-22.1 -8.09,-35.7 0,-22.8 5.89,-40.69 17.69,-53.69 11.8,-13 26.6,-22.7 44.4,-29.1 17.79,-6.4 36.79,-10.39 56.99,-11.99 20.19,-1.6 38.69,-2.4 55.49,-2.4l19.8 0z"/>
   <path id="7" class="fil6" d="M7638.94 25516.53l-80.99 0 0 165.57c0,10.4 1,18.9 3,25.5 2,6.6 4.8,11.7 8.4,15.3 3.6,3.6 7.9,6.09 12.9,7.49 5,1.4 10.5,2.1 16.5,2.1 6.8,0 13.8,-1 20.99,-3 7.2,-1.99 13.8,-4.59 19.8,-7.79l1.8 36.59c-14.8,6.8 -32.59,10.2 -53.39,10.2 -7.6,0 -15.5,-1 -23.7,-3 -8.2,-2 -15.69,-5.8 -22.49,-11.4 -6.8,-5.6 -12.4,-13.2 -16.8,-22.8 -4.4,-9.59 -6.6,-22.19 -6.6,-37.79l0 -176.97 -59.39 0 0 -36 59.39 0 0 -79.19 39.59 0 0 79.19 80.99 0 0 36z"/>
   <path id="8" class="fil6" d="M7750.52 25372.55c0,8.4 -2.99,15.3 -8.99,20.7 -6,5.39 -12.6,8.09 -19.8,8.09 -7.2,0 -13.8,-2.7 -19.8,-8.09 -6,-5.4 -9,-12.3 -9,-20.7 0,-8.4 3,-15.3 9,-20.7 6,-5.4 12.6,-8.1 19.8,-8.1 7.2,0 13.8,2.7 19.8,8.1 6,5.4 8.99,12.3 8.99,20.7zm-8.99 388.74l-39.6 0 0 -280.76 39.6 0 0 280.76z"/>
   <path id="9" class="fil6" d="M8041.48 25546.52c-6.8,-10.4 -16.29,-19.19 -28.49,-26.39 -12.2,-7.2 -26.1,-10.8 -41.7,-10.8 -16.39,-0.4 -31.09,2.2 -44.09,7.8 -13,5.6 -24.1,13.39 -33.3,23.39 -9.19,10 -16.19,21.9 -20.99,35.7 -4.8,13.8 -7.2,28.69 -7.2,44.69 0,16 2.4,30.9 7.2,44.69 4.8,13.8 11.8,25.7 20.99,35.7 9.2,10 20.3,17.8 33.3,23.4 13,5.59 27.7,8.19 44.09,7.79 15.6,0 29.5,-3.6 41.7,-10.79 12.2,-7.2 21.69,-16 28.49,-26.4l32.4 24.6c-14,16.39 -29.8,28.49 -47.39,36.29 -17.6,7.8 -36,11.9 -55.2,12.3 -22.79,0.4 -43.39,-3.1 -61.79,-10.5 -18.39,-7.4 -34.09,-17.7 -47.09,-30.89 -13,-13.2 -22.9,-28.9 -29.7,-47.1 -6.79,-18.2 -10.19,-37.89 -10.19,-59.09 0,-21.2 3.4,-40.89 10.19,-59.09 6.8,-18.2 16.7,-33.89 29.7,-47.09 13,-13.2 28.7,-23.5 47.09,-30.9 18.4,-7.4 39,-10.9 61.79,-10.5 19.2,0.4 37.6,4.5 55.2,12.3 17.59,7.8 33.39,19.9 47.39,36.3l-32.4 24.59z"/>
   <path id="10" class="fil6" d="M8274.85 25547.12c-6,-11.6 -14,-20.79 -24,-27.59 -9.99,-6.8 -22.19,-10.2 -36.59,-10.2 -6.8,0 -13.7,0.8 -20.7,2.4 -7,1.6 -13.29,4.1 -18.89,7.5 -5.6,3.4 -10.1,7.7 -13.5,12.89 -3.4,5.2 -5.1,11.6 -5.1,19.2 0,13.2 4.6,22.8 13.8,28.8 9.2,6 22.99,11.2 41.39,15.59l40.19 9.6c19.6,4.4 35.9,13.3 48.9,26.7 13,13.4 19.49,30.09 19.49,50.09 0,15.2 -3.1,28.3 -9.29,39.3 -6.2,10.99 -14.4,19.99 -24.6,26.99 -10.2,7 -21.9,12.1 -35.1,15.3 -13.19,3.2 -26.59,4.8 -40.19,4.8 -21.6,0 -41.69,-4.1 -60.29,-12.3 -18.6,-8.2 -34.49,-22.3 -47.69,-42.29l34.19 -23.4c8,12.8 18.1,23 30.3,30.6 12.2,7.59 26.69,11.39 43.49,11.39 8,0 16,-0.9 24,-2.7 8,-1.8 15.09,-4.59 21.29,-8.39 6.2,-3.8 11.2,-8.7 15,-14.7 3.8,-6 5.7,-13 5.7,-21 0,-14 -5.2,-24.1 -15.6,-30.29 -10.4,-6.2 -22.99,-11.1 -37.79,-14.7l-38.4 -9c-4.79,-1.2 -11.29,-3.2 -19.49,-6 -8.2,-2.8 -16.2,-7 -24,-12.6 -7.8,-5.6 -14.5,-12.9 -20.1,-21.89 -5.59,-9 -8.39,-20.1 -8.39,-33.3 0,-14.4 2.9,-27 8.69,-37.79 5.8,-10.8 13.6,-19.6 23.4,-26.4 9.8,-6.8 20.9,-11.9 33.3,-15.3 12.39,-3.4 25.19,-5.1 38.39,-5.1 19.6,0 37.79,3.8 54.59,11.4 16.8,7.6 29.8,20.6 39,39l-35.4 23.39z"/>
   <polygon id="11" class="fil6" points="8605.99,25721.7 8833.36,25721.7 8833.36,25761.29 8562.8,25761.29 8562.8,25336.55 8826.16,25336.55 8826.16,25376.15 8605.99,25376.15 8605.99,25520.73 8811.76,25520.73 8811.76,25560.32 8605.99,25560.32 "/>
   <path id="12" class="fil6" d="M8928.15 25620.91c0,15.6 2.5,30.2 7.5,43.79 5,13.6 12.1,25.4 21.3,35.4 9.19,10 20.29,17.9 33.29,23.7 13,5.79 27.7,8.69 44.09,8.69 16,0 30.9,-2.9 44.7,-8.69 13.8,-5.8 25.69,-13.7 35.69,-23.7 10,-10 17.8,-21.8 23.4,-35.4 5.6,-13.59 8.4,-28.19 8.4,-43.79 0,-15.6 -2.8,-30.19 -8.4,-43.79 -5.6,-13.6 -13.4,-25.4 -23.4,-35.4 -10,-10 -21.89,-17.89 -35.69,-23.69 -13.8,-5.8 -28.7,-8.7 -44.7,-8.7 -16.39,0 -31.09,2.9 -44.09,8.7 -13,5.8 -24.1,13.69 -33.29,23.69 -9.2,10 -16.3,21.8 -21.3,35.4 -5,13.6 -7.5,28.19 -7.5,43.79zm256.16 140.38l-39.59 0 0 -46.79 -1.2 0c-6.4,9.6 -14,17.79 -22.8,24.59 -8.8,6.8 -18,12.4 -27.59,16.8 -9.6,4.4 -19.5,7.6 -29.7,9.6 -10.2,2 -19.9,3 -29.1,3 -21.99,0 -42.09,-3.7 -60.29,-11.1 -18.19,-7.4 -33.89,-17.7 -47.09,-30.89 -13.2,-13.2 -23.5,-28.8 -30.9,-46.8 -7.39,-18 -11.09,-37.59 -11.09,-58.79 0,-21.2 3.7,-40.79 11.09,-58.79 7.4,-18 17.7,-33.6 30.9,-46.79 13.2,-13.2 28.9,-23.5 47.09,-30.9 18.2,-7.4 38.3,-11.1 60.29,-11.1 9.2,0 18.9,1 29.1,3 10.2,2 20.1,5.2 29.7,9.6 9.59,4.4 18.79,10 27.59,16.8 8.8,6.8 16.4,15 22.8,24.6l1.2 0 0 -219.57 39.59 0 0 453.53z"/>
   <path id="13" class="fil6" d="M9473.47 25761.29c-0.8,-7.6 -1.3,-15.1 -1.5,-22.5 -0.2,-7.4 -0.3,-14.89 -0.3,-22.49l-1.2 0c-4.4,7.6 -9.99,14.59 -16.79,20.99 -6.8,6.4 -14.4,11.9 -22.8,16.5 -8.4,4.6 -17.3,8.2 -26.7,10.8 -9.4,2.6 -18.69,3.9 -27.89,3.9 -36,0 -62.59,-9.5 -79.79,-28.5 -17.2,-18.99 -25.8,-46.09 -25.8,-81.28l0 -178.18 39.6 0 0 155.38c0,15.6 1.2,29.39 3.6,41.39 2.4,12 6.5,22.1 12.3,30.3 5.79,8.2 13.59,14.4 23.39,18.6 9.8,4.19 22.1,6.29 36.9,6.29 2,0 7.6,-0.8 16.79,-2.4 9.2,-1.6 18.9,-5.99 29.1,-13.19 10.2,-7.2 19.3,-18 27.3,-32.4 7.99,-14.4 11.99,-34.39 11.99,-59.99l0 -143.98 39.6 0 0 218.97c0,7.6 0.3,17.2 0.9,28.79 0.6,11.6 1.3,22.6 2.1,33l-40.8 0z"/>
   <path id="14" class="fil6" d="M9808.82 25546.52c-6.8,-10.4 -16.29,-19.19 -28.49,-26.39 -12.2,-7.2 -26.1,-10.8 -41.7,-10.8 -16.39,-0.4 -31.09,2.2 -44.09,7.8 -13,5.6 -24.1,13.39 -33.3,23.39 -9.19,10 -16.19,21.9 -20.99,35.7 -4.8,13.8 -7.2,28.69 -7.2,44.69 0,16 2.4,30.9 7.2,44.69 4.8,13.8 11.8,25.7 20.99,35.7 9.2,10 20.3,17.8 33.3,23.4 13,5.59 27.7,8.19 44.09,7.79 15.6,0 29.5,-3.6 41.7,-10.79 12.2,-7.2 21.69,-16 28.49,-26.4l32.4 24.6c-14,16.39 -29.8,28.49 -47.39,36.29 -17.6,7.8 -36,11.9 -55.2,12.3 -22.79,0.4 -43.39,-3.1 -61.79,-10.5 -18.39,-7.4 -34.09,-17.7 -47.09,-30.89 -13,-13.2 -22.9,-28.9 -29.7,-47.1 -6.79,-18.2 -10.19,-37.89 -10.19,-59.09 0,-21.2 3.4,-40.89 10.19,-59.09 6.8,-18.2 16.7,-33.89 29.7,-47.09 13,-13.2 28.7,-23.5 47.09,-30.9 18.4,-7.4 39,-10.9 61.79,-10.5 19.2,0.4 37.6,4.5 55.2,12.3 17.59,7.8 33.39,19.9 47.39,36.3l-32.4 24.59z"/>
   <path id="15" class="fil6" d="M10052.99 25621.51c-10,0 -22.5,0.5 -37.49,1.5 -15,1 -29.4,3.4 -43.2,7.2 -13.8,3.8 -25.59,9.7 -35.39,17.7 -9.8,8 -14.7,18.99 -14.7,32.99 0,9.2 1.9,17.1 5.7,23.7 3.8,6.6 8.9,12 15.3,16.2 6.4,4.2 13.49,7.19 21.29,8.99 7.8,1.8 15.7,2.7 23.7,2.7 14.4,0 26.9,-2.4 37.49,-7.19 10.6,-4.8 19.5,-11.3 26.7,-19.5 7.2,-8.2 12.5,-17.8 15.9,-28.8 3.4,-11 5.1,-22.69 5.1,-35.09l0 -20.4 -20.4 0zm20.4 -32.39l0 -7.2c0,-48.4 -24,-72.59 -71.99,-72.59 -32.8,0 -61.39,11 -85.79,32.99l-24 -28.19c26.4,-27.2 65.99,-40.8 118.79,-40.8 13.59,0 26.69,2 39.29,6 12.6,4 23.5,10.1 32.7,18.3 9.19,8.2 16.59,18.5 22.19,30.89 5.6,12.4 8.4,27.2 8.4,44.4l0 125.38c0,10.8 0.5,22.1 1.5,33.89 1,11.8 2.1,21.5 3.3,29.1l-38.39 0c-1.2,-6.8 -2.1,-14.2 -2.7,-22.2 -0.6,-8 -0.9,-15.79 -0.9,-23.39l-1.2 0c-11.6,18.79 -25.3,32.29 -41.1,40.49 -15.8,8.2 -35.09,12.3 -57.89,12.3 -12.4,0 -24.4,-1.7 -35.99,-5.1 -11.6,-3.4 -21.9,-8.6 -30.9,-15.6 -9,-7 -16.2,-15.6 -21.6,-25.79 -5.39,-10.2 -8.09,-22.1 -8.09,-35.7 0,-22.8 5.89,-40.69 17.69,-53.69 11.8,-13 26.6,-22.7 44.4,-29.1 17.79,-6.4 36.79,-10.39 56.99,-11.99 20.19,-1.6 38.69,-2.4 55.49,-2.4l19.8 0z"/>
   <path id="16" class="fil6" d="M10349.94 25516.53l-80.99 0 0 165.57c0,10.4 1,18.9 3,25.5 2,6.6 4.8,11.7 8.4,15.3 3.6,3.6 7.9,6.09 12.9,7.49 5,1.4 10.5,2.1 16.5,2.1 6.8,0 13.8,-1 20.99,-3 7.2,-1.99 13.8,-4.59 19.8,-7.79l1.8 36.59c-14.8,6.8 -32.59,10.2 -53.39,10.2 -7.6,0 -15.5,-1 -23.7,-3 -8.2,-2 -15.69,-5.8 -22.49,-11.4 -6.8,-5.6 -12.4,-13.2 -16.8,-22.8 -4.4,-9.59 -6.6,-22.19 -6.6,-37.79l0 -176.97 -59.39 0 0 -36 59.39 0 0 -79.19 39.59 0 0 79.19 80.99 0 0 36z"/>
   <path id="17" class="fil6" d="M10461.52 25372.55c0,8.4 -2.99,15.3 -8.99,20.7 -6,5.39 -12.6,8.09 -19.8,8.09 -7.2,0 -13.8,-2.7 -19.8,-8.09 -6,-5.4 -9,-12.3 -9,-20.7 0,-8.4 3,-15.3 9,-20.7 6,-5.4 12.6,-8.1 19.8,-8.1 7.2,0 13.8,2.7 19.8,8.1 6,5.4 8.99,12.3 8.99,20.7zm-8.99 388.74l-39.6 0 0 -280.76 39.6 0 0 280.76z"/>
   <path id="18" class="fil6" d="M10788.48 25620.91c0,-15.6 -2.5,-30.19 -7.5,-43.79 -5,-13.6 -12.1,-25.4 -21.3,-35.4 -9.2,-10 -20.3,-17.89 -33.29,-23.69 -13,-5.8 -27.7,-8.7 -44.1,-8.7 -16.39,0 -31.09,2.9 -44.09,8.7 -13,5.8 -24,13.69 -33,23.69 -8.99,10 -15.99,21.8 -20.99,35.4 -5,13.6 -7.5,28.19 -7.5,43.79 0,15.6 2.5,30.2 7.5,43.79 5,13.6 12,25.4 20.99,35.4 9,10 20,17.9 33,23.7 13,5.79 27.7,8.69 44.09,8.69 16.4,0 31.1,-2.9 44.1,-8.69 12.99,-5.8 24.09,-13.7 33.29,-23.7 9.2,-10 16.3,-21.8 21.3,-35.4 5,-13.59 7.5,-28.19 7.5,-43.79zm43.19 0c0,21.2 -3.7,40.79 -11.1,58.79 -7.4,18 -17.69,33.6 -30.89,46.8 -13.2,13.19 -28.9,23.49 -47.1,30.89 -18.19,7.4 -38.29,11.1 -60.29,11.1 -21.59,0 -41.49,-3.7 -59.69,-11.1 -18.19,-7.4 -33.89,-17.7 -47.09,-30.89 -13.2,-13.2 -23.5,-28.8 -30.9,-46.8 -7.39,-18 -11.09,-37.59 -11.09,-58.79 0,-21.2 3.7,-40.79 11.09,-58.79 7.4,-18 17.7,-33.6 30.9,-46.79 13.2,-13.2 28.9,-23.5 47.09,-30.9 18.2,-7.4 38.1,-11.1 59.69,-11.1 22,0 42.1,3.7 60.29,11.1 18.2,7.4 33.9,17.7 47.1,30.9 13.2,13.19 23.49,28.79 30.89,46.79 7.4,18 11.1,37.59 11.1,58.79z"/>
   <path id="19" class="fil6" d="M10941.46 25480.53c0.8,7.6 1.3,15.1 1.5,22.5 0.2,7.4 0.3,14.9 0.3,22.5l1.2 0c4.4,-7.6 10,-14.6 16.79,-21 6.8,-6.4 14.4,-11.9 22.8,-16.5 8.4,-4.6 17.3,-8.2 26.7,-10.8 9.4,-2.6 18.69,-3.9 27.89,-3.9 36,0 62.59,9.5 79.79,28.5 17.2,19 25.8,46.09 25.8,81.29l0 178.17 -39.6 0 0 -155.38c0,-31.19 -5.4,-55.09 -16.19,-71.69 -10.8,-16.59 -30.8,-24.89 -60,-24.89 -1.99,0 -7.59,0.8 -16.79,2.4 -9.2,1.6 -18.9,6 -29.1,13.2 -10.2,7.19 -19.3,17.99 -27.29,32.39 -8,14.4 -12,34.4 -12,59.99l0 143.98 -39.6 0 0 -218.97c0,-7.6 -0.3,-17.19 -0.9,-28.79 -0.6,-11.6 -1.3,-22.6 -2.1,-33l40.8 0z"/>
   <path id="20" class="fil6" d="M11563.56 25621.51c-10,0 -22.5,0.5 -37.49,1.5 -15,1 -29.4,3.4 -43.2,7.2 -13.8,3.8 -25.59,9.7 -35.39,17.7 -9.8,8 -14.7,18.99 -14.7,32.99 0,9.2 1.9,17.1 5.7,23.7 3.8,6.6 8.9,12 15.3,16.2 6.4,4.2 13.49,7.19 21.29,8.99 7.8,1.8 15.7,2.7 23.7,2.7 14.4,0 26.9,-2.4 37.49,-7.19 10.6,-4.8 19.5,-11.3 26.7,-19.5 7.2,-8.2 12.5,-17.8 15.9,-28.8 3.4,-11 5.1,-22.69 5.1,-35.09l0 -20.4 -20.4 0zm20.4 -32.39l0 -7.2c0,-48.4 -24,-72.59 -71.99,-72.59 -32.8,0 -61.39,11 -85.79,32.99l-24 -28.19c26.4,-27.2 65.99,-40.8 118.79,-40.8 13.59,0 26.69,2 39.29,6 12.6,4 23.5,10.1 32.7,18.3 9.19,8.2 16.59,18.5 22.19,30.89 5.6,12.4 8.4,27.2 8.4,44.4l0 125.38c0,10.8 0.5,22.1 1.5,33.89 1,11.8 2.1,21.5 3.3,29.1l-38.39 0c-1.2,-6.8 -2.1,-14.2 -2.7,-22.2 -0.6,-8 -0.9,-15.79 -0.9,-23.39l-1.2 0c-11.6,18.79 -25.3,32.29 -41.1,40.49 -15.8,8.2 -35.09,12.3 -57.89,12.3 -12.4,0 -24.4,-1.7 -35.99,-5.1 -11.6,-3.4 -21.9,-8.6 -30.9,-15.6 -9,-7 -16.2,-15.6 -21.6,-25.79 -5.39,-10.2 -8.09,-22.1 -8.09,-35.7 0,-22.8 5.89,-40.69 17.69,-53.69 11.8,-13 26.6,-22.7 44.4,-29.1 17.79,-6.4 36.79,-10.39 56.99,-11.99 20.19,-1.6 38.69,-2.4 55.49,-2.4l19.8 0z"/>
   <path id="21" class="fil6" d="M11753.13 25480.53c0.8,7.6 1.3,15.1 1.5,22.5 0.2,7.4 0.3,14.9 0.3,22.5l1.2 0c4.4,-7.6 10,-14.6 16.79,-21 6.8,-6.4 14.4,-11.9 22.8,-16.5 8.4,-4.6 17.3,-8.2 26.7,-10.8 9.4,-2.6 18.69,-3.9 27.89,-3.9 36,0 62.59,9.5 79.79,28.5 17.2,19 25.8,46.09 25.8,81.29l0 178.17 -39.6 0 0 -155.38c0,-31.19 -5.4,-55.09 -16.19,-71.69 -10.8,-16.59 -30.8,-24.89 -60,-24.89 -1.99,0 -7.59,0.8 -16.79,2.4 -9.2,1.6 -18.9,6 -29.1,13.2 -10.2,7.19 -19.3,17.99 -27.29,32.39 -8,14.4 -12,34.4 -12,59.99l0 143.98 -39.6 0 0 -218.97c0,-7.6 -0.3,-17.19 -0.9,-28.79 -0.6,-11.6 -1.3,-22.6 -2.1,-33l40.8 0z"/>
   <path id="22" class="fil6" d="M12072.88 25620.91c0,15.6 2.5,30.2 7.5,43.79 5,13.6 12.1,25.4 21.3,35.4 9.19,10 20.29,17.9 33.29,23.7 13,5.79 27.7,8.69 44.09,8.69 16,0 30.9,-2.9 44.7,-8.69 13.8,-5.8 25.69,-13.7 35.69,-23.7 10,-10 17.8,-21.8 23.4,-35.4 5.6,-13.59 8.4,-28.19 8.4,-43.79 0,-15.6 -2.8,-30.19 -8.4,-43.79 -5.6,-13.6 -13.4,-25.4 -23.4,-35.4 -10,-10 -21.89,-17.89 -35.69,-23.69 -13.8,-5.8 -28.7,-8.7 -44.7,-8.7 -16.39,0 -31.09,2.9 -44.09,8.7 -13,5.8 -24.1,13.69 -33.29,23.69 -9.2,10 -16.3,21.8 -21.3,35.4 -5,13.6 -7.5,28.19 -7.5,43.79zm256.16 140.38l-39.59 0 0 -46.79 -1.2 0c-6.4,9.6 -14,17.79 -22.8,24.59 -8.8,6.8 -18,12.4 -27.59,16.8 -9.6,4.4 -19.5,7.6 -29.7,9.6 -10.2,2 -19.9,3 -29.1,3 -21.99,0 -42.09,-3.7 -60.29,-11.1 -18.19,-7.4 -33.89,-17.7 -47.09,-30.89 -13.2,-13.2 -23.5,-28.8 -30.9,-46.8 -7.39,-18 -11.09,-37.59 -11.09,-58.79 0,-21.2 3.7,-40.79 11.09,-58.79 7.4,-18 17.7,-33.6 30.9,-46.79 13.2,-13.2 28.9,-23.5 47.09,-30.9 18.2,-7.4 38.3,-11.1 60.29,-11.1 9.2,0 18.9,1 29.1,3 10.2,2 20.1,5.2 29.7,9.6 9.59,4.4 18.79,10 27.59,16.8 8.8,6.8 16.4,15 22.8,24.6l1.2 0 0 -219.57 39.59 0 0 453.53z"/>
   <polygon id="23" class="fil6" points="12639.79,25721.7 12837.77,25721.7 12837.77,25761.29 12596.6,25761.29 12596.6,25336.55 12639.79,25336.55 "/>
   <path id="24" class="fil6" d="M13100.53 25599.31c0,-26.79 -8,-48.49 -24,-65.09 -15.99,-16.59 -38.39,-24.89 -67.19,-24.89 -12.79,0 -25.19,2.5 -37.19,7.5 -12,5 -22.5,11.69 -31.5,20.09 -8.99,8.4 -16.19,18 -21.59,28.8 -5.4,10.8 -8.1,22 -8.1,33.59l189.57 0zm-190.77 32.4c1.2,14 4.6,27.2 10.2,39.59 5.6,12.4 13,23.1 22.19,32.1 9.2,9 19.8,16.1 31.8,21.3 12,5.19 25,7.79 38.99,7.79 21.2,0 39.5,-4.89 54.9,-14.69 15.39,-9.8 27.09,-21.1 35.09,-33.9l30.6 25.2c-16.8,21.19 -35.3,36.39 -55.5,45.59 -20.19,9.2 -41.89,13.8 -65.09,13.8 -20.79,0 -40.09,-3.7 -57.89,-11.1 -17.79,-7.4 -33.09,-17.7 -45.89,-30.89 -12.8,-13.2 -22.9,-28.8 -30.3,-46.8 -7.39,-18 -11.09,-37.59 -11.09,-58.79 0,-21.2 3.6,-40.79 10.79,-58.79 7.2,-18 17.2,-33.6 30,-46.79 12.8,-13.2 27.8,-23.5 44.99,-30.9 17.2,-7.4 35.8,-11.1 55.79,-11.1 21.2,0 40.2,3.8 57,11.4 16.79,7.6 30.89,17.7 42.29,30.3 11.4,12.6 20.1,27.39 26.1,44.39 5.99,17 8.99,35.1 8.99,54.29l0 18 -233.96 0z"/>
   <path id="25" class="fil6" d="M13375.29 25621.51c-10,0 -22.5,0.5 -37.49,1.5 -15,1 -29.4,3.4 -43.2,7.2 -13.8,3.8 -25.59,9.7 -35.39,17.7 -9.8,8 -14.7,18.99 -14.7,32.99 0,9.2 1.9,17.1 5.7,23.7 3.8,6.6 8.9,12 15.3,16.2 6.4,4.2 13.49,7.19 21.29,8.99 7.8,1.8 15.7,2.7 23.7,2.7 14.4,0 26.9,-2.4 37.49,-7.19 10.6,-4.8 19.5,-11.3 26.7,-19.5 7.2,-8.2 12.5,-17.8 15.9,-28.8 3.4,-11 5.1,-22.69 5.1,-35.09l0 -20.4 -20.4 0zm20.4 -32.39l0 -7.2c0,-48.4 -24,-72.59 -71.99,-72.59 -32.8,0 -61.39,11 -85.79,32.99l-24 -28.19c26.4,-27.2 65.99,-40.8 118.79,-40.8 13.59,0 26.69,2 39.29,6 12.6,4 23.5,10.1 32.7,18.3 9.19,8.2 16.59,18.5 22.19,30.89 5.6,12.4 8.4,27.2 8.4,44.4l0 125.38c0,10.8 0.5,22.1 1.5,33.89 1,11.8 2.1,21.5 3.3,29.1l-38.39 0c-1.2,-6.8 -2.1,-14.2 -2.7,-22.2 -0.6,-8 -0.9,-15.79 -0.9,-23.39l-1.2 0c-11.6,18.79 -25.3,32.29 -41.1,40.49 -15.8,8.2 -35.09,12.3 -57.89,12.3 -12.4,0 -24.4,-1.7 -35.99,-5.1 -11.6,-3.4 -21.9,-8.6 -30.9,-15.6 -9,-7 -16.2,-15.6 -21.6,-25.79 -5.39,-10.2 -8.09,-22.1 -8.09,-35.7 0,-22.8 5.89,-40.69 17.69,-53.69 11.8,-13 26.6,-22.7 44.4,-29.1 17.79,-6.4 36.79,-10.39 56.99,-11.99 20.19,-1.6 38.69,-2.4 55.49,-2.4l19.8 0z"/>
   <path id="26" class="fil6" d="M13531.26 25568.12c0,-12.4 -0.3,-25 -0.9,-37.8 -0.6,-12.79 -1.1,-29.39 -1.5,-49.79l39 0 0 52.19 1.2 0c2.8,-7.59 6.8,-14.89 12,-21.89 5.19,-7 11.49,-13.3 18.89,-18.9 7.4,-5.6 16,-10.1 25.8,-13.5 9.8,-3.4 20.9,-5.1 33.29,-5.1 11.2,0 21,1.2 29.4,3.6l-7.8 39c-5.2,-2 -12.8,-3 -22.8,-3 -15.19,0 -28.19,2.9 -38.99,8.7 -10.8,5.8 -19.8,13.19 -27,22.19 -7.2,9 -12.49,18.7 -15.89,29.1 -3.4,10.4 -5.1,20.4 -5.1,29.99l0 158.38 -39.6 0 0 -193.17z"/>
   <path id="27" class="fil6" d="M13774.83 25480.53c0.8,7.6 1.3,15.1 1.5,22.5 0.2,7.4 0.3,14.9 0.3,22.5l1.2 0c4.4,-7.6 10,-14.6 16.79,-21 6.8,-6.4 14.4,-11.9 22.8,-16.5 8.4,-4.6 17.3,-8.2 26.7,-10.8 9.4,-2.6 18.69,-3.9 27.89,-3.9 36,0 62.59,9.5 79.79,28.5 17.2,19 25.8,46.09 25.8,81.29l0 178.17 -39.6 0 0 -155.38c0,-31.19 -5.4,-55.09 -16.19,-71.69 -10.8,-16.59 -30.8,-24.89 -60,-24.89 -1.99,0 -7.59,0.8 -16.79,2.4 -9.2,1.6 -18.9,6 -29.1,13.2 -10.2,7.19 -19.3,17.99 -27.29,32.39 -8,14.4 -12,34.4 -12,59.99l0 143.98 -39.6 0 0 -218.97c0,-7.6 -0.3,-17.19 -0.9,-28.79 -0.6,-11.6 -1.3,-22.6 -2.1,-33l40.8 0z"/>
   <path id="28" class="fil6" d="M14128.17 25372.55c0,8.4 -2.99,15.3 -8.99,20.7 -6,5.39 -12.6,8.09 -19.8,8.09 -7.2,0 -13.8,-2.7 -19.8,-8.09 -6,-5.4 -9,-12.3 -9,-20.7 0,-8.4 3,-15.3 9,-20.7 6,-5.4 12.6,-8.1 19.8,-8.1 7.2,0 13.8,2.7 19.8,8.1 6,5.4 8.99,12.3 8.99,20.7zm-8.99 388.74l-39.6 0 0 -280.76 39.6 0 0 280.76z"/>
   <path id="29" class="fil6" d="M14252.36 25480.53c0.8,7.6 1.3,15.1 1.5,22.5 0.2,7.4 0.3,14.9 0.3,22.5l1.2 0c4.4,-7.6 10,-14.6 16.79,-21 6.8,-6.4 14.4,-11.9 22.8,-16.5 8.4,-4.6 17.3,-8.2 26.7,-10.8 9.4,-2.6 18.69,-3.9 27.89,-3.9 36,0 62.59,9.5 79.79,28.5 17.2,19 25.8,46.09 25.8,81.29l0 178.17 -39.6 0 0 -155.38c0,-31.19 -5.4,-55.09 -16.19,-71.69 -10.8,-16.59 -30.8,-24.89 -60,-24.89 -1.99,0 -7.59,0.8 -16.79,2.4 -9.2,1.6 -18.9,6 -29.1,13.2 -10.2,7.19 -19.3,17.99 -27.29,32.39 -8,14.4 -12,34.4 -12,59.99l0 143.98 -39.6 0 0 -218.97c0,-7.6 -0.3,-17.19 -0.9,-28.79 -0.6,-11.6 -1.3,-22.6 -2.1,-33l40.8 0z"/>
   <path id="30" class="fil6" d="M14576.91 25617.31c0,14.8 2.7,28.7 8.1,41.7 5.4,12.99 12.8,24.39 22.19,34.19 9.4,9.8 20.4,17.6 33,23.4 12.6,5.8 26.3,8.7 41.09,8.7 14.4,0 28.1,-2.6 41.1,-7.8 13,-5.2 24.49,-12.5 34.49,-21.9 10,-9.4 17.7,-20.7 23.1,-33.9 5.4,-13.19 7.9,-27.99 7.5,-44.39 0,-14.8 -2.4,-28.69 -7.2,-41.69 -4.8,-13 -11.8,-24.4 -21,-34.2 -9.2,-9.8 -20.4,-17.59 -33.59,-23.39 -13.2,-5.8 -28,-8.7 -44.4,-8.7 -14.79,0 -28.49,2.9 -41.09,8.7 -12.6,5.8 -23.6,13.59 -33,23.39 -9.39,9.8 -16.79,21.2 -22.19,34.2 -5.4,13 -8.1,26.89 -8.1,41.69zm-7.2 200.37c11.6,15.6 26.7,28.1 45.29,37.5 18.6,9.39 39.3,14.09 62.09,14.09 20,0 37,-2.9 51,-8.69 13.99,-5.8 25.29,-13.7 33.89,-23.7 8.6,-10 14.8,-21.7 18.6,-35.1 3.8,-13.39 5.7,-27.69 5.7,-42.89l0 -50.39 -1.2 0c-12.8,19.2 -28.4,32.79 -46.8,40.79 -18.39,8 -37.79,12 -58.19,12 -20.39,0 -39.49,-3.6 -57.29,-10.8 -17.8,-7.2 -33.29,-17.1 -46.49,-29.69 -13.2,-12.6 -23.6,-27.7 -31.2,-45.3 -7.59,-17.59 -11.39,-36.59 -11.39,-56.99 0,-20.4 3.6,-39.39 10.79,-56.99 7.2,-17.6 17.1,-33 29.7,-46.19 12.6,-13.2 27.6,-23.5 44.99,-30.9 17.4,-7.4 36.5,-11.1 57.29,-11.1 8.4,0 17.3,0.8 26.7,2.4 9.4,1.6 18.8,4.4 28.2,8.4 9.39,4 18.69,9.5 27.89,16.5 9.2,7 17.8,15.9 25.8,26.7l1.2 0 0 -46.8 39.59 0 0 278.36c0,15.2 -1.9,31.4 -5.7,48.59 -3.8,17.2 -11.2,33 -22.19,47.4 -11,14.39 -26.3,26.39 -45.9,35.99 -19.59,9.6 -45.19,14.4 -76.79,14.4 -27.99,0 -52.99,-4.6 -74.98,-13.8 -22,-9.2 -42,-23.4 -60,-42.59l29.4 -31.2z"/>
   <path id="31" class="fil6" d="M6822.47 26241.22l-66.59 0 0 244.76 -39.59 0 0 -244.76 -59.39 0 0 -36 59.39 0 0 -76.79c0,-37.19 8.6,-63.69 25.8,-79.48 17.19,-15.8 39.99,-23.7 68.39,-23.7 5.59,0 11.29,0.4 17.09,1.2 5.8,0.8 11.5,1.8 17.1,3l-7.2 35.99c-4.8,-1.2 -9.8,-2.2 -15,-3 -5.2,-0.8 -10.39,-1.2 -15.59,-1.2 -10.8,0 -19.6,1.8 -26.4,5.4 -6.8,3.6 -12,8.7 -15.6,15.3 -3.6,6.6 -6,14.3 -7.2,23.1 -1.2,8.8 -1.8,18.19 -1.8,28.19l0 71.99 66.59 0 0 36z"/>
   <path id="32" class="fil6" d="M7109.83 26345.6c0,-15.6 -2.5,-30.19 -7.5,-43.79 -5,-13.6 -12.1,-25.4 -21.3,-35.4 -9.2,-10 -20.3,-17.89 -33.29,-23.69 -13,-5.8 -27.7,-8.7 -44.1,-8.7 -16.39,0 -31.09,2.9 -44.09,8.7 -13,5.8 -24,13.69 -33,23.69 -8.99,10 -15.99,21.8 -20.99,35.4 -5,13.6 -7.5,28.19 -7.5,43.79 0,15.6 2.5,30.2 7.5,43.79 5,13.6 12,25.4 20.99,35.4 9,10 20,17.9 33,23.7 13,5.79 27.7,8.69 44.09,8.69 16.4,0 31.1,-2.9 44.1,-8.69 12.99,-5.8 24.09,-13.7 33.29,-23.7 9.2,-10 16.3,-21.8 21.3,-35.4 5,-13.59 7.5,-28.19 7.5,-43.79zm43.19 0c0,21.2 -3.7,40.79 -11.1,58.79 -7.4,18 -17.69,33.6 -30.89,46.8 -13.2,13.19 -28.9,23.49 -47.1,30.89 -18.19,7.4 -38.29,11.1 -60.29,11.1 -21.59,0 -41.49,-3.7 -59.69,-11.1 -18.19,-7.4 -33.89,-17.7 -47.09,-30.89 -13.2,-13.2 -23.5,-28.8 -30.9,-46.8 -7.39,-18 -11.09,-37.59 -11.09,-58.79 0,-21.2 3.7,-40.79 11.09,-58.79 7.4,-18 17.7,-33.6 30.9,-46.79 13.2,-13.2 28.9,-23.5 47.09,-30.9 18.2,-7.4 38.1,-11.1 59.69,-11.1 22,0 42.1,3.7 60.29,11.1 18.2,7.4 33.9,17.7 47.1,30.9 13.2,13.19 23.49,28.79 30.89,46.79 7.4,18 11.1,37.59 11.1,58.79z"/>
   <path id="33" class="fil6" d="M7229.21 26292.81c0,-12.4 -0.3,-25 -0.9,-37.8 -0.6,-12.79 -1.1,-29.39 -1.5,-49.79l39 0 0 52.19 1.2 0c2.8,-7.59 6.8,-14.89 12,-21.89 5.19,-7 11.49,-13.3 18.89,-18.9 7.4,-5.6 16,-10.1 25.8,-13.5 9.8,-3.4 20.9,-5.1 33.29,-5.1 11.2,0 21,1.2 29.4,3.6l-7.8 39c-5.2,-2 -12.8,-3 -22.8,-3 -15.19,0 -28.19,2.9 -38.99,8.7 -10.8,5.8 -19.8,13.19 -27,22.19 -7.2,9 -12.49,18.7 -15.89,29.1 -3.4,10.4 -5.1,20.4 -5.1,29.99l0 158.38 -39.6 0 0 -193.17z"/>
   <path id="34" class="fil6" d="M7806.32 26131.43c-18.8,-27.59 -46.19,-41.39 -82.19,-41.39 -11.19,0 -22.19,1.5 -32.99,4.5 -10.8,3 -20.5,7.6 -29.1,13.8 -8.6,6.2 -15.49,14.19 -20.69,23.99 -5.2,9.8 -7.8,21.3 -7.8,34.5 0,19.19 5.4,34.09 16.19,44.69 10.8,10.6 24.2,19.3 40.2,26.1 16,6.8 33.49,12.9 52.49,18.29 19,5.4 36.5,12.6 52.49,21.6 16,9 29.4,20.9 40.2,35.7 10.8,14.79 16.19,34.99 16.19,60.59 0,19.19 -4.09,36.49 -12.29,51.89 -8.2,15.4 -19,28.29 -32.4,38.69 -13.4,10.4 -28.39,18.4 -44.99,24 -16.6,5.6 -33.3,8.4 -50.09,8.4 -26,0 -50.7,-4.9 -74.09,-14.7 -23.4,-9.8 -43.3,-25.9 -59.69,-48.29l38.99 -28.2c9.2,15.6 22,28.1 38.39,37.5 16.4,9.4 35.8,14.09 58.2,14.09 10.79,0 21.59,-1.7 32.39,-5.09 10.8,-3.4 20.5,-8.4 29.1,-15 8.59,-6.6 15.69,-14.7 21.29,-24.3 5.6,-9.6 8.4,-20.6 8.4,-32.99 0,-14.8 -3.1,-27.1 -9.3,-36.9 -6.2,-9.8 -14.39,-18 -24.59,-24.59 -10.2,-6.6 -21.8,-12.1 -34.8,-16.5 -13,-4.4 -26.39,-8.8 -40.19,-13.2 -13.8,-4.4 -27.2,-9.4 -40.2,-15 -12.99,-5.6 -24.59,-12.7 -34.79,-21.29 -10.2,-8.6 -18.4,-19.4 -24.6,-32.4 -6.2,-13 -9.3,-29.3 -9.3,-48.89 0,-20.4 3.9,-38.2 11.7,-53.39 7.8,-15.2 18.2,-27.8 31.2,-37.8 13,-10 27.69,-17.4 44.09,-22.2 16.4,-4.8 33.2,-7.19 50.39,-7.19 24,0 45.8,3.79 65.39,11.39 19.6,7.6 37.8,21 54.6,40.2l-37.8 29.39z"/>
   <path id="35" class="fil6" d="M8165.07 26345.6c0,-15.6 -2.5,-30.19 -7.5,-43.79 -5,-13.6 -12.1,-25.4 -21.3,-35.4 -9.2,-10 -20.3,-17.89 -33.29,-23.69 -13,-5.8 -27.7,-8.7 -44.1,-8.7 -16.39,0 -31.09,2.9 -44.09,8.7 -13,5.8 -24,13.69 -33,23.69 -8.99,10 -15.99,21.8 -20.99,35.4 -5,13.6 -7.5,28.19 -7.5,43.79 0,15.6 2.5,30.2 7.5,43.79 5,13.6 12,25.4 20.99,35.4 9,10 20,17.9 33,23.7 13,5.79 27.7,8.69 44.09,8.69 16.4,0 31.1,-2.9 44.1,-8.69 12.99,-5.8 24.09,-13.7 33.29,-23.7 9.2,-10 16.3,-21.8 21.3,-35.4 5,-13.59 7.5,-28.19 7.5,-43.79zm43.19 0c0,21.2 -3.7,40.79 -11.1,58.79 -7.4,18 -17.69,33.6 -30.89,46.8 -13.2,13.19 -28.9,23.49 -47.1,30.89 -18.19,7.4 -38.29,11.1 -60.29,11.1 -21.59,0 -41.49,-3.7 -59.69,-11.1 -18.19,-7.4 -33.89,-17.7 -47.09,-30.89 -13.2,-13.2 -23.5,-28.8 -30.9,-46.8 -7.39,-18 -11.09,-37.59 -11.09,-58.79 0,-21.2 3.7,-40.79 11.09,-58.79 7.4,-18 17.7,-33.6 30.9,-46.79 13.2,-13.2 28.9,-23.5 47.09,-30.9 18.2,-7.4 38.1,-11.1 59.69,-11.1 22,0 42.1,3.7 60.29,11.1 18.2,7.4 33.9,17.7 47.1,30.9 13.2,13.19 23.49,28.79 30.89,46.79 7.4,18 11.1,37.59 11.1,58.79z"/>
   <path id="36" class="fil6" d="M8484.82 26271.21c-6.8,-10.4 -16.29,-19.19 -28.49,-26.39 -12.2,-7.2 -26.1,-10.8 -41.7,-10.8 -16.39,-0.4 -31.09,2.2 -44.09,7.8 -13,5.6 -24.1,13.39 -33.3,23.39 -9.19,10 -16.19,21.9 -20.99,35.7 -4.8,13.8 -7.2,28.69 -7.2,44.69 0,16 2.4,30.9 7.2,44.69 4.8,13.8 11.8,25.7 20.99,35.7 9.2,10 20.3,17.8 33.3,23.4 13,5.59 27.7,8.19 44.09,7.79 15.6,0 29.5,-3.6 41.7,-10.79 12.2,-7.2 21.69,-16 28.49,-26.4l32.4 24.6c-14,16.39 -29.8,28.49 -47.39,36.29 -17.6,7.8 -36,11.9 -55.2,12.3 -22.79,0.4 -43.39,-3.1 -61.79,-10.5 -18.39,-7.4 -34.09,-17.7 -47.09,-30.89 -13,-13.2 -22.9,-28.9 -29.7,-47.1 -6.79,-18.2 -10.19,-37.89 -10.19,-59.09 0,-21.2 3.4,-40.89 10.19,-59.09 6.8,-18.2 16.7,-33.89 29.7,-47.09 13,-13.2 28.7,-23.5 47.09,-30.9 18.4,-7.4 39,-10.9 61.79,-10.5 19.2,0.4 37.6,4.5 55.2,12.3 17.59,7.8 33.39,19.9 47.39,36.3l-32.4 24.59z"/>
   <path id="37" class="fil6" d="M8627 26097.24c0,8.4 -2.99,15.3 -8.99,20.7 -6,5.39 -12.6,8.09 -19.8,8.09 -7.2,0 -13.8,-2.7 -19.8,-8.09 -6,-5.4 -9,-12.3 -9,-20.7 0,-8.4 3,-15.3 9,-20.7 6,-5.4 12.6,-8.1 19.8,-8.1 7.2,0 13.8,2.7 19.8,8.1 6,5.4 8.99,12.3 8.99,20.7zm-8.99 388.74l-39.6 0 0 -280.76 39.6 0 0 280.76z"/>
   <path id="38" class="fil6" d="M8931.76 26324c0,-26.79 -8,-48.49 -24,-65.09 -15.99,-16.59 -38.39,-24.89 -67.19,-24.89 -12.79,0 -25.19,2.5 -37.19,7.5 -12,5 -22.5,11.69 -31.5,20.09 -8.99,8.4 -16.19,18 -21.59,28.8 -5.4,10.8 -8.1,22 -8.1,33.59l189.57 0zm-190.77 32.4c1.2,14 4.6,27.2 10.2,39.59 5.6,12.4 13,23.1 22.19,32.1 9.2,9 19.8,16.1 31.8,21.3 12,5.19 25,7.79 38.99,7.79 21.2,0 39.5,-4.89 54.9,-14.69 15.39,-9.8 27.09,-21.1 35.09,-33.9l30.6 25.2c-16.8,21.19 -35.3,36.39 -55.5,45.59 -20.19,9.2 -41.89,13.8 -65.09,13.8 -20.79,0 -40.09,-3.7 -57.89,-11.1 -17.79,-7.4 -33.09,-17.7 -45.89,-30.89 -12.8,-13.2 -22.9,-28.8 -30.3,-46.8 -7.39,-18 -11.09,-37.59 -11.09,-58.79 0,-21.2 3.6,-40.79 10.79,-58.79 7.2,-18 17.2,-33.6 30,-46.79 12.8,-13.2 27.8,-23.5 44.99,-30.9 17.2,-7.4 35.8,-11.1 55.79,-11.1 21.2,0 40.2,3.8 57,11.4 16.79,7.6 30.89,17.7 42.29,30.3 11.4,12.6 20.1,27.39 26.1,44.39 5.99,17 8.99,35.1 8.99,54.29l0 18 -233.96 0z"/>
   <path id="39" class="fil6" d="M9192.12 26241.22l-80.99 0 0 165.57c0,10.4 1,18.9 3,25.5 2,6.6 4.8,11.7 8.4,15.3 3.6,3.6 7.9,6.09 12.9,7.49 5,1.4 10.5,2.1 16.5,2.1 6.8,0 13.8,-1 20.99,-3 7.2,-1.99 13.8,-4.59 19.8,-7.79l1.8 36.59c-14.8,6.8 -32.59,10.2 -53.39,10.2 -7.6,0 -15.5,-1 -23.7,-3 -8.2,-2 -15.69,-5.8 -22.49,-11.4 -6.8,-5.6 -12.4,-13.2 -16.8,-22.8 -4.4,-9.59 -6.6,-22.19 -6.6,-37.79l0 -176.97 -59.39 0 0 -36 59.39 0 0 -79.19 39.59 0 0 79.19 80.99 0 0 36z"/>
   <path id="40" class="fil6" d="M9350.5 26437.39l85.78 -232.17 48 0 -140.38 353.95c-8.4,21.6 -19.1,38.79 -32.1,51.59 -12.99,12.8 -31.69,19.2 -56.09,19.2 -6,0 -12.1,-0.2 -18.3,-0.6 -6.19,-0.4 -12.29,-1.6 -18.29,-3.6l4.2 -38.4c8.4,4.4 18.39,6.6 29.99,6.6 14,0 25,-4.4 33,-13.19 8,-8.8 15,-21.2 20.99,-37.2l20.4 -53.99 -115.18 -284.36 49.79 0 88.19 232.17z"/>
   <polygon id="41" class="fil6" points="9759.63,26446.39 9987,26446.39 9987,26485.98 9716.44,26485.98 9716.44,26061.24 9979.8,26061.24 9979.8,26100.84 9759.63,26100.84 9759.63,26245.42 9965.4,26245.42 9965.4,26285.01 9759.63,26285.01 "/>
   <path id="42" class="fil6" d="M10095.59 26205.22c0.8,7.6 1.3,15.1 1.5,22.5 0.2,7.4 0.3,14.9 0.3,22.5l1.2 0c4.4,-7.6 10,-14.6 16.79,-21 6.8,-6.4 14.4,-11.9 22.8,-16.5 8.4,-4.6 17.3,-8.2 26.7,-10.8 9.4,-2.6 18.69,-3.9 27.89,-3.9 36,0 62.59,9.5 79.79,28.5 17.2,19 25.8,46.09 25.8,81.29l0 178.17 -39.6 0 0 -155.38c0,-31.19 -5.4,-55.09 -16.19,-71.69 -10.8,-16.59 -30.8,-24.89 -60,-24.89 -1.99,0 -7.59,0.8 -16.79,2.4 -9.2,1.6 -18.9,6 -29.1,13.2 -10.2,7.19 -19.3,17.99 -27.29,32.39 -8,14.4 -12,34.4 -12,59.99l0 143.98 -39.6 0 0 -218.97c0,-7.6 -0.3,-17.19 -0.9,-28.79 -0.6,-11.6 -1.3,-22.6 -2.1,-33l40.8 0z"/>
   <path id="43" class="fil6" d="M10595.91 26271.21c-6.8,-10.4 -16.29,-19.19 -28.49,-26.39 -12.2,-7.2 -26.1,-10.8 -41.7,-10.8 -16.39,-0.4 -31.09,2.2 -44.09,7.8 -13,5.6 -24.1,13.39 -33.3,23.39 -9.19,10 -16.19,21.9 -20.99,35.7 -4.8,13.8 -7.2,28.69 -7.2,44.69 0,16 2.4,30.9 7.2,44.69 4.8,13.8 11.8,25.7 20.99,35.7 9.2,10 20.3,17.8 33.3,23.4 13,5.59 27.7,8.19 44.09,7.79 15.6,0 29.5,-3.6 41.7,-10.79 12.2,-7.2 21.69,-16 28.49,-26.4l32.4 24.6c-14,16.39 -29.8,28.49 -47.39,36.29 -17.6,7.8 -36,11.9 -55.2,12.3 -22.79,0.4 -43.39,-3.1 -61.79,-10.5 -18.39,-7.4 -34.09,-17.7 -47.09,-30.89 -13,-13.2 -22.9,-28.9 -29.7,-47.1 -6.79,-18.2 -10.19,-37.89 -10.19,-59.09 0,-21.2 3.4,-40.89 10.19,-59.09 6.8,-18.2 16.7,-33.89 29.7,-47.09 13,-13.2 28.7,-23.5 47.09,-30.9 18.4,-7.4 39,-10.9 61.79,-10.5 19.2,0.4 37.6,4.5 55.2,12.3 17.59,7.8 33.39,19.9 47.39,36.3l-32.4 24.59z"/>
   <path id="44" class="fil6" d="M10680.5 26032.45l39.6 0 0 217.77 1.2 0c4.4,-7.6 10,-14.6 16.79,-21 6.8,-6.4 14.4,-11.9 22.8,-16.5 8.4,-4.6 17.3,-8.2 26.7,-10.8 9.4,-2.6 18.69,-3.9 27.89,-3.9 36,0 62.59,9.5 79.79,28.5 17.2,19 25.8,46.09 25.8,81.29l0 178.17 -39.6 0 0 -155.38c0,-31.19 -5.4,-55.09 -16.19,-71.69 -10.8,-16.59 -30.8,-24.89 -60,-24.89 -1.99,0 -7.59,0.8 -16.79,2.4 -9.2,1.6 -18.9,6 -29.1,13.2 -10.2,7.19 -19.3,17.99 -27.29,32.39 -8,14.4 -12,34.4 -12,59.99l0 143.98 -39.6 0 0 -453.53z"/>
   <path id="45" class="fil6" d="M11173.63 26346.2c-10,0 -22.5,0.5 -37.49,1.5 -15,1 -29.4,3.4 -43.2,7.2 -13.8,3.8 -25.59,9.7 -35.39,17.7 -9.8,8 -14.7,18.99 -14.7,32.99 0,9.2 1.9,17.1 5.7,23.7 3.8,6.6 8.9,12 15.3,16.2 6.4,4.2 13.49,7.19 21.29,8.99 7.8,1.8 15.7,2.7 23.7,2.7 14.4,0 26.9,-2.4 37.49,-7.19 10.6,-4.8 19.5,-11.3 26.7,-19.5 7.2,-8.2 12.5,-17.8 15.9,-28.8 3.4,-11 5.1,-22.69 5.1,-35.09l0 -20.4 -20.4 0zm20.4 -32.39l0 -7.2c0,-48.4 -24,-72.59 -71.99,-72.59 -32.8,0 -61.39,11 -85.79,32.99l-24 -28.19c26.4,-27.2 65.99,-40.8 118.79,-40.8 13.59,0 26.69,2 39.29,6 12.6,4 23.5,10.1 32.7,18.3 9.19,8.2 16.59,18.5 22.19,30.89 5.6,12.4 8.4,27.2 8.4,44.4l0 125.38c0,10.8 0.5,22.1 1.5,33.89 1,11.8 2.1,21.5 3.3,29.1l-38.39 0c-1.2,-6.8 -2.1,-14.2 -2.7,-22.2 -0.6,-8 -0.9,-15.79 -0.9,-23.39l-1.2 0c-11.6,18.79 -25.3,32.29 -41.1,40.49 -15.8,8.2 -35.09,12.3 -57.89,12.3 -12.4,0 -24.4,-1.7 -35.99,-5.1 -11.6,-3.4 -21.9,-8.6 -30.9,-15.6 -9,-7 -16.2,-15.6 -21.6,-25.79 -5.39,-10.2 -8.09,-22.1 -8.09,-35.7 0,-22.8 5.89,-40.69 17.69,-53.69 11.8,-13 26.6,-22.7 44.4,-29.1 17.79,-6.4 36.79,-10.39 56.99,-11.99 20.19,-1.6 38.69,-2.4 55.49,-2.4l19.8 0z"/>
   <path id="46" class="fil6" d="M11363.2 26205.22c0.8,7.6 1.3,15.1 1.5,22.5 0.2,7.4 0.3,14.9 0.3,22.5l1.2 0c4.4,-7.6 10,-14.6 16.79,-21 6.8,-6.4 14.4,-11.9 22.8,-16.5 8.4,-4.6 17.3,-8.2 26.7,-10.8 9.4,-2.6 18.69,-3.9 27.89,-3.9 36,0 62.59,9.5 79.79,28.5 17.2,19 25.8,46.09 25.8,81.29l0 178.17 -39.6 0 0 -155.38c0,-31.19 -5.4,-55.09 -16.19,-71.69 -10.8,-16.59 -30.8,-24.89 -60,-24.89 -1.99,0 -7.59,0.8 -16.79,2.4 -9.2,1.6 -18.9,6 -29.1,13.2 -10.2,7.19 -19.3,17.99 -27.29,32.39 -8,14.4 -12,34.4 -12,59.99l0 143.98 -39.6 0 0 -218.97c0,-7.6 -0.3,-17.19 -0.9,-28.79 -0.6,-11.6 -1.3,-22.6 -2.1,-33l40.8 0z"/>
   <path id="47" class="fil6" d="M11863.52 26271.21c-6.8,-10.4 -16.29,-19.19 -28.49,-26.39 -12.2,-7.2 -26.1,-10.8 -41.7,-10.8 -16.39,-0.4 -31.09,2.2 -44.09,7.8 -13,5.6 -24.1,13.39 -33.3,23.39 -9.19,10 -16.19,21.9 -20.99,35.7 -4.8,13.8 -7.2,28.69 -7.2,44.69 0,16 2.4,30.9 7.2,44.69 4.8,13.8 11.8,25.7 20.99,35.7 9.2,10 20.3,17.8 33.3,23.4 13,5.59 27.7,8.19 44.09,7.79 15.6,0 29.5,-3.6 41.7,-10.79 12.2,-7.2 21.69,-16 28.49,-26.4l32.4 24.6c-14,16.39 -29.8,28.49 -47.39,36.29 -17.6,7.8 -36,11.9 -55.2,12.3 -22.79,0.4 -43.39,-3.1 -61.79,-10.5 -18.39,-7.4 -34.09,-17.7 -47.09,-30.89 -13,-13.2 -22.9,-28.9 -29.7,-47.1 -6.79,-18.2 -10.19,-37.89 -10.19,-59.09 0,-21.2 3.4,-40.89 10.19,-59.09 6.8,-18.2 16.7,-33.89 29.7,-47.09 13,-13.2 28.7,-23.5 47.09,-30.9 18.4,-7.4 39,-10.9 61.79,-10.5 19.2,0.4 37.6,4.5 55.2,12.3 17.59,7.8 33.39,19.9 47.39,36.3l-32.4 24.59z"/>
   <path id="48" class="fil6" d="M12166.48 26324c0,-26.79 -8,-48.49 -24,-65.09 -15.99,-16.59 -38.39,-24.89 -67.19,-24.89 -12.79,0 -25.19,2.5 -37.19,7.5 -12,5 -22.5,11.69 -31.5,20.09 -8.99,8.4 -16.19,18 -21.59,28.8 -5.4,10.8 -8.1,22 -8.1,33.59l189.57 0zm-190.77 32.4c1.2,14 4.6,27.2 10.2,39.59 5.6,12.4 13,23.1 22.19,32.1 9.2,9 19.8,16.1 31.8,21.3 12,5.19 25,7.79 38.99,7.79 21.2,0 39.5,-4.89 54.9,-14.69 15.39,-9.8 27.09,-21.1 35.09,-33.9l30.6 25.2c-16.8,21.19 -35.3,36.39 -55.5,45.59 -20.19,9.2 -41.89,13.8 -65.09,13.8 -20.79,0 -40.09,-3.7 -57.89,-11.1 -17.79,-7.4 -33.09,-17.7 -45.89,-30.89 -12.8,-13.2 -22.9,-28.8 -30.3,-46.8 -7.39,-18 -11.09,-37.59 -11.09,-58.79 0,-21.2 3.6,-40.79 10.79,-58.79 7.2,-18 17.2,-33.6 30,-46.79 12.8,-13.2 27.8,-23.5 44.99,-30.9 17.2,-7.4 35.8,-11.1 55.79,-11.1 21.2,0 40.2,3.8 57,11.4 16.79,7.6 30.89,17.7 42.29,30.3 11.4,12.6 20.1,27.39 26.1,44.39 5.99,17 8.99,35.1 8.99,54.29l0 18 -233.96 0z"/>
   <path id="49" class="fil6" d="M12281.66 26267.61c0,-10.4 -0.3,-20.79 -0.9,-31.19 -0.6,-10.4 -1.3,-20.8 -2.1,-31.2l42.6 0 0 42.6 1.2 0c9.6,-16.4 22.89,-28.8 39.89,-37.2 17,-8.4 33.9,-12.6 50.69,-12.6 7.6,0 15.7,0.8 24.3,2.4 8.6,1.6 16.9,4.5 24.9,8.7 8,4.2 15.49,10.1 22.49,17.7 7,7.6 12.9,17.4 17.7,29.39 8,-17.99 20.7,-32.19 38.09,-42.59 17.4,-10.4 35.5,-15.6 54.3,-15.6 35.99,0 62.59,9.5 79.78,28.5 17.2,19 25.8,46.09 25.8,81.29l0 178.17 -39.59 0 0 -163.78c0,-28.39 -5,-50.19 -15,-65.39 -10,-15.19 -28.6,-22.79 -55.79,-22.79 -14.8,0 -27.2,2.9 -37.2,8.7 -10,5.8 -18.09,13.49 -24.29,23.09 -6.2,9.6 -10.7,20.5 -13.5,32.7 -2.8,12.2 -4.2,24.89 -4.2,38.09l0 149.38 -39.59 0 0 -163.78c0,-28.39 -5,-50.19 -15,-65.39 -10,-15.19 -28.6,-22.79 -55.79,-22.79 -2.4,0 -7.9,0.8 -16.5,2.4 -8.6,1.6 -17.5,6 -26.7,13.2 -9.2,7.19 -17.5,17.99 -24.89,32.39 -7.4,14.4 -11.1,34.4 -11.1,59.99l0 143.98 -39.6 0 0 -218.37z"/>
   <path id="50" class="fil6" d="M13011.15 26324c0,-26.79 -8,-48.49 -24,-65.09 -15.99,-16.59 -38.39,-24.89 -67.19,-24.89 -12.79,0 -25.19,2.5 -37.19,7.5 -12,5 -22.5,11.69 -31.5,20.09 -8.99,8.4 -16.19,18 -21.59,28.8 -5.4,10.8 -8.1,22 -8.1,33.59l189.57 0zm-190.77 32.4c1.2,14 4.6,27.2 10.2,39.59 5.6,12.4 13,23.1 22.19,32.1 9.2,9 19.8,16.1 31.8,21.3 12,5.19 25,7.79 38.99,7.79 21.2,0 39.5,-4.89 54.9,-14.69 15.39,-9.8 27.09,-21.1 35.09,-33.9l30.6 25.2c-16.8,21.19 -35.3,36.39 -55.5,45.59 -20.19,9.2 -41.89,13.8 -65.09,13.8 -20.79,0 -40.09,-3.7 -57.89,-11.1 -17.79,-7.4 -33.09,-17.7 -45.89,-30.89 -12.8,-13.2 -22.9,-28.8 -30.3,-46.8 -7.39,-18 -11.09,-37.59 -11.09,-58.79 0,-21.2 3.6,-40.79 10.79,-58.79 7.2,-18 17.2,-33.6 30,-46.79 12.8,-13.2 27.8,-23.5 44.99,-30.9 17.2,-7.4 35.8,-11.1 55.79,-11.1 21.2,0 40.2,3.8 57,11.4 16.79,7.6 30.89,17.7 42.29,30.3 11.4,12.6 20.1,27.39 26.1,44.39 5.99,17 8.99,35.1 8.99,54.29l0 18 -233.96 0z"/>
   <path id="51" class="fil6" d="M13164.13 26205.22c0.8,7.6 1.3,15.1 1.5,22.5 0.2,7.4 0.3,14.9 0.3,22.5l1.2 0c4.4,-7.6 10,-14.6 16.79,-21 6.8,-6.4 14.4,-11.9 22.8,-16.5 8.4,-4.6 17.3,-8.2 26.7,-10.8 9.4,-2.6 18.69,-3.9 27.89,-3.9 36,0 62.59,9.5 79.79,28.5 17.2,19 25.8,46.09 25.8,81.29l0 178.17 -39.6 0 0 -155.38c0,-31.19 -5.4,-55.09 -16.19,-71.69 -10.8,-16.59 -30.8,-24.89 -60,-24.89 -1.99,0 -7.59,0.8 -16.79,2.4 -9.2,1.6 -18.9,6 -29.1,13.2 -10.2,7.19 -19.3,17.99 -27.29,32.39 -8,14.4 -12,34.4 -12,59.99l0 143.98 -39.6 0 0 -218.97c0,-7.6 -0.3,-17.19 -0.9,-28.79 -0.6,-11.6 -1.3,-22.6 -2.1,-33l40.8 0z"/>
   <path id="52" class="fil6" d="M13605.06 26241.22l-80.99 0 0 165.57c0,10.4 1,18.9 3,25.5 2,6.6 4.8,11.7 8.4,15.3 3.6,3.6 7.9,6.09 12.9,7.49 5,1.4 10.5,2.1 16.5,2.1 6.8,0 13.8,-1 20.99,-3 7.2,-1.99 13.8,-4.59 19.8,-7.79l1.8 36.59c-14.8,6.8 -32.59,10.2 -53.39,10.2 -7.6,0 -15.5,-1 -23.7,-3 -8.2,-2 -15.69,-5.8 -22.49,-11.4 -6.8,-5.6 -12.4,-13.2 -16.8,-22.8 -4.4,-9.59 -6.6,-22.19 -6.6,-37.79l0 -176.97 -59.39 0 0 -36 59.39 0 0 -79.19 39.59 0 0 79.19 80.99 0 0 36z"/>
   <path class="fil6" d="M4464.2 25843.15c35.94,0 68.46,-15.34 97.53,-45.98 29.07,-30.67 43.61,-74.03 43.61,-130.05l0 -282.3c0,-36.99 4.76,-68.2 14.27,-93.56 9.52,-25.38 22.22,-45.73 38.06,-61.07 15.87,-15.32 34.11,-26.43 54.72,-33.3 20.62,-6.87 42.03,-10.3 64.23,-10.3l101.5 0 0 95.15 -88.8 0c-19.03,0 -34.11,3.95 -45.2,11.9 -11.11,7.92 -19.03,18.22 -23.79,30.92 -4.76,12.68 -7.66,26.96 -8.73,42.82 -1.05,15.85 -1.59,31.19 -1.59,45.99l0 272.78c0,38.06 -5.55,70.03 -16.65,95.94 -11.09,25.9 -24.32,46.53 -39.64,61.85 -15.34,15.34 -30.92,26.43 -46.79,33.3 -15.86,6.88 -28.55,10.85 -38.06,11.9l0 3.18c9.51,1.05 22.2,5.02 38.06,11.9 15.87,6.85 31.45,17.96 46.79,33.3 15.32,15.32 28.55,35.95 39.64,61.85 11.1,25.89 16.65,57.88 16.65,95.94l0 272.78c0,14.8 0.54,30.12 1.59,45.99 1.07,15.86 3.97,30.14 8.73,42.82 4.76,12.68 12.68,23 23.79,30.92 11.09,7.93 26.17,11.9 45.2,11.9l88.8 0 0 95.15 -101.5 0c-22.2,0 -43.61,-3.43 -64.23,-10.3 -20.61,-6.87 -38.85,-17.98 -54.72,-33.3 -15.84,-15.35 -28.54,-35.69 -38.06,-61.07 -9.51,-25.38 -14.27,-56.57 -14.27,-93.56l0 -282.3c0,-56.04 -14.54,-99.39 -43.61,-130.05 -29.07,-30.66 -61.59,-45.98 -97.53,-45.98l0 -95.16z"/>
   <path class="fil6" d="M16270.88 25851.69c-35.94,0 -68.46,-15.34 -97.53,-45.99 -29.07,-30.66 -43.61,-74.02 -43.61,-130.05l0 -282.3c0,-36.99 -4.76,-68.2 -14.27,-93.56 -9.52,-25.38 -22.22,-45.72 -38.06,-61.06 -15.87,-15.32 -34.11,-26.43 -54.72,-33.31 -20.62,-6.87 -42.03,-10.3 -64.23,-10.3l-101.5 0 0 95.16 88.8 0c19.03,0 34.11,3.95 45.2,11.89 11.11,7.92 19.03,18.23 23.79,30.93 4.76,12.68 7.66,26.95 8.73,42.81 1.05,15.85 1.59,31.19 1.59,45.99l0 272.78c0,38.06 5.55,70.04 16.65,95.94 11.09,25.91 24.32,46.53 39.64,61.85 15.34,15.34 30.92,26.43 46.79,33.31 15.86,6.87 28.55,10.84 38.06,11.89l0 3.19c-9.51,1.04 -22.2,5.02 -38.06,11.89 -15.87,6.86 -31.45,17.96 -46.79,33.3 -15.32,15.33 -28.55,35.95 -39.64,61.85 -11.1,25.89 -16.65,57.88 -16.65,95.95l0 272.78c0,14.79 -0.54,30.12 -1.59,45.98 -1.07,15.87 -3.97,30.14 -8.73,42.82 -4.76,12.68 -12.68,23 -23.79,30.93 -11.09,7.92 -26.17,11.89 -45.2,11.89l-88.8 0 0 95.16 101.5 0c22.2,0 43.61,-3.43 64.23,-10.31 20.61,-6.87 38.85,-17.98 54.72,-33.3 15.84,-15.34 28.54,-35.68 38.06,-61.06 9.51,-25.39 14.27,-56.57 14.27,-93.57l0 -282.29c0,-56.05 14.54,-99.39 43.61,-130.05 29.07,-30.67 61.59,-45.99 97.53,-45.99l0 -95.15z"/>
  </g>
  <g id="_1709348893072">
   <path class="fil7" d="M9257.34 12164.13l-74.76 -59.18 -2562.99 3237.98c-13.89,17.55 -36.8,30.67 -57.4,38.6l-1589.56 612.54 -83.09 32.01c8.25,65.48 -8.77,134.11 -52.98,189.96 -87.31,110.3 -247.49,128.94 -357.79,41.63 -110.31,-87.31 -128.94,-247.49 -41.63,-357.79 87.3,-110.31 247.49,-128.95 357.79,-41.64 19.91,15.77 36.82,33.92 50.68,53.72l83.11 -32.05 246.47 -95.03 1288.22 -496.72c41.66,-16.07 78.87,-44.52 106.53,-79.47l2516.78 -3179.61 -74.76 -59.18 -2516.79 3179.61c-17.08,21.58 -40.39,39.78 -66.07,49.68l-1565.02 603.45c-4.88,-4.35 -9.9,-8.59 -15.09,-12.69 -148.01,-117.16 -362.99,-92.15 -480.15,55.87 -117.16,148.01 -92.14,362.99 55.87,480.15 148.01,117.15 362.99,92.14 480.15,-55.87 41.55,-52.5 65.19,-113.41 71.83,-175.4l1619.79 -624.19c37.13,-14.32 73.17,-37.19 97.88,-68.4l2562.98 -3237.98z"/>
   <circle class="fil7" transform="matrix(-0.17444 -0.138076 -0.138076 0.17444 4636.84 16057.9)" r="809.62"/>
  </g>
  <g id="_1709348891344">
   <path class="fil5" d="M9345.37 12920.63l-74.77 -59.18 -2562.98 3237.98c-13.89,17.55 -36.81,30.67 -57.4,38.6l-1589.56 612.54 -83.1 32.02c8.26,65.47 -8.77,134.1 -52.97,189.95 -87.31,110.3 -247.49,128.94 -357.8,41.63 -110.3,-87.31 -128.94,-247.49 -41.63,-357.79 87.31,-110.31 247.49,-128.95 357.8,-41.64 19.91,15.77 36.82,33.92 50.68,53.72l83.1 -32.05 246.48 -95.03 1288.21 -496.72c41.66,-16.06 78.87,-44.52 106.53,-79.47l2516.79 -3179.61 -74.77 -59.18 -2516.78 3179.61c-17.09,21.59 -40.4,39.79 -66.07,49.68l-1565.02 603.45c-4.89,-4.35 -9.91,-8.59 -15.1,-12.69 -148.01,-117.16 -362.99,-92.14 -480.15,55.87 -117.15,148.01 -92.14,362.99 55.87,480.15 148.01,117.16 363,92.14 480.15,-55.87 41.56,-52.5 65.19,-113.4 71.83,-175.4l1619.79 -624.19c37.13,-14.32 73.18,-37.19 97.89,-68.4l2562.98 -3237.98z"/>
   <circle class="fil5" transform="matrix(-0.17444 -0.138076 -0.138076 0.17444 4724.86 16814.4)" r="809.62"/>
  </g>
  <g id="_1709348889328">
   <path class="fil7" d="M9433.4 13677.13l-74.77 -59.18 -2562.98 3237.98c-13.9,17.55 -36.81,30.67 -57.4,38.6l-1589.57 612.54 -83.09 32.02c8.26,65.48 -8.77,134.1 -52.98,189.95 -87.31,110.3 -247.49,128.94 -357.79,41.63 -110.31,-87.31 -128.94,-247.49 -41.63,-357.79 87.31,-110.31 247.49,-128.94 357.79,-41.63 19.91,15.76 36.82,33.91 50.68,53.71l83.11 -32.05 246.47 -95.03 1288.22 -496.72c41.66,-16.06 78.87,-44.52 106.53,-79.47l2516.79 -3179.61 -74.77 -59.18 -2516.79 3179.61c-17.08,21.59 -40.39,39.79 -66.07,49.68l-1565.02 603.45c-4.88,-4.35 -9.9,-8.59 -15.09,-12.69 -148.01,-117.16 -362.99,-92.14 -480.15,55.87 -117.16,148.01 -92.14,362.99 55.87,480.15 148.01,117.16 362.99,92.14 480.15,-55.87 41.55,-52.5 65.19,-113.4 71.83,-175.4l1619.79 -624.19c37.13,-14.32 73.17,-37.19 97.88,-68.4l2562.99 -3237.98z"/>
   <circle class="fil7" transform="matrix(-0.17444 -0.138076 -0.138076 0.17444 4812.89 17570.9)" r="809.62"/>
  </g>
  <g id="_1709348890896">
   <path class="fil5" d="M11110.44 13657.63l74.77 59.18 -2562.99 3237.97c-13.89,17.55 -21.4,42.87 -24.39,64.73l-231.2 1687.74 -12.08 88.22c-65.63,7 -128.51,39.33 -172.72,95.18 -87.3,110.3 -68.67,270.48 41.64,357.79 110.3,87.31 270.48,68.67 357.79,-41.63 87.31,-110.3 68.67,-270.48 -41.63,-357.79 -19.91,-15.77 -41.46,-28.06 -63.92,-37l12.11 -88.24 35.91 -261.71 187.66 -1367.85c6.07,-44.24 25.22,-86.99 52.88,-121.93l2516.79 -3179.61 74.77 59.18 -2516.79 3179.61c-17.09,21.58 -29.45,48.45 -33.19,75.71l-227.98 1661.76c5.36,3.76 10.63,7.67 15.82,11.78 148.01,117.16 173.03,332.14 55.87,480.15 -117.16,148.01 -332.14,173.03 -480.15,55.87 -148.01,-117.16 -173.03,-332.14 -55.87,-480.15 41.55,-52.5 95.4,-89.49 154.22,-110.19l235.59 -1719.83c5.41,-39.42 19.4,-79.76 44.11,-110.97l2562.98 -3237.97z"/>
   <circle class="fil5" transform="matrix(0.17444 0.138076 -0.138076 0.17444 8381.57 19048.7)" r="809.62"/>
  </g>
  <g id="_1709348887600">
   <path class="fil5" d="M10353.94 13745.65l74.76 59.18 -2562.98 3237.98c-13.89,17.54 -21.4,42.86 -24.4,64.73l-231.19 1687.73 -12.08 88.23c-65.63,7 -128.51,39.33 -172.72,95.17 -87.31,110.31 -68.67,270.49 41.64,357.8 110.3,87.31 270.48,68.67 357.79,-41.63 87.31,-110.31 68.67,-270.49 -41.63,-357.8 -19.92,-15.76 -41.47,-28.05 -63.92,-36.99l12.11 -88.25 35.9 -261.71 187.67 -1367.85c6.07,-44.23 25.22,-86.98 52.88,-121.93l2516.79 -3179.61 74.76 59.18 -2516.78 3179.61c-17.09,21.59 -29.45,48.45 -33.19,75.72l-227.98 1661.76c5.35,3.75 10.63,7.67 15.82,11.77 148.01,117.16 173.02,332.14 55.87,480.16 -117.16,148.01 -332.14,173.02 -480.15,55.87 -148.02,-117.16 -173.03,-332.14 -55.87,-480.16 41.55,-52.49 95.4,-89.48 154.22,-110.18l235.59 -1719.83c5.41,-39.43 19.4,-79.76 44.1,-110.97l2562.99 -3237.98z"/>
   <circle class="fil5" transform="matrix(0.17444 0.138076 -0.138076 0.17444 7625.07 19136.8)" r="809.62"/>
  </g>
  <g id="_1709348884848">
   <path class="fil7" d="M9597.44 13833.68l74.76 59.18 -2562.98 3237.97c-13.89,17.55 -21.4,42.87 -24.4,64.73l-231.19 1687.74 -12.08 88.22c-65.63,7 -128.51,39.33 -172.72,95.18 -87.31,110.3 -68.67,270.48 41.63,357.79 110.31,87.31 270.49,68.68 357.8,-41.63 87.31,-110.3 68.67,-270.48 -41.63,-357.79 -19.92,-15.77 -41.47,-28.06 -63.92,-37l12.11 -88.24 35.9 -261.71 187.66 -1367.85c6.07,-44.23 25.23,-86.99 52.89,-121.93l2516.79 -3179.61 74.76 59.18 -2516.78 3179.61c-17.09,21.58 -29.45,48.45 -33.19,75.71l-227.98 1661.76c5.35,3.76 10.63,7.68 15.82,11.78 148.01,117.16 173.02,332.14 55.87,480.15 -117.16,148.01 -332.14,173.03 -480.16,55.87 -148.01,-117.16 -173.02,-332.14 -55.86,-480.15 41.55,-52.5 95.4,-89.49 154.22,-110.18l235.59 -1719.84c5.41,-39.42 19.4,-79.76 44.1,-110.97l2562.99 -3237.97z"/>
   <circle class="fil7" transform="matrix(0.17444 0.138076 -0.138076 0.17444 6868.57 19224.8)" r="809.62"/>
  </g>
  <path class="fil8" d="M8418.24 15129.37l-1688.61 -1336.61c-103.38,-81.82 -52.03,-119.38 -9,-273.29 510.32,-1825.31 1404.09,-3616.17 2688.19,-5238.44 2280.72,-2881.39 5361.23,-4694.91 8503.07,-5279.33 60.53,-11.26 127.11,37 129.27,83.24 149.99,3199.23 -899.53,6620.55 -3184.98,9507.89 -1284.09,1622.28 -2821.89,2903.37 -4481.26,3819.16 -139.91,77.22 -164.68,135.82 -268.06,53.99l-1688.62 -1336.61z"/>
  <path class="fil9" d="M6788.13 13839.07l1630.11 1290.3 1630.12 1290.3 -618.05 411.68c-73.87,49.22 -160.53,47.8 -258.58,-29.8l-1277 -1010.79 -1277 -1010.8c-98.04,-77.6 -119.32,-161.63 -88.37,-244.82l258.77 -696.07z"/>
  <path class="fil10" d="M3792.22 13408.4c-68.64,-808.38 310.79,-1576.64 988.6,-2432.97 861.76,-1088.71 2807.26,-2048.01 4287.1,-2247.31 -958.27,1304.87 -1673.34,2707.29 -2148.67,4141.19 -919.06,69.41 -1776.57,408 -2599.61,891.15 -205.79,120.8 -483.43,-48.3 -527.42,-352.06z"/>
  <path class="fil10" d="M11172.3 19250.03c802.54,-118.81 1463.16,-664.5 2140.98,-1520.82 867.51,-1095.99 1355.17,-3230.76 1199.86,-4718.24 -1049.6,1235.29 -2250.56,2255.99 -3537.58,3050.15 149.02,917.63 16.48,1837.2 -267.01,2756.41 -70.32,228.03 158,459.43 463.75,432.5z"/>
  <path class="fil10" d="M14241.29 4271.05c1182.97,-610.44 2421.91,-1037.08 3670.6,-1269.35 60.53,-11.26 127.11,37 129.27,83.24 58.07,1238.53 -63.78,2510.34 -367.39,3771.57 -394.68,-515.18 -857.29,-989.65 -1387.68,-1409.48 -635.39,-502.93 -1324.65,-893.52 -2044.8,-1175.98z"/>
  <circle class="fil11" transform="matrix(1.06645 0.844134 -0.844134 1.06645 13614.8 8559.48)" r="1449.92"/>
  <path class="fil7" d="M8471.21 9602.05c220.57,-348.3 457.41,-691.03 710.58,-1027.03 697.94,875.68 1548,1727.27 2530.79,2505.19 940.6,744.52 1918.99,1355.58 2888.91,1825.91 -269.43,322.84 -549.14,631.33 -837.97,925.26 -743.34,-365.93 -1490.94,-814.1 -2222,-1341.6l-24.73 -212.52 -107.78 -926.3 -926.3 107.79 -203.42 23.67c-680.55,-599.53 -1285.89,-1233.02 -1808.08,-1880.37z"/>
  <path class="fil7" d="M12876.89 14663.92c-743.52,-372.07 -1482.95,-822.46 -2200.85,-1349.99l22.23 -2.59 453.81 -52.8c648.64,455.61 1312.78,849.12 1979.92,1179.43 -84.4,76.47 -169.44,151.79 -255.11,225.95zm-3211.07 -2157.15c-674.1,-584.76 -1277.16,-1207.65 -1803.64,-1851.79 52.86,-100.54 106.98,-200.72 162.38,-300.53 468.25,577.92 997.97,1139.12 1585.3,1671.49l54.33 466.89 1.63 13.94z"/>
  <path class="fil12" d="M10975.56 16061.12c1299.53,-797.55 2478.73,-1814.26 3537.58,-3050.15 -988.42,1618.09 -2148.86,2815.37 -3481.34,3591.87 -11.09,-205.86 -29.84,-386.44 -56.24,-541.72z"/>
  <path class="fil12" d="M6919.25 12869.31c477.87,-1447.94 1196.66,-2829.08 2156.4,-4143.41 -1347.9,1333.54 -2246.76,2737.88 -2696.55,4213.05 202.9,-36.47 382.96,-59.68 540.15,-69.64z"/>
  <path class="fil5" d="M8153.17 10127.46c31.33,-54.21 63.05,-108.32 95.15,-162.3 646.25,823.22 1477.84,1659.17 2455,2432.63 914.02,723.48 1852.07,1310.66 2746.65,1743.59 -45.2,43.41 -90.61,86.46 -136.22,129.17 -887.2,-431.76 -1816.46,-1014.74 -2722.15,-1731.62 -968.78,-766.83 -1794.58,-1595.09 -2438.43,-2411.47z"/>
  <polygon class="fil5" points="11268.18,11528.88 11357.41,12295.81 11446.66,13062.73 10679.73,13151.97 9912.8,13241.21 9823.57,12474.28 9734.32,11707.35 10501.25,11618.12 "/>
  <path class="fil13" d="M10385.87 12045.96l-190.41 237.21c-9.77,12.05 -9.92,23.12 3.67,34.02 13.65,10.91 24.33,8.4 34.1,-3.65l190.41 -237.29 36.64 29.47 -10.91 13.58c-9.68,12.05 -9.84,23.11 3.74,34.02 13.58,10.99 24.34,8.39 34.02,-3.66l41.27 -51.43 -186.57 -149.79 -41.28 51.36c-9.68,12.04 -9.84,23.11 3.75,34.02 13.57,10.98 24.33,8.39 34.01,-3.66l10.92 -13.67 36.64 29.47z"/>
  <path id="1" class="fil13" d="M10697.2 12292.78l55.53 44.61c9.88,7.9 23.19,9.92 34.1,-3.74 10.91,-13.58 6.07,-26.13 -3.74,-34.03l-148.82 -119.5c-9.8,-7.89 -23.12,-9.84 -34.02,3.75 -10.99,13.57 -6.14,26.12 3.65,34.01l55.53 44.62 -175.27 218.32 -55.52 -44.6c-9.81,-7.9 -23.12,-9.84 -34.11,3.74 -10.9,13.57 -6.06,26.12 3.75,34.02l148.82 119.5c9.88,7.9 23.19,9.92 34.1,-3.65 10.91,-13.67 6.06,-26.22 -3.75,-34.11l-55.52 -44.54 175.27 -218.4z"/>
  <path id="2" class="fil13" d="M10668.1 12656.49c-9.69,12.05 -9.84,23.12 3.74,34.02 13.58,10.91 24.33,8.4 34.1,-3.65l113.4 -141.35 92.9 74.65c9.88,7.9 23.19,9.84 34.1,-3.74 10.91,-13.58 6.06,-26.13 -3.75,-34.03l-92.88 -74.65 46.65 -58.18 129.93 104.37c9.88,7.89 23.19,9.91 34.1,-3.74 10.91,-13.59 6.07,-26.13 -3.74,-34.03l-167.7 -134.64 -220.85 274.97z"/>
  <rect class="fil5" transform="matrix(1.20925 0.95717 -18.7498 23.6877 9939.89 13093)" width="87.86" height="84.11"/>
  <rect class="fil14" x="3502.66" y="24861.3" width="13716" height="63.5"/>
  <g id="_1709348861136">
   <path class="fil15" d="M13585.64 9989.49c17.44,-35.2 3.04,-77.86 -32.16,-95.3 -35.2,-17.43 -77.86,-3.03 -95.3,32.16l0 0c-0.27,0.55 -0.53,1.11 -0.79,1.66l0 0c-33.61,70.08 -5,154.21 65.12,188.94 70.12,34.73 161.56,9.63 196.43,-60.76 -14.74,29.57 -67.08,45.46 -101.13,28.6 -35.2,-17.44 -49.6,-60.1 -32.17,-95.3z"/>
   <path class="fil5" d="M13596.66 9978.87c-17.44,35.2 -3.04,77.87 32.16,95.3 35.2,17.44 77.86,3.04 95.3,-32.16l0 0c0.27,-0.55 0.53,-1.1 0.79,-1.66l0 0c33.61,-70.07 5,-154.2 -65.12,-188.94 -70.12,-34.73 -161.56,-9.63 -196.43,60.77 14.73,-29.57 67.08,-45.47 101.13,-28.6 35.2,17.43 49.6,60.1 32.17,95.29z"/>
   <g>
    <circle class="fil5" transform="matrix(-0.254734 0.254734 0.254734 0.254734 14035.1 8963.87)" r="931.33"/>
    <path class="fil5" d="M14393.89 9044.09c213.14,-103.93 477.5,-67.38 654.58,109.7l263.83 263.83 -808.2 808.2 -263.82 -263.83c-173.31,-173.31 -212,-430.21 -116.15,-640.89 64.36,-11.96 125.89,-42.8 175.67,-92.58 52.03,-52.04 83.38,-116.91 94.09,-184.43z"/>
   </g>
   <g>
    <circle class="fil5" transform="matrix(-0.254734 0.254734 -0.254734 -0.254734 13179 8107.71)" r="931.33"/>
    <path class="fil5" d="M13098.77 7748.97c103.93,-213.14 67.38,-477.5 -109.7,-654.58l-263.83 -263.83 -808.2 808.2 263.83 263.82c173.31,173.31 430.21,212 640.89,116.15 11.96,-64.36 42.8,-125.89 92.58,-175.67 52.04,-52.03 116.91,-83.38 184.43,-94.09z"/>
   </g>
   <path class="fil15" d="M12141.34 8530.01c35.19,-17.43 77.86,-3.03 95.29,32.17 17.44,35.19 3.04,77.86 -32.16,95.29l0 0c-0.55,0.28 -1.1,0.54 -1.66,0.8l0 0c-70.07,33.61 -154.2,5 -188.94,-65.12 -34.73,-70.12 -9.63,-161.57 60.77,-196.43 -29.57,14.73 -45.47,67.08 -28.6,101.13 17.43,35.2 60.1,49.6 95.3,32.16z"/>
   <path class="fil5" d="M12151.95 8519c-35.2,17.44 -77.86,3.04 -95.3,-32.16 -17.43,-35.2 -3.03,-77.87 32.16,-95.3l0.01 0c0.54,-0.27 1.1,-0.54 1.65,-0.79l0.01 -0.01c70.07,-33.6 154.2,-4.99 188.93,65.13 34.73,70.12 9.63,161.56 -60.76,196.43 29.57,-14.74 45.46,-67.08 28.6,-101.14 -17.44,-35.19 -60.1,-49.59 -95.3,-32.16z"/>
   <path class="fil15" d="M15043.28 8521.25c-35.2,17.43 -77.86,3.03 -95.3,-32.17 -17.43,-35.19 -3.03,-77.86 32.17,-95.29l0 0c0.55,-0.28 1.1,-0.54 1.65,-0.8l0.01 0c70.07,-33.61 154.2,-5 188.93,65.12 34.73,70.12 9.63,161.57 -60.76,196.43 29.57,-14.73 45.46,-67.08 28.6,-101.13 -17.44,-35.2 -60.1,-49.6 -95.3,-32.16z"/>
   <path class="fil5" d="M15032.67 8532.26c35.19,-17.44 77.86,-3.04 95.29,32.16 17.44,35.2 3.04,77.87 -32.16,95.3l0 0c-0.55,0.27 -1.1,0.54 -1.65,0.79l-0.01 0.01c-70.07,33.6 -154.2,4.99 -188.93,-65.13 -34.74,-70.12 -9.64,-161.56 60.76,-196.43 -29.57,14.74 -45.47,67.08 -28.6,101.14 17.43,35.19 60.1,49.59 95.3,32.16z"/>
   <path class="fil15" d="M13599.94 7082.32c-17.43,35.19 -3.03,77.86 32.16,95.29 35.2,17.44 77.87,3.04 95.3,-32.16l0 0c0.27,-0.55 0.54,-1.1 0.79,-1.66l0.01 0c33.6,-70.07 4.99,-154.2 -65.13,-188.93 -70.11,-34.74 -161.56,-9.64 -196.43,60.76 14.74,-29.57 67.09,-45.47 101.14,-28.6 35.19,17.43 49.59,60.1 32.16,95.3z"/>
   <path class="fil5" d="M13588.93 7092.93c17.43,-35.2 3.03,-77.86 -32.17,-95.3 -35.19,-17.43 -77.86,-3.03 -95.29,32.17l0 0c-0.28,0.55 -0.54,1.1 -0.8,1.65l0 0.01c-33.61,70.07 -5,154.2 65.12,188.93 70.12,34.73 161.57,9.63 196.43,-60.76 -14.73,29.57 -67.08,45.46 -101.13,28.6 -35.2,-17.44 -49.6,-60.1 -32.16,-95.3z"/>
   <path class="fil15" d="M13478.88 10030.58c-344.42,-26.68 -681.38,-171.68 -944.81,-435.1 -263.42,-263.42 -408.42,-600.39 -435.09,-944.8l87.05 0c26.5,322.16 162.91,636.98 409.39,883.46 246.47,246.47 561.29,382.89 883.46,409.39l0 87.05z"/>
   <path class="fil5" d="M15092.22 8650.68c-26.68,344.41 -171.68,681.38 -435.1,944.8 -263.42,263.42 -600.38,408.4 -944.8,435.1l0 -87.05c322.17,-26.52 636.99,-162.92 883.46,-409.39 246.47,-246.48 382.89,-561.3 409.39,-883.46l87.05 0z"/>
   <path class="fil5" d="M13478.88 7124.39c-322.17,26.49 -636.99,162.91 -883.46,409.38 -246.48,246.48 -382.87,561.3 -409.39,883.46l-87.05 0c26.7,-344.41 171.67,-681.38 435.09,-944.8 263.43,-263.42 600.39,-408.42 944.81,-435.1l0 87.06z"/>
   <path class="fil15" d="M14657.12 7472.43c263.42,263.42 408.4,600.39 435.1,944.8l-87.05 0c-26.52,-322.16 -162.92,-636.98 -409.39,-883.46 -246.47,-246.47 -561.29,-382.87 -883.46,-409.38l0 -87.06c344.42,26.7 681.38,171.68 944.8,435.1z"/>
   <g>
    <circle class="fil16" transform="matrix(-0.254734 -0.254734 -0.254734 0.254734 13179 8948.68)" r="931.33"/>
    <path class="fil7" d="M13098.78 9307.42c103.93,213.14 67.38,477.5 -109.7,654.58l-263.83 263.83 -808.2 -808.19 263.83 -263.83c173.31,-173.31 430.21,-212 640.89,-116.15 11.96,64.36 42.8,125.89 92.59,175.67 52.03,52.04 116.91,83.38 184.42,94.09z"/>
   </g>
   <g>
    <circle class="fil16" transform="matrix(-0.254734 -0.254734 0.254734 -0.254734 14035.2 8092.52)" r="931.33"/>
    <path class="fil7" d="M14393.9 8012.3c213.14,103.93 477.5,67.38 654.58,-109.7l263.83 -263.83 -808.19 -808.2 -263.83 263.83c-173.31,173.31 -212,430.21 -116.15,640.89 64.36,11.96 125.89,42.8 175.67,92.59 52.04,52.03 83.38,116.91 94.09,184.42z"/>
   </g>
  </g>
  <path class="fil17" d="M14838.7 7013.21c853.97,675.96 998.29,1916.22 322.33,2770.19 -675.95,853.98 -1916.21,998.29 -2770.19,322.34 -853.97,-675.96 -998.29,-1916.21 -322.33,-2770.19 675.96,-853.98 1916.21,-998.29 2770.19,-322.34zm-205.16 259.2c710.82,562.65 830.95,1595 268.3,2305.83 -562.65,710.83 -1595,830.95 -2305.83,268.3 -710.83,-562.65 -830.96,-1595 -268.31,-2305.83 562.65,-710.83 1595.01,-830.95 2305.84,-268.3z"/>
  <g id="_1709348855184">
   <path class="fil1" d="M12760.25 13961.19c41.39,-41.52 57.63,-116.64 57.63,-186.57 0,71.18 16.11,145.88 57.28,186.92 41.52,41.39 116.64,57.63 186.57,57.63 -71.18,0 -145.88,16.11 -186.92,57.28 -41.39,41.52 -57.63,116.64 -57.63,186.57 0,-71.18 -16.11,-145.88 -57.28,-186.92 -41.52,-41.39 -116.64,-57.63 -186.57,-57.63 71.18,0 145.88,-16.11 186.92,-57.28zm57.63 57.63l-0.35 -0.35 -0.35 0.35 0.35 0.35 0.35 -0.35z"/>
   <path class="fil1" d="M13308.72 16616.45c41.39,-41.52 57.63,-116.64 57.63,-186.57 0,71.18 16.11,145.88 57.28,186.92 41.52,41.39 116.64,57.63 186.57,57.63 -71.18,0 -145.88,16.11 -186.92,57.28 -41.39,41.52 -57.63,116.64 -57.63,186.57 0,-71.18 -16.11,-145.88 -57.28,-186.92 -41.52,-41.39 -116.64,-57.63 -186.57,-57.63 71.18,0 145.88,-16.11 186.92,-57.28zm57.63 57.63l-0.35 -0.35 -0.35 0.35 0.35 0.35 0.35 -0.35z"/>
   <path class="fil1" d="M15679.73 18438.3c41.39,-41.52 57.63,-116.64 57.63,-186.57 0,71.18 16.11,145.88 57.28,186.92 41.52,41.39 116.64,57.63 186.57,57.63 -71.18,0 -145.88,16.11 -186.92,57.28 -41.39,41.52 -57.63,116.64 -57.63,186.57 0,-71.18 -16.11,-145.88 -57.28,-186.92 -41.52,-41.39 -116.64,-57.63 -186.57,-57.63 71.18,0 145.88,-16.11 186.92,-57.28zm57.63 57.63l-0.35 -0.35 -0.35 0.35 0.35 0.35 0.35 -0.35z"/>
   <path class="fil1" d="M14436.77 19680.56c41.39,-41.52 57.63,-116.64 57.63,-186.57 0,71.18 16.11,145.88 57.28,186.92 41.52,41.39 116.64,57.63 186.57,57.63 -71.18,0 -145.88,16.11 -186.92,57.28 -41.39,41.52 -57.63,116.64 -57.63,186.57 0,-71.18 -16.11,-145.88 -57.28,-186.92 -41.52,-41.39 -116.64,-57.63 -186.57,-57.63 71.18,0 145.88,-16.11 186.92,-57.28zm57.63 57.63l-0.35 -0.35 -0.35 0.35 0.35 0.35 0.35 -0.35z"/>
   <path class="fil1" d="M7956.82 10672.81c41.39,-41.52 57.63,-116.64 57.63,-186.57 0,71.18 16.11,145.88 57.28,186.92 41.52,41.39 116.64,57.63 186.57,57.63 -71.18,0 -145.88,16.11 -186.92,57.28 -41.39,41.52 -57.63,116.64 -57.63,186.57 0,-71.18 -16.11,-145.88 -57.28,-186.92 -41.52,-41.39 -116.64,-57.63 -186.57,-57.63 71.18,0 145.88,-16.11 186.92,-57.28zm57.63 57.63l-0.35 -0.35 -0.35 0.35 0.35 0.35 0.35 -0.35z"/>
   <path class="fil1" d="M8972.82 13763.15c41.39,-41.52 57.63,-116.64 57.63,-186.57 0,71.18 16.11,145.88 57.28,186.92 41.52,41.39 116.64,57.63 186.57,57.63 -71.18,0 -145.88,16.11 -186.92,57.28 -41.39,41.52 -57.63,116.64 -57.63,186.57 0,-71.18 -16.11,-145.88 -57.28,-186.92 -41.52,-41.39 -116.64,-57.63 -186.57,-57.63 71.18,0 145.88,-16.11 186.92,-57.28zm57.63 57.63l-0.35 -0.35 -0.35 0.35 0.35 0.35 0.35 -0.35z"/>
   <path class="fil1" d="M7025.13 15190.39c41.39,-41.52 57.63,-116.64 57.63,-186.57 0,71.18 16.11,145.88 57.28,186.92 41.52,41.39 116.64,57.63 186.57,57.63 -71.18,0 -145.88,16.11 -186.92,57.28 -41.39,41.52 -57.63,116.64 -57.63,186.57 0,-71.18 -16.11,-145.88 -57.28,-186.92 -41.52,-41.39 -116.64,-57.63 -186.57,-57.63 71.18,0 145.88,-16.11 186.92,-57.28zm57.63 57.63l-0.35 -0.35 -0.35 0.35 0.35 0.35 0.35 -0.35z"/>
   <path class="fil1" d="M5071.93 17207.79c41.39,-41.52 57.63,-116.64 57.63,-186.57 0,71.18 16.11,145.88 57.28,186.92 41.52,41.39 116.64,57.63 186.57,57.63 -71.18,0 -145.88,16.11 -186.92,57.28 -41.39,41.52 -57.63,116.64 -57.63,186.57 0,-71.18 -16.11,-145.88 -57.28,-186.92 -41.52,-41.39 -116.64,-57.63 -186.57,-57.63 71.18,0 145.88,-16.11 186.92,-57.28zm57.63 57.63l-0.35 -0.35 -0.35 0.35 0.35 0.35 0.35 -0.35z"/>
   <path class="fil1" d="M7336.76 18498.96c41.39,-41.52 57.63,-116.64 57.63,-186.57 0,71.18 16.11,145.88 57.28,186.92 41.52,41.39 116.64,57.63 186.57,57.63 -71.18,0 -145.88,16.11 -186.92,57.28 -41.39,41.52 -57.63,116.64 -57.63,186.57 0,-71.18 -16.11,-145.88 -57.28,-186.92 -41.52,-41.39 -116.64,-57.63 -186.57,-57.63 71.18,0 145.88,-16.11 186.92,-57.28zm57.63 57.63l-0.35 -0.35 -0.35 0.35 0.35 0.35 0.35 -0.35z"/>
  </g>
  <g id="_1709346755632">
   <path class="fil1" d="M14826.52 9371.22c41.39,-41.52 57.63,-116.64 57.63,-186.57 0,71.18 16.11,145.88 57.28,186.92 41.52,41.39 116.64,57.63 186.57,57.63 -71.18,0 -145.88,16.11 -186.92,57.28 -41.39,41.52 -57.63,116.64 -57.63,186.57 0,-71.18 -16.11,-145.88 -57.28,-186.92 -41.52,-41.39 -116.64,-57.63 -186.57,-57.63 71.18,0 145.88,-16.11 186.92,-57.28zm57.63 57.63l-0.35 -0.35 -0.35 0.35 0.35 0.35 0.35 -0.35z"/>
   <path class="fil1" d="M17197.53 11193.07c41.39,-41.52 57.63,-116.64 57.63,-186.57 0,71.18 16.11,145.88 57.28,186.92 41.52,41.39 116.64,57.63 186.57,57.63 -71.18,0 -145.88,16.11 -186.92,57.28 -41.39,41.52 -57.63,116.64 -57.63,186.57 0,-71.18 -16.11,-145.88 -57.28,-186.92 -41.52,-41.39 -116.64,-57.63 -186.57,-57.63 71.18,0 145.88,-16.11 186.92,-57.28zm57.63 57.63l-0.35 -0.35 -0.35 0.35 0.35 0.35 0.35 -0.35z"/>
   <path class="fil1" d="M15954.57 12435.33c41.39,-41.52 57.63,-116.64 57.63,-186.57 0,71.18 16.11,145.88 57.28,186.92 41.52,41.39 116.64,57.63 186.57,57.63 -71.18,0 -145.88,16.11 -186.92,57.28 -41.39,41.52 -57.63,116.64 -57.63,186.57 0,-71.18 -16.11,-145.88 -57.28,-186.92 -41.52,-41.39 -116.64,-57.63 -186.57,-57.63 71.18,0 145.88,-16.11 186.92,-57.28zm57.63 57.63l-0.35 -0.35 -0.35 0.35 0.35 0.35 0.35 -0.35z"/>
   <path class="fil1" d="M5758.45 5943.38c41.39,-41.52 57.63,-116.64 57.63,-186.57 0,71.18 16.11,145.88 57.28,186.92 41.52,41.39 116.64,57.63 186.57,57.63 -71.18,0 -145.88,16.11 -186.92,57.28 -41.39,41.52 -57.63,116.64 -57.63,186.57 0,-71.18 -16.11,-145.88 -57.28,-186.92 -41.52,-41.39 -116.64,-57.63 -186.57,-57.63 71.18,0 145.88,-16.11 186.92,-57.28zm57.63 57.63l-0.35 -0.35 -0.35 0.35 0.35 0.35 0.35 -0.35z"/>
   <path class="fil1" d="M6774.45 9033.72c41.39,-41.52 57.63,-116.64 57.63,-186.57 0,71.18 16.11,145.88 57.28,186.92 41.52,41.39 116.64,57.63 186.57,57.63 -71.18,0 -145.88,16.11 -186.92,57.28 -41.39,41.52 -57.63,116.64 -57.63,186.57 0,-71.18 -16.11,-145.88 -57.28,-186.92 -41.52,-41.39 -116.64,-57.63 -186.57,-57.63 71.18,0 145.88,-16.11 186.92,-57.28zm57.63 57.63l-0.35 -0.35 -0.35 0.35 0.35 0.35 0.35 -0.35z"/>
   <path class="fil1" d="M4826.76 10460.96c41.39,-41.52 57.63,-116.64 57.63,-186.57 0,71.18 16.11,145.88 57.28,186.92 41.52,41.39 116.64,57.63 186.57,57.63 -71.18,0 -145.88,16.11 -186.92,57.28 -41.39,41.52 -57.63,116.64 -57.63,186.57 0,-71.18 -16.11,-145.88 -57.28,-186.92 -41.52,-41.39 -116.64,-57.63 -186.57,-57.63 71.18,0 145.88,-16.11 186.92,-57.28zm57.63 57.63l-0.35 -0.35 -0.35 0.35 0.35 0.35 0.35 -0.35z"/>
   <path class="fil1" d="M2873.56 12478.36c41.39,-41.52 57.63,-116.64 57.63,-186.57 0,71.18 16.11,145.88 57.28,186.92 41.52,41.39 116.64,57.63 186.57,57.63 -71.18,0 -145.88,16.11 -186.92,57.28 -41.39,41.52 -57.63,116.64 -57.63,186.57 0,-71.18 -16.11,-145.88 -57.28,-186.92 -41.52,-41.39 -116.64,-57.63 -186.57,-57.63 71.18,0 145.88,-16.11 186.92,-57.28zm57.63 57.63l-0.35 -0.35 -0.35 0.35 0.35 0.35 0.35 -0.35z"/>
   <path class="fil1" d="M5138.39 13769.53c41.39,-41.52 57.63,-116.64 57.63,-186.57 0,71.18 16.11,145.88 57.28,186.92 41.52,41.39 116.64,57.63 186.57,57.63 -71.18,0 -145.88,16.11 -186.92,57.28 -41.39,41.52 -57.63,116.64 -57.63,186.57 0,-71.18 -16.11,-145.88 -57.28,-186.92 -41.52,-41.39 -116.64,-57.63 -186.57,-57.63 71.18,0 145.88,-16.11 186.92,-57.28zm57.63 57.63l-0.35 -0.35 -0.35 0.35 0.35 0.35 0.35 -0.35z"/>
  </g>
  <g id="Bulan_17">
   <path class="fil2" d="M5395.03 5380.68c144.47,325.3 224.89,685.34 224.89,1064.22 0,1449.56 -1175.1,2624.66 -2624.66,2624.66 -203.46,0 -401.51,-23.16 -591.66,-66.97 656.73,-1459.61 1696.55,-2709.55 2991.43,-3621.91z"/>
   <path class="fil3" d="M3202.35 7590.09c100.02,-144.27 204.19,-285.45 312.37,-423.33 8.04,-0.5 16.15,-0.77 24.33,-0.77 195.81,0 354.54,144.52 354.54,322.79 0,178.27 -158.73,322.79 -354.54,322.79 -156.94,0 -290.03,-92.84 -336.7,-221.48z"/>
   <ellipse class="fil3" transform="matrix(-0.313428 0.327565 -0.636769 -0.20945 4473.01 8187.4)" rx="391.58" ry="137.58"/>
   <ellipse class="fil3" transform="matrix(0.83082 -0.556541 0.556541 0.83082 5184.75 6986.08)" rx="201.08" ry="127"/>
   <ellipse class="fil3" transform="matrix(0.995446 -0.095328 0.095328 0.995446 4602.66 6896.12)" rx="317.5" ry="259.29"/>
   <ellipse class="fil3" cx="3164.22" cy="8579.72" rx="221.36" ry="100.54"/>
  </g>
  <g id="_1709346752080">
   <path class="fil7" d="M9257.34 12164.13l-74.76 -59.18 -2562.99 3237.98c-13.89,17.55 -36.8,30.67 -57.4,38.6l-1589.56 612.54 -83.09 32.01c8.25,65.48 -8.77,134.11 -52.98,189.96 -87.31,110.3 -247.49,128.94 -357.79,41.63 -110.31,-87.31 -128.94,-247.49 -41.63,-357.79 87.3,-110.31 247.49,-128.95 357.79,-41.64 19.91,15.77 36.82,33.92 50.68,53.72l83.11 -32.05 246.47 -95.03 1288.22 -496.72c41.66,-16.07 78.87,-44.52 106.53,-79.47l2516.78 -3179.61 -74.76 -59.18 -2516.79 3179.61c-17.08,21.58 -40.39,39.78 -66.07,49.68l-1565.02 603.45c-4.88,-4.35 -9.9,-8.59 -15.09,-12.69 -148.01,-117.16 -362.99,-92.15 -480.15,55.87 -117.16,148.01 -92.14,362.99 55.87,480.15 148.01,117.15 362.99,92.14 480.15,-55.87 41.55,-52.5 65.19,-113.41 71.83,-175.4l1619.79 -624.19c37.13,-14.32 73.17,-37.19 97.88,-68.4l2562.98 -3237.98z"/>
   <circle class="fil7" transform="matrix(-0.17444 -0.138076 -0.138076 0.17444 4636.84 16057.9)" r="809.62"/>
  </g>
  <g id="_1709346818768">
   <path class="fil5" d="M9345.37 12920.63l-74.77 -59.18 -2562.98 3237.98c-13.89,17.55 -36.81,30.67 -57.4,38.6l-1589.56 612.54 -83.1 32.02c8.26,65.47 -8.77,134.1 -52.97,189.95 -87.31,110.3 -247.49,128.94 -357.8,41.63 -110.3,-87.31 -128.94,-247.49 -41.63,-357.79 87.31,-110.31 247.49,-128.95 357.8,-41.64 19.91,15.77 36.82,33.92 50.68,53.72l83.1 -32.05 246.48 -95.03 1288.21 -496.72c41.66,-16.06 78.87,-44.52 106.53,-79.47l2516.79 -3179.61 -74.77 -59.18 -2516.78 3179.61c-17.09,21.59 -40.4,39.79 -66.07,49.68l-1565.02 603.45c-4.89,-4.35 -9.91,-8.59 -15.1,-12.69 -148.01,-117.16 -362.99,-92.14 -480.15,55.87 -117.15,148.01 -92.14,362.99 55.87,480.15 148.01,117.16 363,92.14 480.15,-55.87 41.56,-52.5 65.19,-113.4 71.83,-175.4l1619.79 -624.19c37.13,-14.32 73.18,-37.19 97.89,-68.4l2562.98 -3237.98z"/>
   <circle class="fil5" transform="matrix(-0.17444 -0.138076 -0.138076 0.17444 4724.86 16814.4)" r="809.62"/>
  </g>
  <g id="_1709346817712">
   <path class="fil7" d="M9433.4 13677.13l-74.77 -59.18 -2562.98 3237.98c-13.9,17.55 -36.81,30.67 -57.4,38.6l-1589.57 612.54 -83.09 32.02c8.26,65.48 -8.77,134.1 -52.98,189.95 -87.31,110.3 -247.49,128.94 -357.79,41.63 -110.31,-87.31 -128.94,-247.49 -41.63,-357.79 87.31,-110.31 247.49,-128.94 357.79,-41.63 19.91,15.76 36.82,33.91 50.68,53.71l83.11 -32.05 246.47 -95.03 1288.22 -496.72c41.66,-16.06 78.87,-44.52 106.53,-79.47l2516.79 -3179.61 -74.77 -59.18 -2516.79 3179.61c-17.08,21.59 -40.39,39.79 -66.07,49.68l-1565.02 603.45c-4.88,-4.35 -9.9,-8.59 -15.09,-12.69 -148.01,-117.16 -362.99,-92.14 -480.15,55.87 -117.16,148.01 -92.14,362.99 55.87,480.15 148.01,117.16 362.99,92.14 480.15,-55.87 41.55,-52.5 65.19,-113.4 71.83,-175.4l1619.79 -624.19c37.13,-14.32 73.17,-37.19 97.88,-68.4l2562.99 -3237.98z"/>
   <circle class="fil7" transform="matrix(-0.17444 -0.138076 -0.138076 0.17444 4812.89 17570.9)" r="809.62"/>
  </g>
  <g id="_1709346817808">
   <path class="fil5" d="M11110.44 13657.63l74.77 59.18 -2562.99 3237.97c-13.89,17.55 -21.4,42.87 -24.39,64.73l-231.2 1687.74 -12.08 88.22c-65.63,7 -128.51,39.33 -172.72,95.18 -87.3,110.3 -68.67,270.48 41.64,357.79 110.3,87.31 270.48,68.67 357.79,-41.63 87.31,-110.3 68.67,-270.48 -41.63,-357.79 -19.91,-15.77 -41.46,-28.06 -63.92,-37l12.11 -88.24 35.91 -261.71 187.66 -1367.85c6.07,-44.24 25.22,-86.99 52.88,-121.93l2516.79 -3179.61 74.77 59.18 -2516.79 3179.61c-17.09,21.58 -29.45,48.45 -33.19,75.71l-227.98 1661.76c5.36,3.76 10.63,7.67 15.82,11.78 148.01,117.16 173.03,332.14 55.87,480.15 -117.16,148.01 -332.14,173.03 -480.15,55.87 -148.01,-117.16 -173.03,-332.14 -55.87,-480.15 41.55,-52.5 95.4,-89.49 154.22,-110.19l235.59 -1719.83c5.41,-39.42 19.4,-79.76 44.11,-110.97l2562.98 -3237.97z"/>
   <circle class="fil5" transform="matrix(0.17444 0.138076 -0.138076 0.17444 8381.57 19048.7)" r="809.62"/>
  </g>
  <g id="_1709346815888">
   <path class="fil5" d="M10353.94 13745.65l74.76 59.18 -2562.98 3237.98c-13.89,17.54 -21.4,42.86 -24.4,64.73l-231.19 1687.73 -12.08 88.23c-65.63,7 -128.51,39.33 -172.72,95.17 -87.31,110.31 -68.67,270.49 41.64,357.8 110.3,87.31 270.48,68.67 357.79,-41.63 87.31,-110.31 68.67,-270.49 -41.63,-357.8 -19.92,-15.76 -41.47,-28.05 -63.92,-36.99l12.11 -88.25 35.9 -261.71 187.67 -1367.85c6.07,-44.23 25.22,-86.98 52.88,-121.93l2516.79 -3179.61 74.76 59.18 -2516.78 3179.61c-17.09,21.59 -29.45,48.45 -33.19,75.72l-227.98 1661.76c5.35,3.75 10.63,7.67 15.82,11.77 148.01,117.16 173.02,332.14 55.87,480.16 -117.16,148.01 -332.14,173.02 -480.15,55.87 -148.02,-117.16 -173.03,-332.14 -55.87,-480.16 41.55,-52.49 95.4,-89.48 154.22,-110.18l235.59 -1719.83c5.41,-39.43 19.4,-79.76 44.1,-110.97l2562.99 -3237.98z"/>
   <circle class="fil5" transform="matrix(0.17444 0.138076 -0.138076 0.17444 7625.07 19136.8)" r="809.62"/>
  </g>
  <g id="_1709346816144">
   <path class="fil7" d="M9597.44 13833.68l74.76 59.18 -2562.98 3237.97c-13.89,17.55 -21.4,42.87 -24.4,64.73l-231.19 1687.74 -12.08 88.22c-65.63,7 -128.51,39.33 -172.72,95.18 -87.31,110.3 -68.67,270.48 41.63,357.79 110.31,87.31 270.49,68.68 357.8,-41.63 87.31,-110.3 68.67,-270.48 -41.63,-357.79 -19.92,-15.77 -41.47,-28.06 -63.92,-37l12.11 -88.24 35.9 -261.71 187.66 -1367.85c6.07,-44.23 25.23,-86.99 52.89,-121.93l2516.79 -3179.61 74.76 59.18 -2516.78 3179.61c-17.09,21.58 -29.45,48.45 -33.19,75.71l-227.98 1661.76c5.35,3.76 10.63,7.68 15.82,11.78 148.01,117.16 173.02,332.14 55.87,480.15 -117.16,148.01 -332.14,173.03 -480.16,55.87 -148.01,-117.16 -173.02,-332.14 -55.86,-480.15 41.55,-52.5 95.4,-89.49 154.22,-110.18l235.59 -1719.84c5.41,-39.42 19.4,-79.76 44.1,-110.97l2562.99 -3237.97z"/>
   <circle class="fil7" transform="matrix(0.17444 0.138076 -0.138076 0.17444 6868.57 19224.8)" r="809.62"/>
  </g>
  <path class="fil8" d="M8418.24 15129.37l-1688.61 -1336.61c-103.38,-81.82 -52.03,-119.38 -9,-273.29 510.32,-1825.31 1404.09,-3616.17 2688.19,-5238.44 2280.72,-2881.39 5361.23,-4694.91 8503.07,-5279.33 60.53,-11.26 127.11,37 129.27,83.24 149.99,3199.23 -899.53,6620.55 -3184.98,9507.89 -1284.09,1622.28 -2821.89,2903.37 -4481.26,3819.16 -139.91,77.22 -164.68,135.82 -268.06,53.99l-1688.62 -1336.61z"/>
  <path class="fil9" d="M6788.13 13839.07l1630.11 1290.3 1630.12 1290.3 -618.05 411.68c-73.87,49.22 -160.53,47.8 -258.58,-29.8l-1277 -1010.79 -1277 -1010.8c-98.04,-77.6 -119.32,-161.63 -88.37,-244.82l258.77 -696.07z"/>
  <path class="fil10" d="M3792.22 13408.4c-68.64,-808.38 310.79,-1576.64 988.6,-2432.97 861.76,-1088.71 2807.26,-2048.01 4287.1,-2247.31 -958.27,1304.87 -1673.34,2707.29 -2148.67,4141.19 -919.06,69.41 -1776.57,408 -2599.61,891.15 -205.79,120.8 -483.43,-48.3 -527.42,-352.06z"/>
  <path class="fil10" d="M11172.3 19250.03c802.54,-118.81 1463.16,-664.5 2140.98,-1520.82 867.51,-1095.99 1355.17,-3230.76 1199.86,-4718.24 -1049.6,1235.29 -2250.56,2255.99 -3537.58,3050.15 149.02,917.63 16.48,1837.2 -267.01,2756.41 -70.32,228.03 158,459.43 463.75,432.5z"/>
  <path class="fil10" d="M14241.29 4271.05c1182.97,-610.44 2421.91,-1037.08 3670.6,-1269.35 60.53,-11.26 127.11,37 129.27,83.24 58.07,1238.53 -63.78,2510.34 -367.39,3771.57 -394.68,-515.18 -857.29,-989.65 -1387.68,-1409.48 -635.39,-502.93 -1324.65,-893.52 -2044.8,-1175.98z"/>
  <circle class="fil11" transform="matrix(1.06645 0.844134 -0.844134 1.06645 13614.8 8559.48)" r="1449.92"/>
  <path class="fil7" d="M8471.21 9602.05c220.57,-348.3 457.41,-691.03 710.58,-1027.03 697.94,875.68 1548,1727.27 2530.79,2505.19 940.6,744.52 1918.99,1355.58 2888.91,1825.91 -269.43,322.84 -549.14,631.33 -837.97,925.26 -743.34,-365.93 -1490.94,-814.1 -2222,-1341.6l-24.73 -212.52 -107.78 -926.3 -926.3 107.79 -203.42 23.67c-680.55,-599.53 -1285.89,-1233.02 -1808.08,-1880.37z"/>
  <path class="fil7" d="M12876.89 14663.92c-743.52,-372.07 -1482.95,-822.46 -2200.85,-1349.99l22.23 -2.59 453.81 -52.8c648.64,455.61 1312.78,849.12 1979.92,1179.43 -84.4,76.47 -169.44,151.79 -255.11,225.95zm-3211.07 -2157.15c-674.1,-584.76 -1277.16,-1207.65 -1803.64,-1851.79 52.86,-100.54 106.98,-200.72 162.38,-300.53 468.25,577.92 997.97,1139.12 1585.3,1671.49l54.33 466.89 1.63 13.94z"/>
  <path class="fil12" d="M10975.56 16061.12c1299.53,-797.55 2478.73,-1814.26 3537.58,-3050.15 -988.42,1618.09 -2148.86,2815.37 -3481.34,3591.87 -11.09,-205.86 -29.84,-386.44 -56.24,-541.72z"/>
  <path class="fil12" d="M6919.25 12869.31c477.87,-1447.94 1196.66,-2829.08 2156.4,-4143.41 -1347.9,1333.54 -2246.76,2737.88 -2696.55,4213.05 202.9,-36.47 382.96,-59.68 540.15,-69.64z"/>
  <path class="fil5" d="M8153.17 10127.46c31.33,-54.21 63.05,-108.32 95.15,-162.3 646.25,823.22 1477.84,1659.17 2455,2432.63 914.02,723.48 1852.07,1310.66 2746.65,1743.59 -45.2,43.41 -90.61,86.46 -136.22,129.17 -887.2,-431.76 -1816.46,-1014.74 -2722.15,-1731.62 -968.78,-766.83 -1794.58,-1595.09 -2438.43,-2411.47z"/>
  <polygon class="fil5" points="11268.18,11528.88 11357.41,12295.81 11446.66,13062.73 10679.73,13151.97 9912.8,13241.21 9823.57,12474.28 9734.32,11707.35 10501.25,11618.12 "/>
  <path class="fil13" d="M10385.87 12045.96l-190.41 237.21c-9.77,12.05 -9.92,23.12 3.67,34.02 13.65,10.91 24.33,8.4 34.1,-3.65l190.41 -237.29 36.64 29.47 -10.91 13.58c-9.68,12.05 -9.84,23.11 3.74,34.02 13.58,10.99 24.34,8.39 34.02,-3.66l41.27 -51.43 -186.57 -149.79 -41.28 51.36c-9.68,12.04 -9.84,23.11 3.75,34.02 13.57,10.98 24.33,8.39 34.01,-3.66l10.92 -13.67 36.64 29.47z"/>
  <path id="1" class="fil13" d="M10697.2 12292.78l55.53 44.61c9.88,7.9 23.19,9.92 34.1,-3.74 10.91,-13.58 6.07,-26.13 -3.74,-34.03l-148.82 -119.5c-9.8,-7.89 -23.12,-9.84 -34.02,3.75 -10.99,13.57 -6.14,26.12 3.65,34.01l55.53 44.62 -175.27 218.32 -55.52 -44.6c-9.81,-7.9 -23.12,-9.84 -34.11,3.74 -10.9,13.57 -6.06,26.12 3.75,34.02l148.82 119.5c9.88,7.9 23.19,9.92 34.1,-3.65 10.91,-13.67 6.06,-26.22 -3.75,-34.11l-55.52 -44.54 175.27 -218.4z"/>
  <path id="2" class="fil13" d="M10668.1 12656.49c-9.69,12.05 -9.84,23.12 3.74,34.02 13.58,10.91 24.33,8.4 34.1,-3.65l113.4 -141.35 92.9 74.65c9.88,7.9 23.19,9.84 34.1,-3.74 10.91,-13.58 6.06,-26.13 -3.75,-34.03l-92.88 -74.65 46.65 -58.18 129.93 104.37c9.88,7.89 23.19,9.91 34.1,-3.74 10.91,-13.59 6.07,-26.13 -3.74,-34.03l-167.7 -134.64 -220.85 274.97z"/>
  <rect class="fil5" transform="matrix(1.20925 0.95717 -18.7498 23.6877 9939.89 13093)" width="87.86" height="84.11"/>
  <g id="_1709346795120">
   <path class="fil15" d="M13587.71 9885.58c16.19,-32.7 2.82,-72.33 -29.88,-88.53 -32.69,-16.19 -72.32,-2.81 -88.52,29.88l0 0c-0.25,0.51 -0.5,1.02 -0.74,1.54l0 0c-31.22,65.09 -4.64,143.24 60.49,175.5 65.14,32.26 150.08,8.95 182.47,-56.44 -13.69,27.47 -62.32,42.23 -93.95,26.57 -32.69,-16.2 -46.07,-55.83 -29.87,-88.52z"/>
   <path class="fil5" d="M13597.94 9875.72c-16.2,32.69 -2.82,72.32 29.87,88.52 32.7,16.19 72.33,2.82 88.52,-29.88l0 0c0.26,-0.51 0.5,-1.02 0.74,-1.54l0 0c31.22,-65.09 4.64,-143.24 -60.49,-175.5 -65.13,-32.26 -150.07,-8.95 -182.46,56.44 13.69,-27.47 62.31,-42.23 93.94,-26.56 32.7,16.19 46.07,55.82 29.88,88.52z"/>
   <g>
    <circle class="fil5" transform="matrix(-0.23662 0.23662 0.23662 0.23662 14005.2 8932.89)" r="931.33"/>
    <path class="fil5" d="M14338.48 9007.41c197.99,-96.54 443.54,-62.59 608.03,101.9l245.07 245.06 -750.72 750.73 -245.07 -245.07c-160.99,-160.99 -196.93,-399.61 -107.89,-595.31 59.78,-11.11 116.94,-39.76 163.18,-86 48.33,-48.34 77.45,-108.6 87.4,-171.31z"/>
   </g>
   <g>
    <circle class="fil5" transform="matrix(-0.23662 0.23662 -0.23662 -0.23662 13210 8137.61)" r="931.33"/>
    <path class="fil5" d="M13135.45 7804.38c96.54,-197.99 62.6,-443.54 -101.89,-608.03l-245.07 -245.07 -750.73 750.72 245.07 245.07c160.99,160.99 399.61,196.93 595.31,107.89 11.11,-59.78 39.76,-116.94 86.01,-163.18 48.33,-48.33 108.59,-77.45 171.3,-87.4z"/>
   </g>
   <path class="fil15" d="M12246.1 8529.88c32.7,-16.19 72.33,-2.81 88.53,29.88 16.19,32.7 2.81,72.33 -29.88,88.52l0 0c-0.51,0.25 -1.02,0.5 -1.54,0.74l0 0c-65.09,31.22 -143.24,4.64 -175.5,-60.49 -32.26,-65.13 -8.95,-150.08 56.44,-182.46 -27.47,13.68 -42.23,62.31 -26.57,93.94 16.2,32.69 55.83,46.07 88.52,29.87z"/>
   <path class="fil5" d="M12255.96 8519.66c-32.69,16.19 -72.32,2.81 -88.52,-29.88 -16.19,-32.7 -2.82,-72.33 29.88,-88.52l0 0c0.51,-0.25 1.02,-0.5 1.54,-0.74l0 0c65.09,-31.22 143.24,-4.64 175.5,60.49 32.26,65.13 8.95,150.08 -56.44,182.46 27.47,-13.68 42.23,-62.31 26.56,-93.94 -16.19,-32.69 -55.82,-46.07 -88.52,-29.87z"/>
   <path class="fil15" d="M14941.69 8521.74c-32.69,16.19 -72.33,2.82 -88.52,-29.88 -16.19,-32.69 -2.82,-72.32 29.88,-88.52l0 0c0.51,-0.25 1.02,-0.5 1.53,-0.73l0.01 -0.01c65.09,-31.21 143.24,-4.64 175.5,60.5 32.26,65.13 8.94,150.07 -56.44,182.46 27.46,-13.69 42.23,-62.31 26.56,-93.94 -16.19,-32.7 -55.82,-46.07 -88.52,-29.88z"/>
   <path class="fil5" d="M14931.83 8531.97c32.7,-16.19 72.33,-2.82 88.52,29.88 16.2,32.69 2.82,72.32 -29.87,88.52l0 0c-0.51,0.25 -1.03,0.5 -1.54,0.73l-0.01 0.01c-65.08,31.21 -143.23,4.64 -175.5,-60.5 -32.26,-65.13 -8.94,-150.07 56.45,-182.46 -27.47,13.69 -42.24,62.31 -26.57,93.94 16.2,32.7 55.83,46.07 88.52,29.88z"/>
   <path class="fil15" d="M13600.99 7185.13c-16.2,32.7 -2.82,72.33 29.87,88.52 32.7,16.2 72.33,2.82 88.52,-29.87l0 0c0.26,-0.51 0.5,-1.03 0.74,-1.54l0 0c31.22,-65.09 4.64,-143.24 -60.49,-175.5 -65.13,-32.27 -150.07,-8.95 -182.46,56.44 13.69,-27.47 62.31,-42.23 93.94,-26.57 32.7,16.2 46.07,55.83 29.88,88.52z"/>
   <path class="fil5" d="M13590.76 7194.99c16.19,-32.69 2.82,-72.32 -29.88,-88.52 -32.69,-16.19 -72.32,-2.82 -88.52,29.88l0 0c-0.25,0.51 -0.5,1.02 -0.74,1.54l0 0c-31.21,65.09 -4.64,143.24 60.49,175.5 65.14,32.26 150.08,8.95 182.47,-56.44 -13.69,27.47 -62.32,42.23 -93.95,26.56 -32.69,-16.19 -46.07,-55.82 -29.87,-88.52z"/>
   <path class="fil15" d="M13488.53 9923.74c-319.92,-24.78 -632.92,-159.47 -877.61,-404.15 -244.69,-244.69 -379.38,-557.7 -404.16,-877.62l80.86 0c24.61,299.25 151.33,591.69 380.28,820.63 228.94,228.95 521.38,355.67 820.63,380.28l0 80.86z"/>
   <path class="fil5" d="M14987.15 8641.97c-24.78,319.92 -159.47,632.93 -404.16,877.62 -244.68,244.68 -557.69,379.35 -877.61,404.15l0 -80.86c299.25,-24.63 591.69,-151.33 820.63,-380.28 228.95,-228.94 355.67,-521.38 380.28,-820.63l80.86 0z"/>
   <path class="fil5" d="M13488.53 7224.21c-299.25,24.61 -591.69,151.33 -820.63,380.28 -228.95,228.95 -355.65,521.38 -380.28,820.63l-80.86 0c24.8,-319.92 159.47,-632.92 404.16,-877.61 244.69,-244.69 557.69,-379.38 877.61,-404.16l0 80.86z"/>
   <path class="fil15" d="M14582.99 7547.51c244.69,244.69 379.36,557.69 404.16,877.61l-80.86 0c-24.63,-299.25 -151.33,-591.68 -380.28,-820.63 -228.94,-228.95 -521.38,-355.65 -820.63,-380.28l0 -80.86c319.92,24.8 632.93,159.47 877.61,404.16z"/>
   <g>
    <circle class="fil16" transform="matrix(-0.23662 -0.23662 -0.23662 0.23662 13210 8918.78)" r="931.33"/>
    <path class="fil7" d="M13135.46 9252.01c96.54,197.99 62.6,443.54 -101.89,608.03l-245.07 245.07 -750.73 -750.72 245.07 -245.07c160.99,-160.99 399.61,-196.92 595.31,-107.89 11.11,59.78 39.76,116.94 86.01,163.18 48.33,48.34 108.59,77.45 171.3,87.4z"/>
   </g>
   <g>
    <circle class="fil16" transform="matrix(-0.23662 -0.23662 0.23662 -0.23662 14005.3 8123.5)" r="931.33"/>
    <path class="fil7" d="M14338.49 8048.99c197.99,96.53 443.54,62.59 608.03,-101.9l245.07 -245.07 -750.72 -750.73 -245.07 245.07c-160.99,160.99 -196.93,399.61 -107.89,595.32 59.78,11.1 116.94,39.75 163.18,86 48.33,48.33 77.45,108.59 87.4,171.31z"/>
   </g>
  </g>
  <path class="fil17" d="M14838.7 7013.21c853.97,675.96 998.29,1916.22 322.33,2770.19 -675.95,853.98 -1916.21,998.29 -2770.19,322.34 -853.97,-675.96 -998.29,-1916.21 -322.33,-2770.19 675.96,-853.98 1916.21,-998.29 2770.19,-322.34zm-205.16 259.2c710.82,562.65 830.95,1595 268.3,2305.83 -562.65,710.83 -1595,830.95 -2305.83,268.3 -710.83,-562.65 -830.96,-1595 -268.31,-2305.83 562.65,-710.83 1595.01,-830.95 2305.84,-268.3z"/>
 </g>
</svg>
